<?xml version="1.0" encoding="utf-8"?>
<!-- Generator: Adobe Illustrator 27.9.2, SVG Export Plug-In . SVG Version: 6.00 Build 0)  -->
<svg version="1.1" xmlns="http://www.w3.org/2000/svg" xmlns:xlink="http://www.w3.org/1999/xlink" x="0px" y="0px"
	 viewBox="0 0 360 360" style="enable-background:new 0 0 360 360;" xml:space="preserve">
<style type="text/css">
	.st0{fill:#314F63;}
	.st1{fill:#90BFE9;}
	.st2{opacity:0.44;fill:none;stroke:#28416B;stroke-miterlimit:10;}
	.st3{fill:none;stroke:#0D1829;stroke-miterlimit:10;}
	.st4{fill:#525D52;}
	.st5{fill:none;stroke:#131E30;stroke-miterlimit:10;}
	.st6{fill:#253041;}
	.st7{fill:#525A60;}
	.st8{fill:#1E293B;}
	.st9{fill:none;stroke:#143045;stroke-miterlimit:10;}
	.st10{fill:none;stroke:#192840;stroke-miterlimit:10;}
	.st11{fill:#111A2A;}
	.st12{fill:#111B2A;}
	.st13{fill:#071827;}
	.st14{fill:#565D66;}
	.st15{fill:none;stroke:#000000;stroke-miterlimit:10;stroke-dasharray:0,0,0,0,0,0;}
	.st16{fill:none;stroke:#1F2A38;stroke-width:3;stroke-miterlimit:10;}
	.st17{fill:none;stroke:#1C2639;stroke-width:3;stroke-miterlimit:10;}
	.st18{fill:none;stroke:#28416B;stroke-miterlimit:10;}
	.st19{fill:#FFFFFF;}
</style>
<g id="Layer_2">
</g>
<g id="Layer_1">
	<g>
		<rect x="54.58" y="207.52" class="st0" width="251.43" height="102.86"/>
		<rect x="54.58" y="49.6" class="st1" width="251.43" height="160.82"/>
		<path class="st2" d="M70.95,144.11c-5.38,1.9-10.36,4.82-15.3,7.73"/>
		<path class="st2" d="M56.78,146.89c3.5,0.67,6.96,1.57,10.35,2.7"/>
		<path class="st2" d="M74.69,143.09c-2.54,2.35-5.09,4.7-7.63,7.04"/>
		<path class="st2" d="M86.21,141.11c-5.76,2.53-11.42,5.28-16.99,8.23"/>
		<path class="st2" d="M74.92,143.04c2.76,1.09,5.52,2.18,8.28,3.27"/>
		<path class="st2" d="M90.34,139.92c-2.32,2.09-4.65,4.19-6.97,6.28"/>
		<path class="st2" d="M103.27,137.77c-6.31,2.6-12.62,5.2-18.93,7.8"/>
		<path class="st2" d="M106.08,137.14c-2.7,2.12-5.41,4.24-8.11,6.36"/>
		<path class="st2" d="M118.32,135.03c-6.26,2.51-12.51,5.02-18.77,7.53"/>
		<path class="st2" d="M120.93,135.14c-3.27,2.14-6.55,4.27-9.82,6.41"/>
		<path class="st2" d="M132.11,134.34c-6.11,1.7-12.1,3.84-17.92,6.39"/>
		<path class="st2" d="M134.12,133.63c-3.32,2.12-6.74,4.08-10.24,5.87"/>
		<path class="st2" d="M141.38,133.89c-5.83,1.83-11.6,3.88-17.29,6.15"/>
		<path class="st2" d="M143.89,133.7c-2.99,1.83-5.99,3.67-8.98,5.5"/>
		<path class="st2" d="M153.66,133.77c-5.97,1.52-11.9,3.19-17.78,5.02"/>
		<path class="st2" d="M155.08,133.83c-3.17,1.65-6.35,3.3-9.52,4.94"/>
		<path class="st2" d="M163.51,134.54c-6.1,1.25-12.13,2.83-18.07,4.72"/>
		<path class="st2" d="M164.47,134.46c-3.4,1.78-6.8,3.55-10.2,5.33"/>
		<path class="st2" d="M155.09,139.84c5.45-1.79,11.02-3.19,16.55-4.1c0.44-0.19,0.9-0.31,1.38-0.37"/>
		<path class="st2" d="M174.12,134.59c-3.39,1.92-6.77,3.83-10.16,5.75"/>
		<path class="st2" d="M181.3,136.61c-6.41,1.21-12.78,2.61-19.1,4.2"/>
		<path class="st2" d="M182.11,135.93c-3.47,2.09-7.05,3.99-10.73,5.66"/>
		<path class="st2" d="M189.29,138.6c-5.94,0.61-11.84,1.59-17.67,2.94"/>
		<path class="st2" d="M182.36,136.75c-1.3,2.3-2.77,4.49-4.4,6.55"/>
		<path class="st2" d="M189.82,138.14c-3.74,1.62-7.49,3.23-11.23,4.85"/>
		<path class="st2" d="M190.58,138.56c-1.37,2.05-2.26,3.22-3.62,5.27c0.03-0.12-0.41,0.64-0.38,0.52"/>
		<path class="st2" d="M180.37,142.85c5.1-0.8,10.2-1.6,15.3-2.41"/>
		<path class="st2" d="M196.81,140.1c-3,1.16-7.23,3.1-10.23,4.26"/>
		<path class="st2" d="M186.58,144.36c4.66-0.56,11.28-1.12,15.94-1.68"/>
		<path class="st2" d="M203.45,143.03c-2.84,0.96-6.58,2.34-9.41,3.31"/>
		<path class="st2" d="M193.81,146.81c3.78-0.39,10.7-1.25,14.48-1.64"/>
		<path class="st3" d="M197.43,140.92c-1.24,1.86-2.48,3.73-3.73,5.59"/>
		<path class="st2" d="M209.53,145.76c-3.04,1.05-6.09,2.11-9.13,3.16"/>
		<path class="st2" d="M201.32,149.55c4.41-0.96,8.92-1.4,14.03-1.14c-2.94,1.02-5.89,2.04-8.83,3.06"/>
		<path class="st2" d="M220.64,150.82c-4.58-0.06-9.17,0.16-13.73,0.65c0.18,0.18,0.35,0.35,0.53,0.53
			c-0.16-0.09-0.33-0.18-0.49-0.27"/>
		<path class="st2" d="M221.25,151.21c-2.81,1.09-5.7,1.98-8.63,2.65"/>
		<path class="st2" d="M212.46,154.71c5.49-0.18,10.98-0.37,16.46-0.55"/>
		<path class="st2" d="M227.59,154.56c-3.02,1.17-6.11,2.14-9.24,2.92"/>
		<path class="st2" d="M218.71,157.69c4.55-0.03,9.83-0.3,14.38-0.34"/>
		<path class="st2" d="M233.63,157.89c-3.04,0.82-7.33,2.15-10.37,2.98"/>
		<path class="st2" d="M223.82,160.86c4.68,0.09,9.37,0.18,14.05,0.27"/>
		<path class="st2" d="M231.45,163.33c2.61-0.58,4.81-1.08,7.42-1.66"/>
		<path class="st2" d="M230.87,164.53c4.43-0.01,8.86,0.24,13.27,0.74"/>
		<path class="st2" d="M239.39,161.81c-2.09,1.96-4.25,3.84-6.48,5.62"/>
		<path class="st2" d="M236.16,167.28c2.57-0.84,5.2-1.47,7.87-1.88"/>
		<path class="st2" d="M235.99,168.03c4.22,0.29,8.45,0.58,12.67,0.88"/>
		<path class="st2" d="M244.77,165.42c-2.22,1.95-4.53,3.79-6.93,5.5"/>
		<path class="st2" d="M239.12,171.48c3.49-0.71,6.98-1.43,10.49-1.89c-2.49,1.55-4.85,3.3-7.08,5.23"/>
		<path class="st2" d="M240.32,172.18c4.17,0.27,8.35,0.54,12.52,0.8"/>
		<path class="st2" d="M243.69,175.37c3.31-0.61,6.62-1.23,9.94-1.84"/>
		<path class="st2" d="M254.01,174.11c-2.41,1.59-4.82,3.19-7.23,4.78"/>
		<path class="st2" d="M246.89,176.16c3.57,0.37,7.15,0.74,10.72,1.11"/>
		<path class="st2" d="M257.97,177.28c-3.34,0.34-6.98,1.47-10.28,2.07"/>
		<path class="st2" d="M248.64,180.03c4.4,0.44,8.78,1.06,13.13,1.87"/>
		<path class="st2" d="M261.53,182.5c-3.31,0.04-6.61,0.39-9.87,1.03"/>
		<path class="st2" d="M257.97,177.28c-1.84,1.58-4.45,4.32-6.46,5.68"/>
		<path class="st2" d="M252.79,184c2.15,0.26,5.16,0.54,6.84,0.89c-1.24,0.73-3.38,1.37-4.37,1.79c1.14,0.05,2.28,0.1,3.42,0.15"/>
		<path class="st2" d="M256.39,187.55c0.78,0,1.55,0,2.33,0"/>
		<path class="st2" d="M250.65,183.52c-1.74,1.53-4.15,3.92-5.89,5.45"/>
		<path class="st2" d="M239.12,184.96c3.12-0.21,8.15-0.62,11.21-1.25"/>
		<path class="st2" d="M236.23,181.26c-0.19-0.02-1.53-0.29-1.72-0.31c4.66,0.69,11.49,1.88,16.14,2.57"/>
		<path class="st2" d="M245.24,179.1c-2.09,2.05-4.23,4.04-6.42,5.96"/>
		<path class="st2" d="M234.01,180.34c3.26-0.57,8.24-0.81,11.5-1.38"/>
		<path class="st2" d="M240.02,174.46c-1.91,2.05-3.92,4.02-6.01,5.87"/>
		<path class="st2" d="M229.97,176.44c3.62,0.62,7.97,1.4,11.63,1.67"/>
		<path class="st2" d="M229.27,175.56c3.08-0.53,7.91-0.64,10.99-1.17"/>
		<path class="st2" d="M231.93,172.88c2.16,0.33,5.22,0.39,7.4,0.52"/>
		<path class="st2" d="M225.26,172.39c2.31,0.17,4.63,0.33,6.94,0.5"/>
		<path class="st2" d="M235.5,169.85c-2.07,2.15-4.27,4.15-6.59,6"/>
		<path class="st2" d="M235.58,170.51c-0.05,1.65-0.48,5.71-0.53,7.36"/>
		<path class="st2" d="M240.34,174.68c0.19,1.38,0.09,4.89,0.28,6.27"/>
		<path class="st2" d="M224.61,171.9c3.5-0.76,6.99-1.52,10.49-2.28"/>
		<path class="st2" d="M220.38,168.66c4.67,0.11,8.62,0.21,13.29,0.32"/>
		<path class="st2" d="M230.13,165.42c-2.05,2.06-4.1,4.12-6.15,6.18"/>
		<path class="st2" d="M229.97,166.55c0.11,1.87,0.19,5.15,0.3,7.01"/>
		<path class="st2" d="M219.22,168.01c2.56-0.73,5.58-1.66,8.14-2.39"/>
		<path class="st2" d="M215.09,165.09c4.04,0.03,8.08,0.05,12.11,0.08"/>
		<path class="st2" d="M213.77,164.25c3.19-0.83,6.08-1.28,9.28-2.12"/>
		<path class="st2" d="M209.61,162.14c4.19-0.07,8.29-0.63,12.48-0.7"/>
		<path class="st2" d="M224.35,162.63c0.12,1.9,0.18,3.8,0.19,5.7c0-0.05,0.08,3.62,0.08,3.57"/>
		<path class="st2" d="M207.78,161.23c3.2-0.9,6.04-1.55,9.23-2.45"/>
		<path class="st2" d="M202.15,158.77c4.62-0.2,9.24-0.4,13.86-0.61"/>
		<path class="st2" d="M200.62,158.47c3.71-0.98,7.43-1.96,11.14-2.94"/>
		<path class="st2" d="M197.29,157.02c4.1-0.46,7.88-1.3,11.98-1.76"/>
		<path class="st2" d="M194.5,156.15c3.01-0.91,6.02-1.83,9.03-2.74"/>
		<path class="st2" d="M189.09,154.69c4.38-0.63,8.76-1.26,13.13-1.9"/>
		<path class="st2" d="M180.1,152.99c2.95-0.95,5.89-1.89,8.84-2.84"/>
		<path class="st2" d="M172.88,151.71c2.63-0.97,5.29-1.86,7.97-2.66"/>
		<path class="st2" d="M173.94,152.57c4.49-1.5,9.13-2.53,13.82-3.07"/>
		<path class="st2" d="M164.6,151.89c3.03-0.66,6.03-1.48,8.98-2.44"/>
		<path class="st2" d="M156.64,152.08c2.69-0.75,5.38-1.5,8.07-2.25"/>
		<path class="st2" d="M146.92,152.08c3.11-0.93,4.58-1.14,7.62-2.29"/>
		<path class="st2" d="M240.34,186.25c4.96,1.28,10.43,2.08,15.53,2.44"/>
		<path class="st4" d="M318.69,209.29c-29.26,3.54-58.66,4.25-88.02,4.95c-61.13,1.46-122.26,2.93-183.4,3.17
			c0.52-3.2-0.05-6.62-1.54-9.3c1.35,0.27,2.7,0.54,4.05,0.81c3.27-6.79,5.25-14.49,5.73-22.31c1.27,0.47,2.55,0.94,3.82,1.41
			c-0.98,4.7-1.96,9.66-0.87,14.3s5.05,8.59,8.85,7.15c1.94,1.72,4.98,1.23,6.52-1.06c9.71,2.67,20.23,0.98,29.13-4.68
			c1.26-1.96,2.52-3.92,3.78-5.88c1.13,2.39,2.25,4.78,3.38,7.17c1.67,0.44,3.51-1.23,3.66-3.31c1.63,2.49,4.84,3.16,7.09,1.47
			c1.88,2.34,5.89-0.12,5.51-3.38c0.93,3.43,4.17,5.64,7.07,4.81c-0.85-1.88-0.27-4.54,1.24-5.69c1.49,1.93,3.81,2.86,5.96,2.39
			c-0.11,1.3-0.22,2.59-0.33,3.89c9.62-1.19,19.23-2.38,28.85-3.56c9.63-0.88,19.27-1.76,28.9-2.64c-0.38-4.42,5.21-7.39,7.55-4.02
			c0.71-3.35,1.42-6.69,2.13-10.04c4.87-1.71,9.9,5.66,7.65,11.22c1.85-1.03,4.31,0.44,4.75,2.85c1.1-2.64,3.72-4.2,6.07-3.61
			c0.65-4.09,1.3-8.18,1.95-12.27c1.62,0.15,3.24,0.3,4.85,0.46c0.2,4.72,0.4,9.44,0.61,14.16c5.15-3.27,9.35-8.77,11.66-15.28
			c3.96,4.16,7.91,8.32,11.87,12.49c2.18,2.29,5.41,4.64,7.68,2.43c7.15,3.32,15.44,2.89,22.4-1.16c7.47,2.08,15.18,2.91,22.86,2.46
			c0.76-1.61,1.52-3.21,2.28-4.82c1.79,0.6,3.58,1.2,5.37,1.79c-0.14,1.57-0.29,3.14-0.43,4.71c1.35,0.54,2.7,1.08,4.05,1.63
			c0.21,2.63,0.42,5.27,0.63,7.9c-1.52-0.07-3.04-0.14-4.55-0.21"/>
		<path class="st5" d="M87.87,172.06c27.23-19.93,61.75-22.77,92.8-18.58c17.69,1.82,34.76,9.6,48.93,22.62
			c0.79,0.68,1.58,1.37,1.95,1.72c0.8,0.76,1.6,1.52,2.21,2.48c10.45,8.88,19.51,19.52,26.72,31.37"/>
		<path class="st6" d="M263.06,181.99c-1.02-0.22-2.08-0.26-3.07-0.03c0.09,0.76,0.08,1.52,0.04,2.41c-0.56-0.03-1.05,0.6-0.91,1.16
			c-0.61,0.3-0.6,1.18-0.51,1.87c0.71,5.65,0.59,11.37,0.47,17.06c-0.07,3.46-0.15,6.92,0.1,10.47c2.46,0.15,4.93,0.22,7.25,0.15
			c-0.87-11.06-1.98-22.11-3.31-33.12"/>
		<path class="st7" d="M267.6,192.22c-0.04-0.82-0.08-1.65-0.13-2.47c-0.04-1.16-0.11-2.24-0.24-3.33c-0.01-0.09-0.03-0.18-0.1-0.23
			c-0.04-0.03-0.09-0.03-0.14-0.03c-0.32-0.01-0.63-0.02-0.95-0.03c-0.11-0.88-0.2-1.59-0.29-2.31c-0.29-0.17-0.66-0.2-1.02-0.15
			c-0.12-0.39-0.17-0.68-0.22-0.98c-0.39-0.19-0.75-0.22-1.18-0.04c0,3.12,0.29,6.24,0.9,9.31c1.14,0.22,2.3,0.36,3.46,0.42
			c-0.01-0.08-0.02-0.16-0.04-0.24"/>
		<path class="st8" d="M271.65,213.26c2.82-0.17,5.64-0.34,8.46-0.51c-1.82-6.01-1.71-12.44-2.37-18.7
			c-0.24-2.29-0.59-4.57-1.04-6.82c-0.41-1.65-0.82-3.3-1.23-4.94c-0.09-0.39-0.16-0.71-0.22-1.02c-0.64-0.14-1.29-0.08-1.94,0.13
			c0.01,0.34,0.03,0.69,0,1.02c-0.33,0.05-0.66,0.09-0.93,0.21c-0.01,0.54-0.01,1.08-0.08,1.71c0.05,1-0.01,2.01-0.16,3.03
			c-0.19,0.01-0.39,0.03-0.42,0.09c0.05,8.58,0.1,17.17,0.15,25.75"/>
		<path class="st3" d="M267.05,187.01c-0.36,1.55-0.72,3.62-1.07,5.17"/>
		<path class="st2" d="M262.7,184.96c0.77,0.14,2.85,0.45,3.73,0.48c-0.52,1.12-4.37,1.83-4.89,2.98c1.11,0.04,4.22-0.22,5.33-0.18"
			/>
		<path class="st3" d="M262.95,182.57c-0.62,2.59-1.85,5.91-2.48,8.5"/>
		<path class="st3" d="M260.47,191.07c-0.45-3.9-1.27-8.69-1.69-12.36c-1.35,3.42-2.53,6.91-3.53,10.46"/>
		<path class="st3" d="M255.43,188.52c-0.06-5.01-0.45-10.02-1.16-15.02c-1.8,4.83-3.62,11.34-4.64,16.4"/>
		<path class="st9" d="M276.61,179.98"/>
		<path class="st3" d="M249.39,169.36c0.31,4.78,0.63,9.56,0.94,14.34"/>
		<path class="st3" d="M251.29,183.94c0.24,1.75,0.34,4.51,0.38,6.28"/>
		<path class="st3" d="M244.73,165.93c0.32,3.99,0.65,7.98,0.97,11.98"/>
		<path class="st3" d="M247.04,179.58c0.21,3,0.44,7.18,0.65,10.18"/>
		<path class="st3" d="M246.05,177.89c1.42-2.54,2.65-5.19,3.68-7.92"/>
		<path class="st3" d="M239.9,162.63c0.22,3.45,0.44,6.9,0.65,10.35"/>
		<path class="st3" d="M244.73,165.93c-1.11,2.24-2.58,4.98-3.68,7.22"/>
		<path class="st3" d="M242.49,175.75c0.33,3.94,0.75,9.28,1.08,13.23"/>
		<path class="st3" d="M242.49,176.19c-1.02,2.57-2.41,5.98-3.43,8.55"/>
		<path class="st3" d="M246.89,180.03c-0.75,2.63-2.29,6.43-3.32,8.95"/>
		<path class="st3" d="M239.11,185.24c-0.43-3.87-0.86-9.05-1.45-12.55c-1.24,2.4-2.67,5.13-3.65,7.65"/>
		<path class="st3" d="M234.01,180.34c-0.11-3.63-0.31-8.05-1.09-11.51c-1.2,2.14-2.59,4.52-3.65,6.73"/>
		<path class="st3" d="M239.55,162.27c-1.31,2.04-2.53,4.14-3.66,6.29"/>
		<path class="st3" d="M234.93,159.08c0.28,3.03,0.56,6.71,0.84,9.74"/>
		<path class="st3" d="M234.51,158.38c-1.32,2.13-2.63,4.25-3.95,6.38"/>
		<path class="st3" d="M229.44,155.23c0.07,3.15,0.35,6.3,0.84,9.41"/>
		<path class="st3" d="M229.3,175.85c-0.38-3.18-0.98-7.62-1.4-11.13c-1.21,1.94-3.25,4.29-4.33,6.31"/>
		<path class="st3" d="M223.26,161.67c0.22,3.12,0.21,6.54,0.43,9.66"/>
		<path class="st3" d="M228.07,155.26c-1.3,2.08-2.59,4.15-3.89,6.23"/>
		<path class="st3" d="M223.6,152.05c0.27,3.07,0.4,6.14,0.39,9.22"/>
		<path class="st3" d="M222.65,151.56c-1.21,2.11-2.53,4.16-3.94,6.13"/>
		<path class="st3" d="M217.92,148.94c0.24,2.66,0.19,5.87,0.42,8.53"/>
		<path class="st9" d="M217.83,158.49c0.09,2.4,0.19,6.22,0.28,8.62"/>
		<path class="st3" d="M222.74,161.86c-1.22,1.82-2.44,3.64-3.66,5.46"/>
		<path class="st3" d="M211.66,146.62c0.12,2.55,0.24,5.1,0.45,7.83c0.11,2.67,0.39,6.63,0.51,9.3"/>
		<path class="st3" d="M216.79,149.33c-1.32,2.02-2.77,3.96-4.97,5.74c-1.35,1.87-3.01,3.93-4.35,5.8"/>
		<path class="st9" d="M250.29,163.58"/>
		<path class="st3" d="M204.85,143.64c0.55,2.2,0.78,4.5,0.43,6.77c0.59,3,0.8,6.87,0.98,9.92"/>
		<path class="st3" d="M210.65,146.33c-3.04,3.74-7.08,7.93-10.11,11.67"/>
		<path class="st3" d="M204.47,143.52c-3.35,3.74-7.6,8.09-10.43,12.26"/>
		<path class="st3" d="M198.81,141.27c-0.16,2.29-0.33,4.57-0.49,6.86"/>
		<path class="st3" d="M200,150.45c0.31,2.17,0.46,5.24,0.4,7.44"/>
		<path class="st3" d="M198.02,148.19c-2.38-2.78-4.63-5.67-6.72-8.7c0.06,2.02,0.11,4.04,0.17,6.05"/>
		<path class="st3" d="M190.43,146.06c-2.33-2.81-4.66-5.61-7.12-8.22c0.11,1.85,0.21,3.7,0.32,5.54"/>
		<path class="st3" d="M187,145.75c0.04,2.51-0.04,6.13,0,8.64"/>
		<path class="st3" d="M192.18,147.67c-1.46,1.96-3.45,4.53-4.91,6.49"/>
		<path class="st3" d="M193.58,148.04c0.4,2.19,0.59,5.52,0.46,7.74"/>
		<path class="st3" d="M179.24,143.55c0.09,3.13,0.18,6.27,0.27,9.4"/>
		<path class="st3" d="M174.72,135.38c3.81,5.13,8.89,13.08,11.86,18.78"/>
		<path class="st3" d="M179.71,153.36c-4.39-5.4-9.09-13.06-14-18.77c0.06,5.43,0.52,12.25,0.58,17.68"/>
		<path class="st3" d="M171.92,142.7c0.08,2.96,0.14,6.57,0.21,9.53"/>
		<path class="st3" d="M163.34,141.82c0.52,3.51,0.48,6.6,0.44,10.15"/>
		<path class="st3" d="M156.35,133.5c3.85,6.02,9.54,13.57,14.37,18.77"/>
		<path class="st3" d="M166,143.42c1.85,2.68,4.27,6.13,6.12,8.81"/>
		<path class="st3" d="M155.96,142.1c2.32,3.1,5.51,6.77,7.82,9.87"/>
		<path class="st3" d="M146.19,133.63c3.71,5.95,8.64,12.92,13.27,18.14"/>
		<path class="st3" d="M156.35,133.5c-0.37,5.62-0.4,13.15-0.1,18.77"/>
		<path class="st3" d="M146.19,133.63c-0.14,5.26-0.28,12.32-0.41,17.58"/>
		<path class="st3" d="M146.33,141.17c2.04,2.95,4.08,5.89,6.11,8.84"/>
		<path class="st3" d="M134.12,133.63c3.41,5.23,7.37,11.85,10.79,17.08"/>
		<path class="st3" d="M135.34,140.32c2.96,4.12,4.68,6.71,7.08,11.19"/>
		<path class="st3" d="M134.12,133.63c0.01,5.75,0.26,13.83,0.27,19.58"/>
		<path class="st3" d="M121.73,135.14c3.09,5.86,7.42,12.4,11.12,17.86"/>
		<path class="st3" d="M123.88,140.94c-0.17,5.31-0.3,9.2-0.47,14.51"/>
		<path class="st3" d="M121.73,135.14c-0.35,6.2-0.7,14.9-1.05,21.1"/>
		<path class="st3" d="M107.31,137.41c4.14,6.21,9.67,13.45,13.82,19.65"/>
		<path class="st3" d="M111.33,143.2c-0.41,5.5-0.53,11.03-0.35,16.54"/>
		<path class="st3" d="M107.31,137.41c0.14,7.83,0.04,15.67-0.29,23.5"/>
		<path class="st3" d="M97.97,143.49c4.56,6.6,7.32,10.74,11.88,17.34c-0.15-0.15-0.29-0.3-0.44-0.46"/>
		<path class="st3" d="M93.11,139.76c3.8,7.35,8.88,15.4,13.62,22.14"/>
		<path class="st3" d="M97.6,144.96c-0.15,7.6-0.45,13.9-0.6,21.5"/>
		<path class="st3" d="M83.2,146.31c4.65,7.05,9.15,13.1,13.8,20.15"/>
		<path class="st3" d="M92.2,139.51c-0.4,9.34-0.8,20.59-1.2,29.92"/>
		<path class="st3" d="M75.16,143.33c4.48,8.65,10.15,17.71,15.57,25.76"/>
		<path class="st3" d="M83.2,146.89c-0.39,8.09-0.59,17.08-0.98,25.18"/>
		<path class="st3" d="M67.06,150.65c4.68,7.09,9.47,14.79,14.15,21.88"/>
		<path class="st3" d="M75.16,143.33c-0.92,8.62-1.41,19.03-1.46,27.69"/>
		<path class="st3" d="M56.78,146.89c3.97,7.14,8.74,16.34,12.71,23.48"/>
		<path class="st3" d="M67.06,150.65c-0.61,5.67-0.68,14.01-0.81,19.71"/>
		<path class="st9" d="M56.78,146.89c-0.54,6.74-0.44,14.53-0.98,21.28"/>
		<path class="st3" d="M55.9,164.75c0.84,0.93,2.2,3.19,2.76,4.33"/>
		<path class="st10" d="M110.75,160.91c0.31,3.34,0.06,10.39-0.35,13.71"/>
		<path class="st10" d="M106.73,161.9c0.11,2.68,0.13,9.16-0.15,11.83"/>
		<path class="st10" d="M97.3,166.46c0,1.24,0,5.41,0,6.66"/>
		<path class="st10" d="M120.68,156.24c0.26,4.77,0.22,15.38-0.33,20.13"/>
		<path class="st10" d="M123.41,155.45c0,5.59-0.07,14.02-0.06,19.61"/>
		<path class="st10" d="M134.39,153.2c0.33,6.61,0.04,16.55-0.11,23.17"/>
		<path class="st10" d="M144.9,150.71c0.09,7.9,0.2,18.81,0.29,26.71"/>
		<path class="st10" d="M154.54,151.77c0.39,7.86,0.17,17.64,0.55,25.5c-0.03-0.16,0.03,1.57,0,1.41"/>
		<path class="st9" d="M156.13,151.43c0.09,7.79,0.34,20.68,0.43,28.47"/>
		<path class="st10" d="M163.38,152.08c-0.11,8.6-0.22,18-0.33,26.6"/>
		<path class="st10" d="M165.95,152.08c0.26,8.41,0.13,18.72,0.38,27.13"/>
		<path class="st10" d="M172.13,152.23c0.39,9.13,0.04,19.22,0.44,28.35"/>
		<path class="st10" d="M174.76,152.95c0.43,8.78,0.86,18.82,1.29,27.6"/>
		<path class="st10" d="M180.1,153.41c0.43,5.58-0.21,12.46,0.22,18.05c0.19,2.44,0.38,4.87,0.36,7.32
			c-0.01,1.08-0.06,2.17-0.15,3.24"/>
		<path class="st10" d="M183.57,153.84c0.33,9,0.44,19.01,0.77,28.01"/>
		<path class="st10" d="M186.52,154.4c-0.18,9,0.15,19.01,0.88,27.98"/>
		<path class="st10" d="M192.09,155.53c0.8,8.76,0.14,18.13-0.06,26.92"/>
		<path class="st10" d="M193.59,156.15c0.41,8.61,0.82,18.18,1.22,26.79"/>
		<path class="st10" d="M198.96,157.58c0.27,8.32,0.5,17.47,0.77,25.8"/>
		<path class="st10" d="M200.39,158.22c0.12,8.63,0.39,17.26,0.82,25.88"/>
		<path class="st10" d="M206.26,160.33c0.15,7.77,0.38,17.13,0.72,24.89"/>
		<path class="st10" d="M212.61,163.75c0.12,7.25,0.33,14.96,0.58,22.2"/>
		<path class="st10" d="M218.64,167.46c0.26,6.12,0.33,13.39,0.59,19.52"/>
		<path class="st10" d="M223.57,171.03c0.19,4.82,0.27,11.3,0.67,16.11"/>
		<path class="st10" d="M224.97,172.16c0.55,4.7,0.72,10.16,0.51,14.9"/>
		<path class="st10" d="M229.3,175.85c0.4,3.71,0.04,8.17,0.16,11.91"/>
		<path class="st10" d="M230.9,177.4c0,3.13,0.19,7.02,0.56,10.13"/>
		<path class="st10" d="M234.09,180.72c0.14,2.31,0.07,5.05,0.22,7.36"/>
		<path class="st10" d="M236.56,182.96c0.12,1.27,0.01,3.56,0.13,4.83"/>
		<path class="st11" d="M54.12,167.46c-0.08,4.67-0.17,9.35,0.15,13.59c12.62,0.85,25.25,1.7,38.3,2.17
			c14.74,0.79,29.48,1.57,44.21,2.36c0,0,0.37,0.1,0.25-0.07c13.54,0.92,27.09,1.84,40.66,2.72c12.33,1.06,24.65,2.26,36.95,3.59
			c0,0,30.89,3.65,31.49,3.77c4.05-1.35,8.34-1.91,12.88-1.34c3.47,0.31,6.94,0.63,10.41,0.94c2.26,0.2,4.52,0.41,6.7-0.02
			c0.05-0.56,0.09-1.12-0.15-1.51c-9.19-1.45-18.4-2.84-27.61-4.17c-8.94-1.29-17.88-2.52-26.83-3.76
			c-6.25-0.86-12.5-1.72-19.03-2.57c-5.53-1.06-11.15-1.61-16.75-2.15c-6.78-0.66-13.55-1.32-20.33-2.07
			c-22.06-1.62-44.08-3.7-66.2-6.36c-15.06-1.18-30.09-2.76-45.07-4.73"/>
		<path class="st12" d="M106.89,183.35c-3.15,1.44-6.48,2.45-9.88,3.02c-1.18,0.21-2.26,0.16-3.33,0.1
			c0.18-1.16,0.21-2.35,0.13-3.33c4.31,0.05,8.62,0.09,12.94,0.14"/>
		<path class="st13" d="M163.55,186.79c-1.69,0.35-3.37,0.71-5.06,1.06c-2.56,0.54-5.11,1.07-7.67,1.61
			c-0.14-1.2-0.29-2.4-0.21-3.65c1.61,0.19,3.23,0.32,4.84,0.44c0.58,0.04,1.16,0.09,1.73,0.13c1.26,0.1,2.53,0.19,3.79,0.29
			c0.74,0.06,1.48,0.11,2.22,0.17"/>
		<path class="st14" d="M274.86,181.2c0.04,0.31,0.07,0.63,0.15,0.9c0.14,0.04,0.29,0.07,0.38,0.27c0.08,1.66,0.27,3.31,0.5,5.02
			c0.2,0.04,0.4,0.07,0.59,0.19c0.98,8.48,1.96,16.96,2.89,25.33c1.53-0.36,3.1-0.54,4.56-0.54c-1.15-8.26-2.41-16.51-3.83-24.63
			c-0.14,0-0.29,0-0.34-0.07c-0.12-1.14-0.24-2.28-0.4-3.35c-0.17,0.03-0.33,0.06-0.52,0.16c-0.05-0.58-0.1-1.17-0.2-1.69
			c-0.29,0.1-0.67,0.18-0.86-0.07c-0.06-0.08-0.09-0.18-0.1-0.28c-0.05-0.3-0.01-0.61,0.06-0.83c-1-0.14-2.01-0.28-3.01-0.42"/>
		<path class="st15" d="M265.36,173.92"/>
		<path class="st16" d="M52.74,188.21c17.19-9.33,37.12-19.36,55.19-26.71c18.07-7.35,37.06-12.67,56.84-12.59
			c21.74-2.76,44.1,3.33,62.82,15.12c18.72,11.79,33.91,29.05,45.3,48.46"/>
		<path class="st17" d="M54.23,147.76c35.1-7.64,71.59-15.57,107.21-14.13c27.24,1.45,52.38,10.87,76.13,26.08
			c1.4,1.45,2.79,2.9,4.89,3.62c0.7,0.72,1.4,1.45,2.1,2.17c0.7,0.72,2.1,0.72,2.79,1.45c8.38,7.24,15.37,13.76,23.05,21.73
			c0.7,0.72,0.7,2.9,0.08,4.42"/>
		<path class="st16" d="M54.23,152.83c18.73-4.49,38.76-8.33,58.32-11.23c37.02-4.35,76.13-2.17,108.21,18.37"/>
		<path class="st18" d="M167.31,160.78"/>
	</g>
	<rect x="19" y="18" class="st19" width="322.5" height="31.5"/>
	<rect x="23.46" y="310.44" class="st19" width="318.04" height="31.5"/>
	<rect x="-126" y="162" transform="matrix(6.123234e-17 -1 1 6.123234e-17 -144 216)" class="st19" width="324" height="36"/>
	<rect x="162" y="162" transform="matrix(6.123234e-17 -1 1 6.123234e-17 144 504)" class="st19" width="324" height="36"/>
</g>
</svg>
