<?xml version="1.0" encoding="utf-8"?>
<!-- Generator: Adobe Illustrator 27.9.2, SVG Export Plug-In . SVG Version: 6.00 Build 0)  -->
<svg version="1.1" xmlns="http://www.w3.org/2000/svg" xmlns:xlink="http://www.w3.org/1999/xlink" x="0px" y="0px"
	 viewBox="0 0 360 360.31" style="enable-background:new 0 0 360 360.31;" xml:space="preserve">
<style type="text/css">
	.st0{display:none;}
	.st1{display:inline;fill:#58748A;}
	.st2{fill:#0D2233;stroke:#231F20;stroke-miterlimit:10;}
	.st3{fill:#FFFFFF;}
	.st4{fill:#4E5E31;}
	.st5{fill:#53683E;}
	.st6{fill:none;stroke:#A5A28B;stroke-miterlimit:10;}
	.st7{fill:#4B5D46;}
	.st8{fill:#A5A28B;}
	.st9{fill:#9F9C87;}
	.st10{fill:#473A32;}
	.st11{fill:#79563B;}
	.st12{fill:#383E14;}
	.st13{fill:#485F38;}
	.st14{fill:#414B17;}
	.st15{fill:#32381D;}
	.st16{fill:#414E2C;}
	.st17{fill:#1F2E15;}
	.st18{fill:none;stroke:#2E1810;stroke-miterlimit:10;}
	.st19{fill:#27321C;}
	.st20{fill:none;stroke:#775A45;stroke-miterlimit:10;}
	.st21{fill:#212A14;}
	.st22{fill:#502720;}
	.st23{fill:#6D432F;}
	.st24{fill:#404A31;}
	.st25{fill:#1C2710;}
	.st26{fill:#73875A;}
	.st27{fill:#5F704B;}
	.st28{fill:#1D220B;}
	.st29{fill:#1A260E;}
	.st30{fill:#36371A;}
	.st31{fill:#A5B176;}
	.st32{fill:#738459;}
	.st33{fill:#161D0A;}
	.st34{fill:#3E4F24;}
	.st35{fill:none;stroke:#C5B37A;stroke-miterlimit:10;}
	.st36{fill:#445618;}
	.st37{fill:#354226;}
	.st38{fill:#314016;}
	.st39{fill:#7F9561;}
	.st40{fill:#526B48;}
	.st41{fill:#727D5D;}
	.st42{fill:#384530;}
	.st43{fill:none;stroke:#1F2411;stroke-miterlimit:10;}
	.st44{fill:#5F6A3D;}
	.st45{fill:#50643F;}
	.st46{fill:#869B6B;}
	.st47{fill:#676251;}
	.st48{fill:#726E5D;}
	.st49{fill:#4C5A39;}
	.st50{fill:#4D5D43;}
	.st51{fill:#444830;}
	.st52{fill:#433023;}
	.st53{fill:#303C11;}
	.st54{fill:none;stroke:#986352;stroke-miterlimit:10;}
	.st55{fill:#586648;}
	.st56{fill:none;stroke:#BEBA7C;stroke-miterlimit:10;}
	.st57{fill:none;stroke:#765336;stroke-miterlimit:10;}
	.st58{fill:#414E26;}
	.st59{fill:#899D62;}
	.st60{fill:#4B5A3E;}
	.st61{fill:#1E2A0D;}
	.st62{fill:#27210F;}
	.st63{fill:#928862;}
	.st64{fill:#827F58;}
	.st65{fill:none;stroke:#745048;stroke-miterlimit:10;}
	.st66{fill:#8C876A;}
	.st67{fill:#3A4C21;}
	.st68{fill:#5A724C;}
	.st69{fill:none;stroke:#744F48;stroke-miterlimit:10;}
	.st70{fill:#55523F;}
	.st71{fill:#6A654D;}
	.st72{fill:none;stroke:#5C2119;stroke-miterlimit:10;}
	.st73{fill:#5C2119;}
	.st74{fill:#473C22;}
	.st75{fill:none;stroke:#928862;stroke-miterlimit:10;}
	.st76{fill:#0D150A;}
	.st77{fill:#636843;}
	.st78{fill:#677152;}
	.st79{fill:#5C6D50;}
	.st80{fill:#3D403D;}
	.st81{fill:#352D24;}
	.st82{fill:#39322B;}
	.st83{fill:none;stroke:#FFFFFF;stroke-miterlimit:10;}
	.st84{fill:none;stroke:#34402A;stroke-miterlimit:10;}
	.st85{fill:#445744;}
	.st86{fill:none;stroke:#573027;stroke-miterlimit:10;}
	.st87{fill:none;stroke:#445744;stroke-miterlimit:10;}
	.st88{fill:#2A341A;}
	.st89{fill:#3B4320;}
	.st90{fill:#404520;}
	.st91{fill:#6A7D49;}
	.st92{fill:#3A4728;}
	.st93{fill:#313624;}
	.st94{fill:#707C65;}
	.st95{fill:#586646;}
	.st96{fill:#929280;}
	.st97{fill:#4F5B37;}
	.st98{fill:#526A34;}
	.st99{fill:#6F8365;}
	.st100{fill:#707A5F;}
	.st101{fill:#404A32;}
	.st102{fill:#5B4F30;}
	.st103{fill:#4A5028;}
	.st104{fill:#575B39;}
	.st105{fill:#605C45;}
	.st106{fill:#4E4B3D;}
	.st107{fill:#474B32;}
	.st108{fill:#596452;}
	.st109{fill:#2B2C1A;}
	.st110{fill:#849171;}
	.st111{fill:#544C2E;}
	.st112{fill:#614631;}
	.st113{fill:#74543B;}
	.st114{fill:#5E5F4F;}
	.st115{fill:#716A5C;}
	.st116{fill:#4A5C47;}
	.st117{fill:#7A6E5F;}
	.st118{fill:#6B7C5E;}
	.st119{fill:#311E10;}
	.st120{fill:#695B4D;}
	.st121{fill:none;stroke:#6F3D29;stroke-miterlimit:10;}
	.st122{fill:#56431E;}
	.st123{fill:#7F6043;}
	.st124{fill:#592D14;}
	.st125{fill:none;stroke:#BFA882;stroke-miterlimit:10;}
	.st126{fill:#444C32;}
	.st127{fill:#625841;}
	.st128{fill:none;stroke:#79412C;stroke-miterlimit:10;}
	.st129{fill:#717C5A;}
	.st130{fill:#97705B;}
	.st131{fill:none;stroke:#77422F;stroke-miterlimit:10;}
	.st132{fill:#5E4A3B;}
	.st133{fill:#4A512E;}
	.st134{fill:none;stroke:#2D291D;stroke-miterlimit:10;}
	.st135{fill:#3D352F;}
	.st136{fill:none;stroke:#8C7E6A;stroke-miterlimit:10;}
	.st137{fill:#2A2F19;}
	.st138{fill:none;stroke:#322116;stroke-miterlimit:10;}
	.st139{fill:#544339;}
	.st140{fill:#73635A;}
	.st141{fill:#5E4C45;}
	.st142{fill:#715C51;}
	.st143{fill:#8B9782;}
	.st144{fill:#6F7D68;}
	.st145{fill:#605830;}
	.st146{fill:#303625;}
	.st147{fill:#404B2F;}
	.st148{fill:#292D19;}
	.st149{fill:#78795B;}
	.st150{fill:none;stroke:#AFA882;stroke-miterlimit:10;stroke-dasharray:0,0,0,0,0,0;}
	.st151{fill:#3D4034;}
	.st152{fill:#83663E;}
	.st153{fill:#40331B;}
	.st154{fill:#293A10;}
	.st155{fill:#4D5C46;}
	.st156{fill:#536747;}
	.st157{fill:none;stroke:#67443F;stroke-miterlimit:10;}
	.st158{fill:none;stroke:#867651;stroke-miterlimit:10;stroke-dasharray:0,0,0,0,0,0;}
	.st159{fill:#616B35;}
	.st160{fill:#6A8156;}
	.st161{fill:#717D53;}
	.st162{fill:#262B13;}
	.st163{fill:#374419;}
	.st164{fill:#5E6E48;}
	.st165{fill:#4F6546;}
	.st166{fill:#BEBA7C;}
	.st167{fill:#8FA38A;}
	.st168{fill:#5E735D;}
	.st169{fill:none;stroke:#8F8C64;stroke-miterlimit:10;}
	.st170{fill:none;stroke:#552F26;stroke-miterlimit:10;}
	.st171{fill:#5F6835;}
	.st172{fill:#768972;}
	.st173{fill:#7E9280;}
	.st174{fill:#8F9E88;}
	.st175{fill:#343F2F;}
	.st176{fill:#6C7B53;}
	.st177{fill:#667450;}
	.st178{fill:#5A6C42;}
	.st179{fill:#879987;}
	.st180{fill:#425223;}
	.st181{fill:#374331;}
	.st182{fill:#3A4336;}
	.st183{fill:#5D6150;}
	.st184{fill:#3F4431;}
	.st185{fill:#394733;}
	.st186{fill:#B0AFA5;}
	.st187{fill:#455533;}
	.st188{fill:#555648;}
	.st189{fill:#66745B;}
	.st190{fill:#4C5B39;}
	.st191{fill:#4A5632;}
	.st192{fill:#75796A;}
	.st193{fill:#525440;}
	.st194{fill:#9FA39C;}
	.st195{fill:#869080;}
	.st196{fill:#70756A;}
	.st197{fill:#7A8472;}
	.st198{fill:#414C3E;}
	.st199{fill:#53565A;}
	.st200{fill:#777C66;}
	.st201{fill:#586645;}
	.st202{fill:#717E58;}
</style>
<g id="Layer_2" class="st0">
	<path class="st1" d="M60.14,430.12C43.89,428,27.39,425.87,11,427.24s-32.93,6.71-42.75,16.94c-12.43,12.96-11.73,30.55-10.5,46.66
		c3.66,47.6,7.32,95.2,10.98,142.81c0.96,12.48,1.98,25.18,7.67,36.89c6.69,13.74,19.61,25.37,35.1,33.88
		c42.03,23.09,97.54,22.63,149.04,24.9c48.04,2.11,96.54,7.36,143.97,1.12s95.15-26.7,113.23-61.14
		c5.85-11.14,8.32-23.14,10.75-35.02c13.48-65.9,26.7-134.72,0.13-198.21c-2.9-6.92-6.49-14-13.47-18.89
		c-9.01-6.3-21.96-7.79-34.1-8.1c-27.28-0.69-54.36,3.1-81.34,6.27c-85.19,10.03-171.57,14.03-257.7,11.94"/>
</g>
<g id="Layer_1">
	<rect x="18.64" y="16.5" class="st2" width="325.54" height="325.54"/>
	<path class="st3" d="M216.94-38.7"/>
	<g>
		<path class="st4" d="M291.62,101.24c0.28,0.59,0.38,1.26,0.28,1.9c-0.3,0.35-0.85,0.27-1.29,0.13c-0.44-0.14-0.93-0.31-1.33-0.09
			c-0.41,0.23-0.53,0.8-0.38,1.25c0.15,0.45,0.49,0.8,0.82,1.14c1.39,1.41,2.78,2.82,4.18,4.23c0.76-1.7,1.51-3.4,2.27-5.1
			c0.31-0.69,0.62-1.4,0.62-2.15c0.01-0.75-0.38-1.56-1.09-1.81c-0.51-0.18-1.07-0.05-1.57,0.16c-0.5,0.21-0.96,0.49-1.48,0.62
			c-0.52,0.13-1.13,0.09-1.51-0.28s-0.38-1.13,0.1-1.37"/>
		<path class="st5" d="M261.88,125.47c-1.11-1-1.12-2.83-0.37-4.12c0.75-1.29,2.08-2.13,3.42-2.78c0.63-0.3,1.29-0.58,1.99-0.55
			c0.69,0.03,1.42,0.45,1.59,1.12c0.59,0.65,0.6,1.69,0.22,2.48c-0.38,0.8-1.06,1.4-1.76,1.93c-1.03,0.79-2.22,1.5-3.52,1.53
			c-0.35,0.01-0.76-0.01-1,0.25c-0.21,0.24-0.17,0.64,0.02,0.9c0.19,0.26,0.48,0.43,0.76,0.59"/>
		<path class="st6" d="M307.99,122.51"/>
		<path class="st7" d="M266.14,109.61c-2.19,1.76-4.37,3.53-6.56,5.29c-1.57,1.27-3.16,2.56-4.35,4.19
			c-2.2,3.01-2.82,6.85-3.36,10.54c4.04-3.08,8.08-6.16,12.12-9.24c1.01-0.77,2.08-1.62,2.44-2.84c0.41-1.36-0.16-2.79-0.54-4.15
			c-0.38-1.37-0.48-3.04,0.57-3.99"/>
		<g>
			<path class="st8" d="M165.79,89.77c0-0.12,0-0.23,0.01-0.35c0.06,0.1,0.12,0.21,0.19,0.31c-0.07-1.46-0.33-2.83-1.01-4.14
				c-0.01,0.43,0.01,0.86,0.06,1.29c0,0.05-0.01,0.11-0.01,0.16c-0.06-0.32-0.15-0.63-0.25-0.94c0.09-0.54,0.14-1.09,0.08-1.65
				c-0.09,0.29-0.18,0.59-0.25,0.89c0-0.01,0-0.01,0-0.02c-0.28-1.34-0.38-1.21-0.43-0.65c-0.16-0.3-0.35-0.58-0.55-0.86
				c-0.03-0.16-0.06-0.32-0.12-0.48c-0.01,0.07-0.02,0.14-0.03,0.21c-0.02-0.04-0.03-0.08-0.05-0.12c-0.01-0.11-0.02-0.23-0.05-0.34
				c-0.01,0.06-0.01,0.13-0.02,0.19c-0.09-0.21-0.19-0.42-0.31-0.62c0,0.07,0,0.14-0.01,0.2c-0.14-0.43-0.34-0.85-0.6-1.23
				c0.01,0.29,0.03,0.58,0.06,0.88c0,0,0,0-0.01-0.01c-0.08-0.78-0.23-1.54-0.61-2.24c0,0.11-0.01,0.23-0.01,0.34
				c0,0.28,0,0.57,0.01,0.86c-0.24-0.61-0.58-1.18-1.05-1.65c0.05,0.49,0.13,0.98,0.27,1.45c-0.08-0.09-0.16-0.18-0.26-0.27
				c0.01,0.1,0.04,0.19,0.05,0.29c-0.19-0.11-0.38-0.21-0.58-0.3c-0.13-0.26-0.28-0.5-0.45-0.74c-0.04-0.08-0.07-0.17-0.12-0.25
				c0.01,0.04,0.02,0.08,0.03,0.13c-0.05-0.07-0.09-0.14-0.15-0.2c0,0.02,0.01,0.05,0.01,0.07c-0.28-0.39-0.61-0.76-1.02-1.04
				c0.06,0.25,0.15,0.5,0.25,0.74c-0.01-0.01-0.01-0.01-0.02-0.02c0.06,0.26,0.13,0.53,0.22,0.79c-0.05-0.02-0.1-0.04-0.15-0.05
				c-0.09-0.03-0.18-0.04-0.27-0.06c-0.36-0.39-0.73-0.77-1.12-1.13c-0.17-0.26-0.35-0.5-0.56-0.73c0.02,0.1,0.05,0.19,0.07,0.29
				c-0.07-0.06-0.13-0.12-0.2-0.18c0.08,0.14,0.17,0.27,0.26,0.4c0.06,0.21,0.13,0.43,0.2,0.64c-0.02-0.01-0.04-0.03-0.06-0.04
				c-0.36-0.33-0.74-0.64-1.15-0.92c0.26,0.46,0.55,0.89,0.86,1.31c-0.13-0.13-0.25-0.26-0.38-0.39c0.09,0.18,0.2,0.35,0.3,0.52
				c-0.27-0.01-0.53,0-0.8,0.02c-0.03-0.03-0.07-0.05-0.1-0.07c-0.2-0.31-0.43-0.6-0.7-0.85c0.04,0.15,0.09,0.29,0.14,0.43
				c-0.24-0.18-0.49-0.34-0.75-0.51c-0.03-0.03-0.06-0.06-0.1-0.09c0,0.01,0.01,0.03,0.02,0.04c-0.21-0.13-0.43-0.26-0.65-0.37
				c0.28,0.38,0.61,0.73,0.94,1.06c0.08,0.16,0.17,0.33,0.27,0.48c-0.03,0.01-0.06,0.01-0.08,0.02c-0.58-0.66-1.22-1.28-1.93-1.82
				c0.37,0.7,0.83,1.34,1.35,1.93c-0.03,0.01-0.06,0.02-0.09,0.02c-0.67-0.53-1.4-0.97-2.19-1.32c0.48,0.55,1.03,1.04,1.61,1.47
				c-0.12,0.04-0.23,0.09-0.34,0.13c-0.24-0.16-0.49-0.32-0.74-0.46c0.16,0.19,0.33,0.37,0.5,0.55c-0.07,0.03-0.13,0.06-0.2,0.09
				c-0.69-0.59-1.45-1.09-2.27-1.47c0.43,0.68,0.96,1.29,1.57,1.8c-0.12,0.06-0.23,0.12-0.34,0.19c-0.52-0.5-1.07-0.97-1.67-1.38
				c0.36,0.58,0.76,1.14,1.22,1.64c-0.03,0.02-0.06,0.04-0.08,0.06c-0.1-0.07-0.21-0.13-0.32-0.2c-0.36-0.3-0.74-0.57-1.16-0.79
				c0.1,0.12,0.21,0.23,0.32,0.35c-0.41-0.18-0.84-0.33-1.28-0.45c0.26,0.39,0.56,0.73,0.89,1.04c-0.36-0.18-0.73-0.34-1.11-0.49
				c0.46,0.53,1,0.97,1.56,1.37c-0.12,0.1-0.24,0.21-0.35,0.32c-0.95-0.78-1.93-1.51-2.99-2.13c0.27,0.41,0.58,0.79,0.9,1.15
				c-0.5-0.35-1.02-0.68-1.57-0.97c0.27,0.41,0.58,0.79,0.91,1.14c-0.26-0.14-0.53-0.28-0.79-0.42c0.31,0.51,0.69,0.95,1.12,1.33
				c-0.5-0.24-1.03-0.43-1.57-0.58c0.35,0.5,0.78,0.9,1.26,1.22c-0.42-0.21-0.85-0.4-1.29-0.58c0.33,0.4,0.71,0.73,1.13,1.01
				c-0.06-0.01-0.13-0.03-0.19-0.05c0.5,0.38,1.04,0.67,1.61,0.9c-0.04,0.07-0.07,0.14-0.1,0.21c-0.19-0.07-0.38-0.13-0.58-0.2
				c-0.78-0.31-1.58-0.6-2.4-0.77c0.82,0.67,1.79,1.11,2.81,1.32c-0.04,0.09-0.08,0.18-0.12,0.27c-0.63-0.35-1.31-0.6-2.01-0.78
				c0.26,0.28,0.57,0.51,0.88,0.71c-0.1-0.02-0.2-0.04-0.3-0.05c0.25,0.16,0.51,0.28,0.78,0.39c-0.79-0.2-1.6-0.32-2.4-0.41
				c0.39,0.31,0.82,0.52,1.26,0.68c-0.48-0.08-0.96-0.15-1.45-0.19c0.65,0.43,1.36,0.71,2.11,0.86c-0.4,0.01-0.8,0.05-1.19,0.11
				c0.35,0.1,0.7,0.13,1.05,0.13c-0.8,0.25-1.57,0.61-2.32,0.97c0.98-0.16,1.9-0.51,2.79-0.93c-0.03,0.03-0.07,0.05-0.1,0.08
				c-0.21,0.17-0.35,0.4-0.51,0.61c-1.01,0.35-2.01,0.73-3.05,0.98c0.65,0.1,1.28,0.05,1.9-0.1c-0.58,0.18-1.16,0.35-1.74,0.5
				c1.04,0.16,2.08-0.09,3.07-0.51c-0.06,0.05-0.12,0.11-0.19,0.17c-1.24,0.4-2.41,1.09-3.58,1.6c0.92-0.1,1.77-0.39,2.6-0.74
				c-0.2,0.18-0.41,0.36-0.61,0.54c0.3-0.21,0.58-0.43,0.87-0.65c0.14-0.06,0.28-0.12,0.41-0.18c-0.61,0.48-1.22,0.97-1.82,1.47
				c-0.34,0.17-0.67,0.35-1.02,0.51c0.58-0.15,1.12-0.37,1.65-0.64c-0.4,0.34-0.79,0.69-1.16,1.04c0.78-0.54,1.55-1.11,2.3-1.7
				c0.23-0.15,0.47-0.31,0.69-0.48c-0.44,0.48-0.87,0.97-1.3,1.46c-0.04,0.04-0.09,0.09-0.13,0.13c0.02-0.02,0.05-0.04,0.07-0.06
				c-0.09,0.1-0.18,0.21-0.27,0.31c-0.12,0.09-0.25,0.18-0.37,0.27c-0.66,0.34-1.34,0.67-2.05,0.92c0.63-0.06,1.22-0.24,1.79-0.5
				c-0.02,0.01-0.03,0.02-0.04,0.04c0.02-0.02,0.04-0.03,0.07-0.05c0.01,0,0.02-0.01,0.03-0.01c-0.05,0.06-0.11,0.13-0.16,0.19
				c0.07-0.07,0.14-0.14,0.22-0.21c0.86-0.41,1.66-0.97,2.44-1.53c0,0,0,0,0,0c-0.62,0.51-1.25,1-1.89,1.49
				c-1.41,0.64-2.85,1.23-4.37,1.5c0.84,0.18,1.65,0.09,2.44-0.14c-0.13,0.09-0.27,0.18-0.4,0.27c0.21-0.1,0.41-0.22,0.61-0.32
				c0.01,0,0.03-0.01,0.04-0.01c-0.09,0.07-0.18,0.14-0.27,0.21c0.14-0.08,0.28-0.18,0.42-0.26c0.49-0.18,0.96-0.41,1.42-0.67
				c-0.46,0.4-0.95,0.82-1.5,1.29c0.79-0.52,1.54-1.1,2.25-1.73c0.25-0.16,0.49-0.32,0.74-0.48c-0.44,0.39-0.89,0.78-1.4,1.22
				c0.68-0.45,1.32-0.97,1.9-1.55c0.04-0.03,0.08-0.05,0.12-0.08c0.01,0.04,0.02,0.09,0.03,0.13c-1.21,0.93-2.36,1.95-3.66,2.76
				c1.43-0.55,2.57-1.63,3.67-2.69c0.01,0.07,0.03,0.14,0.04,0.21c-0.49,0.44-1.01,0.88-1.49,1.35c-0.07,0.07-0.14,0.14-0.21,0.21
				c-1.44,0.93-2.95,1.75-4.57,2.28c1.04,0.05,2-0.22,2.9-0.68c0.03-0.01,0.05-0.03,0.08-0.04c1.26-0.66,2.39-1.67,3.42-2.64l0,0
				c-1.47,1.39-2.95,2.95-4.67,4.08c1.24-0.61,2.29-1.51,3.27-2.5c0.21-0.16,0.43-0.32,0.64-0.48c-0.41,0.38-0.83,0.76-1.3,1.2
				c0.65-0.48,1.24-1.03,1.8-1.6c0.13-0.11,0.26-0.21,0.38-0.32c0.01,0.02,0.01,0.03,0.02,0.05c-0.59,0.55-1.17,1.12-1.75,1.68
				c-0.23,0.17-0.47,0.33-0.7,0.51c0.13-0.07,0.26-0.14,0.4-0.21c-0.21,0.21-0.43,0.42-0.64,0.63c-1.17,0.7-2.41,1.29-3.66,1.79
				c0.89,0.01,1.73-0.27,2.52-0.67c-0.01,0.01-0.02,0.02-0.03,0.03c0.02-0.01,0.03-0.03,0.05-0.04c0.33-0.17,0.65-0.36,0.96-0.55
				c-0.07,0.07-0.14,0.14-0.21,0.22c0.11-0.1,0.22-0.2,0.33-0.29c0.07-0.04,0.14-0.08,0.21-0.13c0.41-0.19,0.82-0.39,1.21-0.63
				c-0.56,0.34-1.12,0.68-1.72,1.06c0.2-0.07,0.4-0.15,0.6-0.23c-0.72,0.53-1.44,1.07-2.13,1.65c0.81-0.51,1.61-1.05,2.41-1.61
				c-0.22,0.22-0.44,0.44-0.66,0.67c0.42-0.34,0.83-0.69,1.23-1.06c0.04-0.03,0.08-0.05,0.11-0.08c0.05-0.03,0.11-0.06,0.16-0.09
				c-0.01,0.02-0.03,0.03-0.04,0.05c0.02-0.02,0.03-0.04,0.05-0.06c0.64-0.34,1.25-0.72,1.84-1.14c0,0.01,0.01,0.02,0.01,0.03
				c-1.53,1.2-2.89,2.17-4.59,3.46c0.38-0.21,0.75-0.43,1.11-0.66c0.31-0.16,0.61-0.34,0.9-0.52c-0.48,0.34-0.97,0.69-1.47,1.05
				c-0.52,0.33-1.04,0.66-1.56,0.98c1.11-0.39,2.15-0.93,3.13-1.56c-0.56,0.55-1.13,1.09-1.73,1.58c0.9-0.59,1.72-1.32,2.49-2.09
				c0.68-0.49,1.34-1.01,1.98-1.56c0.01,0.04,0.03,0.07,0.04,0.11c-0.12,0.1-0.24,0.22-0.35,0.33c-0.86,0.63-1.69,1.31-2.45,2.06
				c0.63-0.5,1.22-0.98,1.8-1.45c-0.34,0.34-0.68,0.68-1.01,1.02c-0.4,0.32-0.81,0.63-1.25,0.89c0.29-0.13,0.57-0.28,0.83-0.45
				c-0.17,0.19-0.35,0.37-0.51,0.54c-0.54,0.31-1.08,0.61-1.63,0.89c0.37-0.06,0.72-0.16,1.06-0.28c-0.27,0.29-0.5,0.55-0.67,0.73
				c0.36-0.27,0.69-0.56,1.02-0.86c0.06-0.02,0.12-0.04,0.18-0.07c-0.37,0.35-0.75,0.7-1.15,1.02c0.54-0.38,1.07-0.79,1.58-1.22
				c0.49-0.24,0.95-0.54,1.4-0.86c-0.1,0.11-0.2,0.23-0.3,0.34c-0.63,0.38-1.26,0.78-1.88,1.18c0.4-0.13,0.79-0.28,1.17-0.45
				c-0.15,0.14-0.31,0.28-0.45,0.43c0,0,0-0.01-0.01,0c-0.09,0.06-0.19,0.1-0.3,0.13c-0.21,0.1-0.85,0.51-0.25,0.22
				c0.11,0,0.21-0.02,0.3-0.05c-0.14,0.13-0.28,0.25-0.42,0.36c0.53-0.23,0.93-0.65,1.34-1.05c0.12-0.1,0.24-0.2,0.37-0.3
				c0.02-0.01,0.05-0.02,0.07-0.04c-0.5,0.52-0.98,0.91-1.88,1.56c0.27-0.12,0.53-0.26,0.77-0.41c-0.22,0.2-0.44,0.41-0.67,0.61
				c0.43-0.31,0.84-0.65,1.24-1c0.44-0.34,0.85-0.72,1.24-1.13c0.3-0.17,0.61-0.35,0.9-0.54c-0.23,0.24-0.46,0.49-0.69,0.73
				c-0.82,0.71-1.66,1.46-2.55,2.29c0.3-0.21,0.59-0.44,0.88-0.66c-0.03,0.02-0.05,0.05-0.08,0.08c-0.14,0.11-0.29,0.22-0.44,0.33
				c-0.27,0.18-0.53,0.38-0.8,0.58c-0.22,0.15-0.45,0.31-0.68,0.46c0.04-0.02,0.08-0.04,0.12-0.05c-0.03,0.02-0.05,0.04-0.08,0.06
				c0.1-0.05,0.21-0.11,0.31-0.16c0.06-0.03,0.12-0.05,0.18-0.08c-0.47,0.35-0.96,0.67-1.48,0.96c0.72-0.13,1.36-0.46,1.95-0.89
				c0.15-0.05,0.3-0.12,0.45-0.18c-0.16,0.14-0.32,0.27-0.46,0.38c0.22-0.14,0.43-0.3,0.65-0.46c0.27-0.13,0.54-0.26,0.8-0.41
				c-0.41,0.4-0.85,0.79-1.29,1.16c-0.69,0.29-1.38,0.57-2.08,0.83c0.39,0.01,0.77-0.04,1.15-0.11c-0.41,0.3-0.84,0.59-1.28,0.85
				c0.64-0.27,1.24-0.59,1.81-0.96c0.36-0.09,0.72-0.22,1.07-0.36c-0.18,0.13-0.37,0.27-0.57,0.42c-0.14,0.1-0.29,0.2-0.43,0.29
				c0.13-0.05,0.27-0.1,0.4-0.16c0.06-0.02,0.11-0.05,0.16-0.08c-0.22,0.22-0.44,0.45-0.66,0.67c0.33-0.26,0.65-0.54,0.97-0.83
				c0.07-0.04,0.14-0.07,0.21-0.1c-1.07,1.01-2.12,2.04-3.13,3.09c1.19-0.95,2.35-1.94,3.48-2.96c0.24-0.18,0.46-0.38,0.68-0.57
				c-0.7,0.62-1.39,1.26-2.1,1.96c1.12-0.89,2.19-1.86,3.23-2.85c0.01-0.01,0.02-0.01,0.03-0.02c-1.27,1.26-2.6,2.46-3.87,3.72
				c1.39-1.08,2.75-2.22,3.96-3.5c-0.11,0.16-0.21,0.32-0.29,0.5c-0.01,0.04-0.02,0.09-0.04,0.13c-0.31,0.28-0.62,0.55-0.94,0.84
				c-1.46,1.17-3,2.26-4.48,3.34c1.81-0.74,3.45-1.83,4.92-3.11c-0.09,0.16-0.2,0.32-0.3,0.48c-0.6,0.53-1.21,1.07-1.82,1.6
				c-1.15,0.9-2.31,1.81-3.45,2.69c0.85-0.51,1.67-1.05,2.49-1.61c-0.19,0.17-0.39,0.34-0.58,0.52c0.07-0.05,0.13-0.1,0.2-0.15
				c-0.32,0.28-0.63,0.56-0.95,0.83c1.14-0.82,2.3-1.71,3.41-2.68c-0.01,0.02-0.02,0.03-0.02,0.05c-0.44,0.44-0.89,0.9-1.37,1.4
				c0.41-0.33,0.81-0.67,1.21-1.02c-0.01,0.03-0.01,0.05-0.02,0.08c-0.14,0.13-0.28,0.26-0.43,0.39c-0.84,0.7-1.59,1.34-2.14,1.86
				c0.19-0.12,0.38-0.26,0.57-0.39c-0.23,0.22-0.46,0.43-0.69,0.65c0.47-0.37,0.94-0.75,1.4-1.13c0.06-0.05,0.13-0.09,0.19-0.14
				c-0.2,0.21-0.41,0.43-0.63,0.66c0.36-0.3,0.71-0.62,1.05-0.95c0.55-0.39,1.09-0.8,1.62-1.22c0,0.01,0,0.01,0,0.02
				c-0.62,0.71-1.23,1.43-1.82,2.17c0.62-0.62,1.23-1.26,1.84-1.9c0.01,0.06,0.02,0.12,0.03,0.17c-0.83,0.88-1.67,1.76-2.52,2.61
				c0.79-0.64,1.55-1.33,2.28-2.05c0.05-0.04,0.11-0.08,0.16-0.12c-1.11,1.14-2.24,2.25-3.38,3.36c-0.17,0.12-0.33,0.24-0.5,0.35
				c0.09-0.04,0.18-0.08,0.26-0.12c-0.18,0.17-0.35,0.34-0.53,0.52c0.3-0.22,0.6-0.45,0.9-0.68c0.62-0.31,1.2-0.67,1.76-1.08
				c-0.86,0.87-1.74,1.69-2.71,2.43c1.83-1,3.34-2.5,4.69-4.12c0.02-0.02,0.04-0.04,0.06-0.05c0,0.01,0,0.01,0,0.02
				c-0.06,0.08-0.11,0.17-0.17,0.25c-0.56,0.59-1.13,1.19-1.8,1.92c0.66-0.6,1.3-1.21,1.92-1.85c-0.01,0.07-0.02,0.14-0.03,0.22
				c-1.1,1.18-2.25,2.32-3.39,3.47c-0.68,0.59-1.37,1.2-2.1,1.86c1.6-1.13,3.14-2.36,4.58-3.69c0.23-0.2,0.46-0.39,0.68-0.59
				c-0.01,0.06-0.03,0.13-0.04,0.19c-0.01,0.04-0.02,0.07-0.03,0.1c-0.89,0.83-1.77,1.68-2.64,2.54c0.82-0.68,1.61-1.38,2.4-2.09
				c-1.03,1.12-2.12,2.18-3.18,3.27c1.26-1.02,2.52-2.13,3.55-3.4c0,0.11-0.01,0.21-0.01,0.32c-0.04,0.05-0.07,0.11-0.11,0.16
				c-1.52,1.59-3.21,3.03-4.83,4.49c1.49-1.09,3.02-2.33,4.36-3.72c-0.01,0.03-0.02,0.06-0.03,0.09c-0.41,0.43-0.83,0.85-1.29,1.24
				c0.26-0.18,0.5-0.38,0.74-0.59c-1.01,1.1-2.07,2.16-3.21,3.11c1.36-0.9,2.58-2.03,3.66-3.27c0,0.02-0.01,0.05-0.01,0.07
				c-0.78,0.8-1.57,1.6-2.35,2.39c-0.38,0.34-0.75,0.69-1.13,1.05c0.15-0.11,0.3-0.24,0.46-0.35c-0.31,0.32-0.63,0.65-0.93,0.97
				c-0.53,0.51,0.13-0.04,0.38-0.24c1.14-0.95,2.27-1.95,3.29-3.03c0.07-0.07,0.14-0.14,0.21-0.21c-0.01,0.06-0.02,0.13-0.03,0.19
				c-0.38,0.36-0.55,0.89-1.01,1.17c0.44-0.19,0.67-0.62,0.97-0.96c-0.02,0.12-0.05,0.23-0.05,0.35c-0.39,0.32-0.78,0.63-1.18,0.92
				c0.31-0.15,0.59-0.31,0.86-0.48c-1.28,1.29-2.59,2.57-3.9,3.84c1.12-0.84,2.2-1.75,3.21-2.73c0.27-0.11,0.53-0.24,0.79-0.4
				c-0.83,0.82-1.7,1.6-2.65,2.27c0.6-0.31,1.15-0.69,1.68-1.11c-0.62,0.69-1.22,1.37-1.79,2.08c1.06-1.07,2.24-2.12,3.23-3.3
				c-0.26,0.36-0.51,0.73-0.77,1.11c-0.15,0.12-0.3,0.25-0.44,0.37c-0.31,0.23-0.19,0.17,0.07,0.02c0.06-0.04,0.11-0.08,0.17-0.11
				c-0.77,0.81-1.54,1.61-2.32,2.48c0.87-0.78,1.76-1.56,2.58-2.4c-0.07,0.09-0.15,0.18-0.22,0.28c-0.26,0.27-0.52,0.53-0.78,0.8
				c0.17-0.14,0.33-0.29,0.5-0.44c-0.16,0.21-0.33,0.43-0.49,0.65c0.31-0.34,0.62-0.69,0.92-1.03c0.57-0.51,1.12-1.05,1.63-1.63
				c0.01-0.01,0.03-0.02,0.04-0.03c-1.09,1.35-2.14,2.55-3.42,4.08c0.53-0.53,1.05-1.07,1.57-1.61c-0.76,0.94-1.53,1.87-2.35,2.75
				c0.69-0.6,1.33-1.26,1.94-1.94c0.2-0.1,0.4-0.21,0.6-0.32c-0.33,0.46-0.67,0.92-0.99,1.39c0.48-0.54,0.94-1.09,1.4-1.65
				c0.09-0.06,0.19-0.12,0.28-0.19c-0.32,0.47-0.64,0.95-0.96,1.45c0.46-0.58,0.91-1.16,1.35-1.75c0.26-0.2,0.51-0.41,0.76-0.63
				c-1.03,1.33-2.11,2.57-3.27,4.11c0.29-0.3,0.58-0.61,0.86-0.91c-0.45,0.55-0.92,1.11-1.41,1.72c1.51-1.51,3-3.08,4.19-4.86
				c0.01,0.04,0.02,0.08,0.03,0.12c-0.3,0.51-0.6,1.01-0.9,1.53c-0.36,0.47-0.74,0.95-1.11,1.42c-0.15,0.14-0.3,0.29-0.45,0.43
				c0.09-0.06,0.17-0.13,0.26-0.19c-0.49,0.61-1,1.22-1.52,1.81c0.72-0.64,1.41-1.33,2.05-2.06c-0.08,0.15-0.16,0.3-0.23,0.46
				c0.22-0.32,0.44-0.65,0.66-0.97c0.5-0.42,0.98-0.87,1.42-1.34c-0.36,0.66-0.73,1.32-1.03,2.01c0.39-0.64,0.84-1.28,1.23-1.94
				c0.02,0.06,0.04,0.12,0.06,0.17c-1,1.42-2.03,2.82-3.16,4.14c1.23-1.15,2.36-2.48,3.24-3.93c0,0,0,0,0,0
				c-0.27,0.49-0.56,0.96-0.85,1.44c-0.41,0.49-0.81,0.99-1.22,1.48c0.19-0.18,0.39-0.36,0.58-0.55c-0.14,0.2-0.28,0.39-0.41,0.59
				c0.17-0.21,0.35-0.42,0.52-0.63c-0.12,0.19-0.23,0.39-0.34,0.58c-0.4,0.35-0.81,0.69-1.23,1.01c0.34-0.17,0.67-0.38,0.99-0.59
				c-0.07,0.13-0.15,0.25-0.23,0.39c0.11-0.15,0.22-0.31,0.33-0.46c0.55-0.38,1.07-0.82,1.56-1.29c-0.12,0.16-0.26,0.32-0.38,0.49
				c0.16-0.19,0.31-0.38,0.46-0.57c0.24-0.24,0.48-0.48,0.72-0.72c0.04,0.1,0.09,0.2,0.14,0.3c-0.71,0.85-1.44,1.69-2.27,2.43
				c0.68-0.46,1.29-1.01,1.85-1.62c-0.11,0.15-0.22,0.3-0.34,0.45c-0.01,0.01,0,0.01,0,0c-0.02,0.03-0.05,0.07-0.07,0.09
				c-0.05,0.04-0.14,0.11-0.19,0.17c-0.16,0.19-0.35,0.35-0.53,0.53c0.04-0.03,0.08-0.06,0.11-0.08c0.03-0.01,0.05-0.04,0.08-0.05
				c-0.19,0.19-0.38,0.38-0.58,0.56c0.76-0.42,1.31-1.05,1.74-1.52c0.12-0.1,0.28-0.24,0.45-0.41c0.03,0.06,0.05,0.11,0.08,0.17
				c-0.52,0.56-1.03,1.13-1.53,1.71c0.53-0.52,1.05-1.05,1.55-1.6c-0.06,0.11-0.11,0.22-0.16,0.32c-0.06,0.07-0.12,0.13-0.16,0.19
				c-0.52,0.65-0.6,0.77-1.27,1.31c0.27-0.13,0.52-0.32,0.74-0.54c-0.02,0.02-0.02,0.02-0.05,0.05c0.1-0.05,0.24-0.17,0.38-0.31
				c-0.12,0.24-0.25,0.47-0.36,0.71c-0.18,0.33-0.33,0.72-0.58,1.01c0.69-0.59,1.21-1.37,1.62-2.21c0.03-0.04,0.06-0.07,0.09-0.11
				c0.03,0.05,0.06,0.1,0.08,0.15c-0.07,0.17-0.15,0.35-0.22,0.52c-0.55,0.62-1.11,1.24-1.66,1.86c0.54-0.52,1.06-1.07,1.56-1.62
				c-0.01,0.02-0.01,0.03-0.02,0.05c-0.05,0.13-0.26,0.26-0.38,0.45c-0.21,0.32-0.25,0.7-0.65,0.87c0.46-0.16,0.68-0.64,0.93-1.01
				c0.25-0.19,0.45-0.48,0.62-0.8c0.06,0.1,0.12,0.19,0.18,0.29c-0.05,0.11-0.1,0.23-0.15,0.32c-0.12,0.16-0.19,0.27-0.26,0.38
				c-0.17,0.17-0.35,0.33-0.51,0.51c0.16-0.14,0.31-0.27,0.45-0.41c-0.06,0.11-0.11,0.24-0.18,0.4c-0.17,0.14-0.39,0.3-0.68,0.41
				c-0.02,0.01-0.04,0.03-0.06,0.05c0.03-0.02,0.03-0.03,0.01-0.02c-0.08,0.04-0.13,0.11-0.22,0.16c0,0,0,0,0,0c0,0,0,0,0,0
				c0,0-0.01,0-0.01,0.01c0,0,0,0,0,0c0,0-0.01,0.01-0.01,0.01c0,0,0.01,0,0.01,0c0,0,0.01,0,0.01,0c0.01,0,0.03-0.01,0.02-0.01
				c0,0,0,0-0.01,0c0.03-0.01,0.05-0.04,0.08-0.04c0.01,0,0.02-0.01,0.03-0.02c0,0,0,0,0,0c0,0,0,0.01,0.02,0
				c0.01,0,0.03-0.01,0.04-0.02c-0.01,0.01-0.02,0.01,0.01,0.01c0.19-0.01,0.38-0.1,0.55-0.19c0.15-0.09,0.28-0.15,0.5-0.39
				c0.25-0.25,0.4-0.59,0.56-0.81c0,0,0-0.01,0.01-0.01c0.03,0.05,0.07,0.11,0.1,0.16c-0.32,0.31-0.64,0.63-0.95,0.95
				c0.33-0.3,0.66-0.6,0.98-0.91c0.04,0.06,0.09,0.13,0.13,0.2c-0.34,0.36-0.68,0.72-1.01,1.1c0.35-0.35,0.7-0.7,1.04-1.05
				c0.09,0.12,0.17,0.25,0.26,0.37c-0.25,0.34-0.51,0.68-0.75,1.02c0.27-0.32,0.53-0.65,0.79-0.98c0.09,0.12,0.18,0.25,0.28,0.37
				c-0.4,0.42-0.78,0.85-1.16,1.29c0.41-0.4,0.82-0.81,1.21-1.22c0.04,0.04,0.07,0.09,0.1,0.13c-0.34,0.42-0.67,0.86-1.02,1.27
				c0.3-0.18,0.48-0.5,0.74-0.74c0.03-0.03,0.22-0.2,0.4-0.38c0,0,0,0,0,0c-0.19,0.48-0.43,0.94-0.81,1.22
				c0.41-0.21,0.75-0.62,0.97-1.08c0.1,0.03,0.2,0.06,0.29,0.09c-0.05,0.12-0.11,0.24-0.17,0.35c-0.18,0.19-0.36,0.39-0.57,0.6
				c0.18-0.16,0.34-0.33,0.51-0.5c-0.26,0.42-0.62,0.75-1.14,0.86c0.74,0.02,1.25-0.68,1.6-1.25c0.23,0.07,0.45,0.14,0.68,0.22
				l13.98-31.54C167,90.43,166.24,90.23,165.79,89.77z M146.59,90.46c0.24-0.21,0.47-0.41,0.71-0.62c0,0.04,0,0.08,0,0.13
				c-0.02,0.02-0.03,0.05-0.05,0.07c-0.44,0.4-0.9,0.78-1.37,1.15C146.12,90.95,146.36,90.7,146.59,90.46z M146.16,91.22
				c0.28-0.23,0.55-0.46,0.81-0.71c-0.05,0.09-0.11,0.18-0.16,0.27c0.14-0.18,0.28-0.35,0.43-0.53c0.03-0.02,0.05-0.05,0.07-0.07
				c0,0.14,0.01,0.27,0.02,0.41C146.94,90.79,146.55,91,146.16,91.22z M147.33,89.12c-0.32,0.26-0.63,0.51-0.95,0.77
				c-0.02,0.01-0.03,0.02-0.05,0.04c0.01,0,0.01-0.01,0.02-0.01c-0.16,0.13-0.32,0.27-0.48,0.4c-0.36,0.2-0.73,0.39-1.11,0.58
				c0.82-0.54,1.62-1.12,2.4-1.73c0.06-0.03,0.11-0.05,0.17-0.08C147.33,89.1,147.33,89.11,147.33,89.12z M146.71,92.78
				c0.15-0.16,0.31-0.32,0.45-0.48c0.13-0.13,0.25-0.25,0.38-0.38c0.01,0.05,0.02,0.1,0.03,0.14c0.01,0.03,0.02,0.06,0.03,0.1
				C147.31,92.37,147.01,92.58,146.71,92.78z M147.57,87.41c-0.18,0.09-0.36,0.17-0.54,0.27c0.15-0.05,0.3-0.11,0.45-0.17
				c-0.15,0.1-0.31,0.2-0.47,0.3c-0.06,0.02-0.13,0.05-0.19,0.07c0.12-0.13,0.24-0.27,0.36-0.4c0.16-0.1,0.32-0.22,0.46-0.35
				c0,0,0,0,0,0C147.61,87.22,147.59,87.31,147.57,87.41z M146.71,93.41c0.32-0.34,0.64-0.69,0.95-1.03
				c0.02,0.07,0.05,0.14,0.07,0.22C147.4,92.86,147.05,93.13,146.71,93.41z M147.34,93.5c-0.2,0.14-0.41,0.27-0.61,0.41
				c0.36-0.38,0.72-0.77,1.07-1.16c0.02,0.08,0.05,0.16,0.07,0.24C147.69,93.16,147.51,93.33,147.34,93.5z M147.8,105.44
				c0.1-0.15,0.21-0.3,0.29-0.47c-0.12,0.16-0.23,0.33-0.34,0.5c-0.17,0.12-0.34,0.24-0.51,0.37c0.22-0.24,0.43-0.49,0.64-0.74
				c0.06-0.03,0.13-0.08,0.18-0.11c0.03-0.01,0.06-0.03,0.09-0.05c-0.01,0.06-0.02,0.11-0.03,0.17c-0.04,0.07-0.08,0.14-0.12,0.2
				C147.93,105.35,147.87,105.39,147.8,105.44z M146.61,114.85c-0.23,0.18-0.46,0.35-0.7,0.53c0.8-0.91,1.54-1.88,2.2-2.9
				c0.02,0.09,0.05,0.18,0.07,0.27C147.66,113.45,147.13,114.15,146.61,114.85z M148.15,117.81c-0.17,0.16-0.34,0.32-0.52,0.48
				c0.23-0.33,0.45-0.66,0.67-1c0.07-0.07,0.14-0.15,0.22-0.23C148.39,117.31,148.26,117.55,148.15,117.81z M148.57,95.72
				c-0.48,0.4-0.94,0.82-1.39,1.25c-0.22,0.17-0.44,0.34-0.67,0.5c0.24-0.25,0.48-0.51,0.72-0.77c0.53-0.43,1.02-0.89,1.52-1.31
				c0.01,0.03,0.03,0.07,0.04,0.1C148.69,95.6,148.61,95.68,148.57,95.72z M147.01,100.73c-0.17,0.07-0.34,0.13-0.5,0.2
				c0.21-0.17,0.41-0.35,0.61-0.54c-0.17,0.16-0.34,0.31-0.5,0.48c0.43-0.35,0.85-0.71,1.26-1.09
				C147.58,100.09,147.3,100.41,147.01,100.73z M148.41,99.66c-0.28,0.33-0.56,0.6-0.84,0.85c-0.06,0.02-0.12,0.05-0.18,0.07
				c0.4-0.44,0.77-0.9,1.12-1.37c0.25-0.15,0.5-0.3,0.74-0.46C148.96,99.05,148.68,99.35,148.41,99.66z"/>
			<path class="st8" d="M148.62,120.68c-0.1,0.09-0.2,0.18-0.31,0.26C148.43,120.86,148.53,120.78,148.62,120.68z"/>
		</g>
		<path class="st9" d="M219.27,123.06c-0.83-2.36-2.23-4.51-4.29-5.97c0.34,1.02,0.81,1.98,1.39,2.87
			c-0.85-1.05-1.85-1.96-3.01-2.68c0.98,2.15,2.58,3.93,4.6,5.15c-0.23-0.47-0.5-0.93-0.78-1.36
			C217.78,121.81,218.48,122.48,219.27,123.06z"/>
		<path class="st9" d="M212.32,117.24c0.71,1.87,1.93,3.49,3.52,4.68C215.1,120.08,213.95,118.41,212.32,117.24z"/>
		<path class="st9" d="M230.39,112.3c-0.45-1.39-1.03-2.74-1.75-4.01c0.48,0.38,1.02,0.68,1.61,0.88c-0.48-0.81-1.12-1.5-1.88-2.02
			c-0.24-0.43-0.51-0.85-0.8-1.25c-0.03-0.08-0.06-0.16-0.08-0.24c0.76,1.04,1.71,1.93,2.84,2.62c-0.43-1.41-1.11-2.72-2.02-3.84
			c0.5,0.52,1.03,1.01,1.62,1.44c-0.09-0.28-0.19-0.55-0.3-0.83c0.41,0.28,0.85,0.52,1.31,0.7c-0.55-0.85-1.25-1.54-1.99-2.2
			c-0.21-0.4-0.43-0.79-0.68-1.16c0.08,0.06,0.16,0.13,0.24,0.19c-0.22-0.46-0.46-0.91-0.72-1.35c0.55,0.49,1.15,0.94,1.8,1.33
			c-0.02-0.04-0.04-0.08-0.06-0.13c0.17,0.11,0.33,0.22,0.52,0.31c-0.3-0.57-0.68-1.1-1.12-1.56c-0.06-0.1-0.11-0.21-0.17-0.31
			c0.28,0.13,0.57,0.24,0.87,0.31c-0.48-0.45-0.97-0.88-1.49-1.27c-0.31-0.44-0.64-0.87-1-1.27c0.61,0.56,1.24,1.09,1.9,1.57
			c-0.17-0.3-0.34-0.6-0.52-0.89c0.26,0.17,0.53,0.34,0.8,0.5c-0.03-0.07-0.07-0.13-0.1-0.2c0.1,0.08,0.19,0.16,0.29,0.23
			c-0.27-0.54-0.57-1.06-0.88-1.56c0.53,0.37,1.06,0.73,1.61,1.07c-0.23-0.37-0.47-0.74-0.71-1.11c-0.24-0.38-0.51-0.75-0.79-1.11
			c0.38,0.17,0.78,0.31,1.19,0.41c-0.51-0.52-1.07-1-1.65-1.43c0.19,0.04,0.39,0.08,0.58,0.11c-0.73-0.54-1.51-0.98-2.31-1.39
			c-0.18-0.15-0.35-0.31-0.53-0.45c-0.02-0.03-0.05-0.06-0.08-0.09c-0.02-0.1-0.03-0.21-0.06-0.31c-0.02-0.1-0.05-0.19-0.07-0.28
			c1.31,0.81,2.75,1.4,4.24,1.8c-0.39-0.34-0.81-0.65-1.24-0.94c-0.89-0.99-1.95-1.8-3.14-2.37c-0.05-0.05-0.09-0.09-0.14-0.14
			c0.04,0,0.08,0.01,0.11,0.01c0.86,0.47,1.79,0.8,2.76,1c-0.54-0.39-1.12-0.71-1.71-1c0.33-0.01,0.66-0.05,0.98-0.12
			c0.42,0.29,0.86,0.57,1.31,0.83c-0.44-0.65-0.94-1.26-1.47-1.84c0.15-0.02,0.31-0.04,0.46-0.06c-0.24-0.08-0.48-0.15-0.72-0.2
			c-0.04-0.04-0.07-0.07-0.11-0.11c0.52-0.16,1.03-0.34,1.53-0.52c-0.67-0.04-1.33-0.01-1.99,0.08c-0.2-0.2-0.4-0.4-0.61-0.59
			c0.65-0.01,1.3-0.05,1.95-0.17c0.15-0.05,0.26-0.1,0.38-0.2c-0.22,0.14-0.5,0.09-0.74,0.04c-0.42-0.08-0.85-0.12-1.28-0.15
			c0.18-0.04,0.35-0.08,0.53-0.12c-0.12-0.03-0.23-0.05-0.35-0.07c0.43-0.12,0.85-0.26,1.25-0.44c-0.88,0.11-1.76,0.24-2.64,0.38
			c-0.22-0.17-0.45-0.33-0.68-0.49c0.56-0.08,1.11-0.23,1.65-0.4c0.94-0.06,1.89-0.16,2.82-0.3c-0.96-0.17-1.92-0.24-2.89-0.25
			c0.5-0.21,0.99-0.44,1.45-0.71c-0.73,0.26-1.47,0.48-2.2,0.71c-0.41,0.01-0.82,0.03-1.23,0.07c0.61-0.2,1.19-0.46,1.73-0.79
			c0.21-0.07,0.42-0.15,0.63-0.23c-0.11,0-0.21,0.02-0.32,0.02c0.02-0.02,0.05-0.03,0.07-0.05c-0.04,0.02-0.07,0.03-0.11,0.05
			c-0.43,0.02-0.86,0.07-1.29,0.13c0.73-0.41,1.42-0.91,2.01-1.44c-1.18,0.7-2.47,1.25-3.78,1.74c-0.36,0.07-0.72,0.14-1.07,0.2
			c-0.1-0.08-0.19-0.16-0.29-0.23c0.12-0.03,0.25-0.06,0.37-0.1c0.56-0.1,1.12-0.24,1.67-0.43c0.04-0.01,0.07-0.02,0.11-0.03
			c-0.01,0-0.01,0-0.02,0c0.2-0.07,0.4-0.14,0.6-0.21c-0.16,0-0.32,0.03-0.48,0.04c0.37-0.14,0.73-0.3,1.07-0.5
			c0.43-0.17,0.86-0.35,1.28-0.54c-0.27,0.06-0.53,0.14-0.79,0.21c0.03-0.01,0.06-0.03,0.09-0.04c-1.2,0.21-2.31,0.54-3.4,0.91
			c-0.4,0.07-0.79,0.13-1.19,0.2c-0.13-0.08-0.26-0.18-0.4-0.25c0.1-0.03,0.19-0.07,0.28-0.1c0.29,0.02,0.57,0.03,0.86,0.03
			c0,0,0,0,0,0c0,0,0,0,0.01,0c-0.14-0.07-0.29-0.13-0.43-0.19c0.08-0.03,0.16-0.08,0.24-0.11c0.73-0.04,1.44-0.25,2.13-0.49
			c-0.48-0.02-0.96,0.04-1.42,0.15c0.41-0.21,0.81-0.44,1.19-0.68c-0.14,0.05-0.28,0.1-0.41,0.14c0.41-0.25,0.8-0.52,1.19-0.8
			c-0.92,0.42-1.84,0.82-2.75,1.23c-0.13-0.03-0.27-0.05-0.41-0.07c0.65-0.22,1.28-0.5,1.88-0.86c-0.54,0.18-1.09,0.35-1.63,0.51
			c-0.05,0.02-0.11,0.03-0.16,0.05c-0.24,0.07-0.48,0.15-0.72,0.22c-0.5-0.03-0.99-0.02-1.49,0.03c0.21-0.14,0.42-0.28,0.63-0.42
			c0.73-0.28,1.42-0.65,2.08-1.07c0.49-0.26,0.98-0.54,1.46-0.8c-0.23,0.08-0.45,0.17-0.68,0.26c0.02-0.01,0.03-0.02,0.05-0.03
			c-0.06,0.03-0.13,0.06-0.19,0.09c-0.46,0.18-0.92,0.37-1.37,0.56c0.03-0.02,0.06-0.05,0.09-0.07c-0.05,0.03-0.1,0.06-0.16,0.1
			c-0.33,0.14-0.67,0.27-1,0.39c1-0.57,1.97-1.17,2.91-1.83c-1.28,0.7-2.48,1.41-3.69,2.12c-0.26,0.09-0.52,0.16-0.78,0.24
			c0.52-0.24,1.01-0.57,1.5-0.85c-0.82,0.31-1.58,0.76-2.4,1.08c-0.1-0.02-0.19-0.05-0.29-0.07c0.1-0.06,0.21-0.12,0.31-0.17
			c1.17-0.57,2.25-1.33,3.25-2.16c-0.18,0.11-0.37,0.22-0.55,0.33c0.31-0.24,0.61-0.49,0.91-0.74c-0.9,0.6-1.8,1.19-2.7,1.77
			c-0.3,0.17-0.6,0.33-0.9,0.5c0.38-0.41,0.77-0.83,1.13-1.26c-0.44,0.44-0.86,0.89-1.28,1.34c-0.2,0.11-0.4,0.22-0.6,0.32
			c-0.03,0-0.05-0.01-0.07-0.01c0.13-0.15,0.24-0.31,0.37-0.46c0.31-0.17,0.61-0.36,0.91-0.54c-0.24,0.08-0.48,0.18-0.71,0.29
			c0.25-0.33,0.5-0.67,0.73-1.01c-0.33,0.37-0.65,0.75-0.97,1.13c-0.33,0.17-0.66,0.35-0.98,0.54c-0.06-0.01-0.13-0.01-0.19-0.02
			c0.22-0.13,0.44-0.26,0.66-0.4c-0.3,0.11-0.59,0.24-0.88,0.38c-0.28-0.02-0.56-0.02-0.84-0.02c0.37-0.27,0.74-0.55,1.1-0.84
			c-0.41,0.26-0.81,0.55-1.2,0.84c-0.01,0-0.03,0-0.04,0c0.42-0.48,0.83-0.97,1.23-1.47c0.18-0.22,0.37-0.42,0.55-0.64
			c-0.08,0.08-0.15,0.15-0.23,0.23c0.27-0.35,0.54-0.7,0.8-1.06c-0.38,0.41-0.74,0.83-1.1,1.25c-0.16,0.08-0.31,0.16-0.46,0.25
			c0.21-0.3,0.42-0.6,0.62-0.91c-0.29,0.34-0.57,0.68-0.84,1.03c-0.14,0.08-0.29,0.16-0.43,0.25c0.26-0.23,0.52-0.46,0.77-0.71
			c-0.24,0.21-0.49,0.41-0.74,0.62c0.21-0.24,0.42-0.49,0.63-0.74c-0.35,0.34-0.69,0.7-1.03,1.06c-0.05,0.03-0.1,0.06-0.15,0.09
			c0.22-0.24,0.44-0.49,0.66-0.73c0.14-0.14,0.29-0.27,0.43-0.42c-0.07,0.06-0.14,0.12-0.21,0.18c0.11-0.12,0.21-0.24,0.32-0.35
			c-0.19,0.18-0.36,0.36-0.54,0.54c-0.3,0.25-0.61,0.5-0.91,0.75c0.06-0.08,0.12-0.16,0.18-0.25c0.07-0.06,0.15-0.11,0.22-0.17
			c-0.06,0.03-0.12,0.07-0.17,0.11c0.08-0.11,0.16-0.22,0.24-0.33c0.25-0.26,0.5-0.52,0.74-0.78c-0.19,0.18-0.38,0.37-0.57,0.55
			c0.05-0.07,0.11-0.14,0.16-0.22c-0.12,0.13-0.23,0.26-0.34,0.39c-0.22,0.21-0.42,0.42-0.64,0.63c-0.23,0.14-0.46,0.29-0.69,0.44
			c0.31-0.37,0.62-0.74,0.91-1.13c-0.28,0.3-0.54,0.58-0.79,0.86c0.22-0.31,0.44-0.62,0.64-0.95c-0.46,0.52-0.9,1.06-1.34,1.61
			c-0.17,0.12-0.33,0.24-0.49,0.36c-0.13,0.03-0.26,0.05-0.38,0.09c0.04-0.05,0.07-0.1,0.11-0.14c0.37-0.39,0.73-0.78,1.08-1.18
			c-0.24,0.24-0.49,0.48-0.73,0.72c0.1-0.13,0.2-0.27,0.3-0.41c0.53-0.45,1.05-0.9,1.56-1.36c-0.41,0.29-0.82,0.59-1.22,0.9
			c0.42-0.55,0.84-1.1,1.24-1.67c-0.52,0.59-1.03,1.2-1.54,1.81c-0.08,0.09-0.15,0.18-0.23,0.27c-0.29,0.22-0.57,0.44-0.85,0.67
			c0.38-0.52,0.75-1.04,1.1-1.57c-0.55,0.65-1.08,1.32-1.61,1.99c-0.03,0.02-0.05,0.04-0.08,0.06c0.61-0.81,1.2-1.63,1.76-2.48
			c-0.39,0.44-0.76,0.87-1.12,1.3c0.25-0.36,0.5-0.71,0.73-1.07c-0.27,0.34-0.52,0.67-0.78,1.01c0.03-0.06,0.07-0.12,0.1-0.18
			c-0.12,0.17-0.24,0.35-0.36,0.52c-0.16,0.21-0.31,0.41-0.46,0.62c-0.05,0.04-0.11,0.08-0.16,0.12c0.1-0.17,0.2-0.34,0.3-0.51
			c-0.16,0.21-0.32,0.43-0.49,0.65c-0.25,0.19-0.49,0.38-0.74,0.58c0.85-0.95,1.67-1.92,2.45-2.92c-1.02,1.03-2,2.11-2.94,3.22
			c-0.34,0.15-0.67,0.32-1,0.49c0.98-0.91,1.94-1.85,2.89-2.8c-1.33,1.04-2.59,2.16-3.81,3.32c-0.08,0.05-0.16,0.09-0.23,0.13
			c0.56-0.68,1.1-1.37,1.61-2.08c-0.76,0.81-1.51,1.64-2.23,2.48c-0.4,0.27-0.79,0.55-1.16,0.85c-0.97,0.77-1.89,1.64-3.05,2.08
			c-1.16,0.44-2.64,0.32-3.4-0.65l-1.4,0.01c2.7,1.28,3.96,4.35,4.99,7.16c1.71,4.66,3.41,9.32,5.12,13.98
			c1.05,2.86,2.1,5.76,2.36,8.8c0.06,0.74,0.38,1.74,1.11,1.62c0.41-0.07,0.64-0.49,0.93-0.78c0.6-0.6,1.55-0.67,2.39-0.56
			c0.84,0.11,1.67,0.37,2.51,0.33c0.26-0.01,0.5-0.07,0.75-0.14c0.39,0.8,0.86,1.56,1.43,2.24c0.1,0.14,0.2,0.28,0.31,0.42
			c0-0.03-0.01-0.06-0.01-0.08c0.3,0.33,0.61,0.65,0.96,0.94c-0.23-0.73-0.51-1.44-0.82-2.13c0.26,0.32,0.53,0.62,0.84,0.9
			c-0.31-1.04-0.76-2.03-1.35-2.94c0.08-0.06,0.17-0.11,0.25-0.17c0.25,0.49,0.54,0.95,0.89,1.37c-0.07-0.23-0.15-0.46-0.23-0.69
			c0.86,1.01,1.94,1.82,3.18,2.27c-0.27-0.41-0.5-0.83-0.74-1.26c0.09,0.05,0.17,0.11,0.27,0.16c-0.41-1.07-0.95-2.08-1.59-3.02
			c0.53,0.47,1.11,0.89,1.74,1.26c-0.37-0.82-0.83-1.6-1.34-2.33c0.04,0.04,0.09,0.08,0.13,0.12c0.65,1.04,1.46,1.98,2.42,2.77
			c-0.19-0.58-0.4-1.15-0.66-1.7c-0.11-0.3-0.23-0.59-0.36-0.88c0.66,0.75,1.4,1.44,2.21,2.05c-0.85-1.5-1.93-2.85-3.25-3.95
			c-0.02-0.03-0.04-0.07-0.06-0.1c0.04-0.1,0.08-0.19,0.12-0.29c0.61,0.91,1.32,1.74,2.14,2.48c-0.08-0.18-0.18-0.35-0.27-0.53
			c0.29,0.4,0.6,0.78,0.94,1.14c-0.24-0.85-0.55-1.67-0.92-2.47c-0.16-0.42-0.35-0.82-0.56-1.21c0.66,0.61,1.38,1.16,2.18,1.61
			c0.2,0.23,0.4,0.46,0.61,0.68c-0.03-0.14-0.06-0.28-0.1-0.41c0.11,0.06,0.22,0.12,0.34,0.17c-0.18-0.41-0.38-0.81-0.59-1.2
			c-0.13-0.52-0.29-1.03-0.46-1.54c0.33,0.46,0.68,0.9,1.07,1.31c-0.09-0.4-0.2-0.8-0.31-1.2c0.18,0.24,0.37,0.48,0.57,0.7
			c-0.04-0.18-0.09-0.35-0.13-0.52c0.37,0.3,0.78,0.57,1.23,0.75c-0.36-0.7-0.87-1.28-1.48-1.75c-0.12-0.44-0.26-0.88-0.41-1.31
			c0.77,0.79,1.64,1.48,2.62,2.05c0.23,0.14,0.46,0.28,0.69,0.41c-0.23-0.54-0.47-1.08-0.73-1.61c0.31,0.16,0.63,0.31,0.94,0.44
			c-0.39-0.48-0.85-0.87-1.33-1.23c-0.33-0.64-0.68-1.28-1.07-1.88c-0.21-0.33-0.45-0.63-0.69-0.94c0.02,0.02,0.03,0.04,0.05,0.05
			c-0.11-0.36-0.24-0.71-0.37-1.07c0.42,0.55,0.88,1.07,1.37,1.57c-0.11-0.29-0.23-0.57-0.35-0.85
			C227.7,110.18,228.93,111.35,230.39,112.3z M214.04,84.66c-0.08,0.01-0.15,0.01-0.23,0.01c0.22-0.25,0.43-0.5,0.64-0.75
			c0.12-0.08,0.24-0.16,0.35-0.24C214.54,84,214.29,84.33,214.04,84.66z M218.13,84.98c-0.05,0.02-0.11,0.04-0.16,0.06
			c-0.15-0.04-0.3-0.07-0.45-0.1c0.2-0.05,0.4-0.11,0.59-0.19c0.15,0,0.31-0.01,0.46-0.03C218.43,84.8,218.28,84.89,218.13,84.98z
			 M226.41,91.04c0.04,0.01,0.07,0.03,0.11,0.05c0.29,0.23,0.59,0.45,0.88,0.67c-0.32-0.08-0.64-0.16-0.97-0.24
			c-0.18-0.16-0.36-0.31-0.55-0.45C226.06,91.05,226.24,91.05,226.41,91.04z"/>
		<path class="st10" d="M326.19,101.08c-39.25,32.98-76.7,68.1-112.13,105.15c-24.3,25.41-47.81,51.95-65.68,82.23
			c-5.63,9.53-10.67,19.4-15.71,29.26c4.07,0.04,7.17,3.44,10.38,5.93c3.22,2.49,8.39,4.01,10.96,0.85
			c1.03-1.27,1.32-2.96,1.63-4.56c3.62-18.72,15.02-34.85,26.15-50.33c6.16-11.51,14.27-21.98,23.87-30.82
			c3.13-4.92,7.28-9.2,12.11-12.48c5.22-7.53,11.88-14.06,19.51-19.13l0.14-3.65c7.64-7,15.27-14,22.91-21.01
			c8.36-7.66,16.71-15.33,25.07-22.99c12.66-11.61,25.32-23.22,37.96-34.85c1.94-1.81,3.69-1.66,5.18-4.39
			c0.75-1.37-5.4,5.91-6.41,5.13c-0.86-0.67,5.14-3.58,5.93-4.33c5.61-5.31,4.19-15.61-2.16-20.85"/>
		<path class="st11" d="M327.89,99.64c2.01,4.47-6.05,11.66-10.85,12.61c-1.55,2.3-3.09,5.5-4.64,7.8c-0.53-0.01-1.07-0.03-1.6-0.04
			c-0.24,2.6-2.55,4.84-5.15,5.01c-0.23,1-0.45,2-0.68,3c-4.26,3.32-8.52,6.63-12.78,9.95c-6.03,7.22-13.33,13.38-21.45,18.12
			c-0.01,1.37-1.69,2.43-2.93,1.85c-1.84,2.06-3.69,4.11-5.53,6.17c-1.49,0.94-2.98,1.87-4.46,2.81c0.29,2.06-2.38,3.85-4.18,2.79
			c0.11,1.19,0.23,2.37,0.34,3.56c-2.53-0.72-5.31,2.06-4.59,4.59c-1.42-0.12-2.84-0.24-4.26-0.36c0.47,1.61,0.95,3.22,1.42,4.82
			c-1.28,0.03-2.56,0.06-3.84,0.09c0.19,1.26,0.38,2.53,0.56,3.79c-5.87,6.24-11.73,12.49-17.6,18.73c0.22,2.73-2.78,5.18-5.41,4.42
			c1.28,0.89,1.28,3.1-0.01,3.99c-1.29,0.88-3.36,0.1-3.73-1.42c-0.02,1.1-0.04,2.2-0.07,3.3c-1.04-0.09-2.08-0.18-3.12-0.27
			c0.11,1.33,0.22,2.66,0.34,3.99c-1.16-1.01-3.14-0.86-4.13,0.33c-0.98,1.18-0.77,3.17,0.44,4.11c-1.56,0.5-3.42-0.18-4.31-1.56
			c-2.4,2.17-4.8,4.35-7.21,6.52c-0.95-0.19-1.9-0.38-2.85-0.58c-0.01,1.25-0.01,2.5-0.02,3.75c-0.87-0.04-1.75-0.07-2.62-0.11
			c-1.55,0.11-3.1,0.23-4.64,0.34c-1-0.14-2-0.27-3-0.41c-0.24,0.6-0.49,1.2-0.73,1.8c-2.37,3.38-4.48,6.94-7.84,8.53
			c-0.72,6.25-2.43,12.39-5.03,18.12c0.24,1.44,0.47,2.87,0.71,4.31c-1.01-0.18-2.02-0.35-3.03-0.53c0.18,2.36,0.35,4.73,0.53,7.09
			c-0.99,0.32-1.99,0.65-2.98,0.97c0.49,2.17,0.98,4.33,1.48,6.5c-1.34,0.25-2.69,0.5-4.03,0.75c2.42,0.77,1.48,5.31-1.05,5.06
			c0.93,1.68,1.86,3.36,2.79,5.04c-1.09,0.02-2.18,0.04-3.26,0.06c-6.64,10.01-10.53,21.82-11.14,33.82
			c-3.45,0.65-6.99,1.3-10.46,0.76c-3.47-0.54-6.93-2.51-8.28-5.76c-1.97-4.75,1.07-9.97,3.99-14.2c6.13-8.9,12.27-17.81,18.4-26.71
			c5.74-20.33,21.3-36.16,36.28-51.05c8.53-8.48,17.07-16.95,25.6-25.43c34.39-34.16,72.07-72.3,109.73-102.82"/>
		<path class="st12" d="M147.2,308.48c-1.28-0.44-2.73-0.13-3.89,0.57s-2.07,1.75-2.87,2.83c-0.81,1.09-1.53,2.24-2.44,3.24
			c1.4-0.34,2.87-0.35,4.28-0.05c0.75,0.16,1.6,0.4,2.23-0.03c0.42-0.28,0.63-0.78,0.81-1.25c0.71-1.81,1.42-3.61,2.12-5.42"/>
		<path class="st13" d="M145.31,316.11c0.4-1.67,0.81-3.34,1.21-5.01c0.23-0.95,0.47-1.93,1.09-2.69c0.61-0.76,1.7-1.23,2.62-0.6
			c2.21-0.22,4.31,1.27,5.47,3.17c1.16,1.9,1.56,4.15,1.94,6.34c-3.41-0.2-6.81-0.4-10.22-0.59c-0.87-0.05-1.83-0.14-2.46-0.75"/>
		<path class="st14" d="M149.46,302.84c-0.59-0.65-0.53-1.65-0.39-2.52c0.17-0.99,0.43-1.99,1.04-2.79
			c0.85-1.11,2.27-1.66,3.66-1.76c1.39-0.1,2.78,0.18,4.14,0.47c0.44,0.09,0.94,0.22,1.18,0.6c0.4,0.64-0.14,1.42-0.57,2.04
			c-1.02,1.51-1.39,3.45-1,5.23c-2.6-0.27-5.2-0.55-7.79-0.82"/>
		<path class="st15" d="M150.69,306.8c1.07,0.71,2.63,0.57,3.55-0.33c1.22-1.19,1.14-3.16,1.94-4.66c-0.95-0.09-1.91-0.11-2.83,0.12
			c-0.92,0.23-1.8,0.71-2.37,1.47c-0.57,0.76-0.78,1.81-0.41,2.69"/>
		<path class="st16" d="M154.7,305.75c0.47-0.4,1.21-0.33,1.71,0.03c0.5,0.35,0.81,0.92,1.03,1.5s0.38,1.18,0.68,1.71
			c0.49,0.89,1.32,1.53,2.19,2.05c-1-0.23-2.04-0.45-3.02-0.16c-0.26,0.08-0.51,0.19-0.78,0.21c-0.27,0.01-0.57-0.12-0.94-0.44
			c-0.56,0.13-1.18-0.09-1.59-0.5c-0.41-0.41-0.64-0.98-0.71-1.55c-0.13-1.17,0.51-2.47,1.64-2.78"/>
		<path class="st17" d="M204.1,264.14c0.67,2.95,2.95,5.27,5.42,7.01c2.47,1.74,5.23,3.08,7.55,5.01c2.32,1.93,4.25,4.67,4.2,7.69
			c0.27-4.79-1.43-9.66-4.63-13.24c-3.19-3.58-7.84-5.82-12.62-6.1"/>
		<path class="st18" d="M191.9,306.43c0.24-6.88,0.47-13.76,0.71-20.65c0.15-4.5,0.35-9.17,2.37-13.2"/>
		<path class="st18" d="M207,281.89c-0.77-2.06,0.12-4.45,1.64-6.05c1.52-1.6,3.56-2.56,5.56-3.5c4.85-2.27,9.69-4.54,14.3-7.08
			c4.56-0.9,9-2.42,13.15-4.5"/>
		<path class="st18" d="M241.23,260.94c0.26-0.22,0.52-0.45,0.78-0.67c-0.61-0.85-1.21-1.71-1.82-2.56"/>
		<path class="st19" d="M212.86,232.83c-3.11,1.89-4.87,5.79-4.23,9.38c0.72,4.03,4.03,7.14,5.23,11.05
			c-0.2-7.24-0.7-14.48-1.48-21.68"/>
		<path class="st20" d="M188.58,305.44c2.74-4.14,3.59-9.21,4.68-14.05s2.63-9.89,6.3-13.24"/>
		<path class="st20" d="M194.57,275.72c0.51,0.51,0.63,1.27,0.7,1.99c0.23,2.42,0.12,4.88-0.42,7.53c-0.45-1.87-1.27-3.66-2.4-5.22
			c-0.36-0.5-0.85-1.02-1.47-1.01"/>
		<path class="st21" d="M215.21,238.85c1.84,0.53,3.74,1.09,5.17,2.35c1.43,1.27,2.23,3.46,1.33,5.14
			c-0.69,0.74-1.71,1.18-2.73,1.18c-1.98-0.01-3.67-1.64-4.37-3.49s-0.64-3.9-0.56-5.88c0.76,0.31,1.53,0.62,2.29,0.93"/>
		<path class="st20" d="M194.18,284.46c0.23,4.92-1.49,9.69-3.18,14.32c-1.06,2.91-2.13,5.82-3.19,8.73"/>
		<path class="st22" d="M197.78,306.97c-0.65-10.57,0.48-21.24,3.35-31.43c-0.83,0.27-1.44,1-1.77,1.81
			c-0.33,0.81-0.42,1.69-0.51,2.56c-0.93,9.15-1.87,18.3-2.8,27.45c0.65-0.15,1.3-0.29,1.95-0.44"/>
		<path class="st23" d="M204.41,290.42c1.12-6.33,2.05-12.69,2.8-19.07c-0.98-0.01-1.81,0.8-2.17,1.71
			c-0.36,0.91-0.34,1.92-0.34,2.9c0.01,5.47-0.6,10.94-1.82,16.27c1.28-1.37,1.64-3.35,1.9-5.21c0.67-4.76,1.05-9.57,1.15-14.38
			c-0.32,2.3-0.64,4.6-0.96,6.91"/>
		<path class="st23" d="M221.45,222.34c-4.7,9.52-8.33,19.57-10.8,29.89c-0.72,3.01-1.42,6.2-3.54,8.44
			c-0.11-7.85,4.74-14.84,6.55-22.47c0.68-2.86,0.94-5.81,1.82-8.61s2.54-5.54,5.17-6.83"/>
		<path class="st23" d="M223.15,226.43c-3.82,6.8-7.63,13.59-11.45,20.39c4.77-6.77,8.94-13.97,12.44-21.48
			c-0.44,0.52-1.41,0.42-1.73-0.19c-0.32-0.6,0.14-1.46,0.82-1.53c0.68-0.07,1.3,0.68,1.11,1.33c-0.34,0.66-0.88,1.23-1.53,1.59"/>
		<path class="st23" d="M197.66,304.68c1.83-4.2,3.66-8.39,5.49-12.59c-1.04,5.11-2.92,10.05-5.55,14.56
			c0.04-0.74,0.08-1.47,0.11-2.21"/>
		<path class="st24" d="M184.39,255.52c-3.75,5.41-7.87,11.12-14.04,13.43c5.1,1.2,10.51-1.25,14.21-4.96
			c3.7-3.71,6.02-8.54,8.27-13.28c-3.73-0.26-7.5,1.98-9.07,5.37"/>
		<path class="st25" d="M196.73,269.58c-3.97,2.82-6.85,7.11-7.97,11.85c1.89-1.37,3.78-2.74,5.67-4.11
			c1.47-1.07,2.96-2.15,4.09-3.57c1.13-1.42,1.88-3.25,1.63-5.05c-0.06-0.43-0.29-0.94-0.73-0.94c-0.2,0-0.37,0.13-0.53,0.24
			c-1.32,0.96-2.64,1.91-3.97,2.87"/>
		<path class="st26" d="M199.16,249.81c1.02,1.86,1.01,4.17,0.3,6.16c-0.71,2-2.06,3.71-3.6,5.17c-7.55,7.18-19.45,8.65-26.31,16.49
			c5.62-7.78,12.72-14.48,20.8-19.65c1.56-0.99,3.19-1.97,4.29-3.46c0.68-0.93,1.12-2.01,1.76-2.96c0.65-0.95,1.59-1.81,2.74-1.9"/>
		<path class="st27" d="M200.4,246.24c1.54-0.88,3.66,0.02,4.49,1.58c0.84,1.56,0.61,3.51-0.12,5.13c-0.72,1.62-1.89,2.99-2.96,4.4
			c-4.36,5.76-7.31,12.57-8.54,19.69c-2.75-5.2-2.26-11.95,1.2-16.7c1.44-1.98,3.4-3.73,3.94-6.12c0.36-1.59,0.03-3.26,0.24-4.87
			c0.2-1.62,1.26-3.37,2.89-3.43"/>
		<path class="st28" d="M183.19,268.36c-2.69,1.36-3.95,4.47-4.68,7.39c-0.73,2.92-1.2,6.06-3.09,8.4c3.36-1.55,6.55-3.63,8.9-6.48
			c2.35-2.86,3.82-6.56,3.5-10.24c-0.04-0.43-0.1-0.87-0.33-1.23c-0.55-0.84-1.84-0.89-2.69-0.37s-1.39,1.43-1.88,2.3"/>
		<path class="st29" d="M240.76,259.08c-0.68-0.88-0.8-2.07-0.76-3.19c0.04-1.11,0.21-2.24,0.01-3.34c-0.2-1.1-0.89-2.2-1.97-2.48
			c-1.12-0.29-2.25,0.37-3.17,1.06c-1.79,1.36-3.38,2.98-5.3,4.17c-1.91,1.18-4.29,1.89-6.42,1.16c1.34,1.63,3.5,2.37,5.61,2.53
			s4.2-0.19,6.3-0.38s4.28-0.19,6.23,0.61"/>
		<path class="st30" d="M188.41,266.7c-0.56-0.19-1.2,0.11-1.56,0.59c-0.36,0.47-0.51,1.07-0.64,1.65
			c-1.02,4.67-1.28,9.5-0.77,14.25c2.93-5.55,5.9-11.24,6.74-17.46c0.08-0.57,0.13-1.17-0.08-1.71c-0.22-0.54-0.79-0.97-1.35-0.84
			c-0.37,0.09-0.64,0.38-0.89,0.67c-0.91,1.03-1.82,2.06-2.73,3.09"/>
		<path class="st31" d="M155.69,283.21c0.01-1.08-1.64-1.44-2.46-0.74c-0.81,0.7-0.97,1.89-1.07,2.96c-0.28,2.9-0.55,5.8-0.83,8.69
			c-0.47,4.95-0.88,10.25,1.57,14.58c2.82-7.14,3.68-15.04,2.47-22.62c-0.13-0.83-0.29-1.69-0.03-2.49c0.25-0.8,1.07-1.5,1.88-1.29"
			/>
		<path class="st32" d="M173.7,300.66c1.3-2.02,2.6-4.05,3.91-6.07c0.1-0.15,0.23-0.33,0.41-0.32c0.18,0.01,0.3,0.18,0.38,0.34
			c1.13,2.14,1.47,4.7,0.93,7.06c-0.65-0.07-0.87,0.83-0.91,1.48c-0.16,2.42-1.3,4.77-3.1,6.39c-0.36-3.28-1.09-6.52-2.16-9.63"/>
		<path class="st33" d="M208.5,236.36c-3.29,2.47-5.53,6.05-7.7,9.54c1.42-0.56,3.2,0,4.03,1.28c1.53-3.96,3.06-7.92,4.6-11.89"/>
		<path class="st34" d="M191.57,294.6c-4.41-4.28-8.82-8.57-13.23-12.85c5.27,1.12,10.18,3.84,13.94,7.7
			c2.38-1.41,5.22-2.04,7.97-1.75c-2.23,3.36-5.7,5.88-9.58,6.98"/>
		<path class="st35" d="M205.05,283.21c1.64-0.8,3.28-1.61,4.73-2.71s2.69-2.55,3.27-4.27"/>
		<path class="st36" d="M173.75,290.16c0.99-1.08,2.61-1.25,4.07-1.34c6.58-0.42,13.17-0.62,19.75-0.6c1.2,0,2.72,0.26,3,1.42
			c0.19,0.8-0.42,1.62-1.17,1.96c-0.75,0.34-1.61,0.31-2.43,0.28c-7.85-0.28-15.7-0.57-23.55-0.85"/>
		<path class="st35" d="M211.88,278.67c2.66-0.43,5.46-0.02,7.89,1.15"/>
		<path class="st37" d="M234.72,218.87c-2.18,0.85-3.48,3.16-3.93,5.45c-0.45,2.29-0.24,4.66-0.32,7
			c-0.25,7.31-3.63,14.46-9.1,19.31c9.16-4.3,16.01-13.2,17.82-23.15c0.32-1.75,0.48-3.59-0.11-5.26c-0.59-1.67-2.1-3.13-3.88-3.16"
			/>
		<path class="st38" d="M205.48,274.72c-2.06,0.53-3.6,2.34-4.39,4.32c-0.79,1.98-0.96,4.14-1.17,6.26s-0.49,4.29-1.46,6.18
			c1.46-1.65,3.92-1.81,6.12-2.02c2.19-0.22,4.71-0.86,5.59-2.88c-1.72,1.07-4.31,0.24-5.1-1.63c-0.26-0.62-0.34-1.3-0.59-1.92
			c-0.25-0.62-0.77-1.21-1.44-1.25c-0.05-0.98-0.09-1.96-0.14-2.94c-0.02-0.41-0.04-0.84,0.12-1.21c0.29-0.68,1.04-1,1.64-1.43
			s1.12-1.25,0.71-1.86"/>
		<path class="st39" d="M242.48,230.1c-1.61,2.9-5.4,3.71-7.87,5.93c-2.74,2.45-3.58,6.77-1.97,10.07c0.9,1.84,2.46,3.36,3.05,5.32
			c0.47-3.32,0.95-6.68,0.66-10.02c-0.09-1.08-0.24-2.25,0.33-3.17c0.44-0.69,1.2-1.08,1.88-1.54c2.26-1.5,3.83-4,4.2-6.69"/>
		<path class="st40" d="M228.62,265.6c0.45,0.46,0.9,0.91,1.35,1.37c-0.78,1.8-1.57,3.63-1.84,5.57s0.04,4.06,1.27,5.59
			c1.32,1.64,3.45,2.36,5.51,2.81c3.93,0.85,8.01,0.96,11.98,0.32c-3.56-4.4-7.23-8.9-12.08-11.83c-2.41-1.46-5.14-2.56-6.91-4.74"
			/>
		<path class="st41" d="M212.76,263.62c5.19-1.71,10.68-2.53,16.15-2.39c-0.89,0.7-2.04,0.96-3.15,1.19
			c-3.32,0.69-6.63,1.38-9.95,2.07c-1.68,0.35-3.36,0.7-5.03,1.05"/>
		<path class="st42" d="M213.16,266.49c5.42-0.05,10.82-1.11,15.86-3.11c-2.03-1.1-4.52-0.69-6.78-0.22
			c-3.92,0.81-7.82,1.72-11.69,2.71c0.87,0.61,1.95,0.9,3.01,0.83"/>
		<path class="st43" d="M222.26,249.53c-11.12,13.4-18,30.26-19.44,47.61"/>
		<path class="st35" d="M196.76,237.8c-0.31,2.36,0.96,4.65,2.49,6.47c1.53,1.82,3.38,3.4,4.61,5.44s1.72,4.78,0.38,6.75"/>
		<path class="st35" d="M203.93,249.71c0.98,1.4,2.41,2.49,4.02,3.07c0.7,0.25,1.46,0.42,2.01,0.93c0.69,0.63,0.89,1.66,0.75,2.58
			c-0.15,0.92-0.59,1.76-1.03,2.59c-0.04-0.07-0.08-0.14-0.11-0.21"/>
		<path class="st44" d="M160.33,287.36c-0.55-0.13-1.11-0.26-1.66-0.39c-1.42,4.03-0.75,8.44-0.9,12.71
			c-0.08,2.13-0.37,4.27-0.04,6.37c0.34,2.2,1.37,4.29,2.91,5.9c1.01-2.48,0.95-5.25,0.89-7.92c-0.09-3.65-0.19-7.29-0.28-10.94
			c-0.06-2.23-0.21-4.69-1.77-6.28"/>
		<path class="st45" d="M210.78,257.14c-3.37,1.44-4.68,5.41-6.14,8.77c-2.3,5.29-5.85,10.04-10.28,13.74
			c5.79-1.19,10.19-5.76,14.21-10.1c1.73-1.87,3.5-3.82,4.27-6.24c0.77-2.42,0.23-5.46-1.93-6.82"/>
		<path class="st46" d="M204.31,256.18c-8.1,9.03-16.6,17.7-25.46,25.97c3.84-0.07,6.59-3.5,9.51-5.99
			c3.02-2.58,6.65-4.34,10.02-6.43c3.38-2.1,6.65-4.69,8.33-8.29c0.56-1.2,0.94-2.53,0.75-3.84s-1.02-2.58-2.27-3.01"/>
		<path class="st11" d="M143.27,149.11c-9.72-3.06-15.43-0.77-15.78,1.25c-0.66,3.82-0.64,6.8-1.24,10.63
			c-1.42,8.94-2.83,17.87-4.25,26.81c-1.43,9.05-2.82,18.63,0.6,27.14c2.07,5.15,5.78,9.56,7.46,14.85
			c3.27,10.33-1.85,21.19-5.61,31.36c-4.88,13.19-7.57,27.06-10.25,40.86c-0.69,3.59-1.39,7.25-0.85,10.87
			c0.54,3.61,2.56,7.22,5.92,8.65c5.13,2.18,11.01-1.46,14.21-6.02c4.8-6.84,5.98-15.59,5.85-23.95c-0.13-8.35-1.43-16.69-1-25.03
			c0.76-14.49,6.68-28.12,11.82-41.69c1.41-3.73,2.79-7.76,1.86-11.64c-1.42-5.93-7.59-9.36-10.76-14.58
			c-3.82-6.29-2.84-14.26-1.73-21.53c1.44-9.43,2.88-18.86,4.32-28.29"/>
		<path class="st47" d="M183.98,164.84c-1.99,2.27-3.71,4.78-5.12,7.46c1.69,0.81,3.73,0.4,5.41-0.41c1.69-0.81,3.17-2,4.85-2.82
			c5-2.45,11.31-1.28,15.73,2.1c4.43,3.38,7.12,8.67,8.3,14.11c1.18,5.45,1.36,11.72,0.45,16.65c-0.14,0.74-4.41,8.3-4.16,9.01
			c0.26,0.71,5.22-5.44,5.97-5.53c0.52-0.06,0.95-0.43,1.34-0.79c3.13-2.85,6.26-5.71,9.39-8.56c4.48-4.09,9.13-8.41,11.23-14.1
			c2.05-5.54,1.42-11.7,0.18-17.48c-3.33-15.57-10.91-30.21-21.71-41.91c-0.75-0.81-1.54-1.63-2.55-2.08
			c-1.01-0.45-2.29-0.46-3.13,0.26c-1.26,1.09-0.92,3.08-1.06,4.74c-0.24,2.84-2.15,5.22-3.94,7.44
			c-8.15,10.15-15.31,21.08-21.37,32.6"/>
		<path class="st48" d="M128.92,282.63c0.62-2.1,0.09-4.39-0.89-6.34s-2.4-3.65-3.69-5.41c-4.82-6.58-8.04-14.31-9.31-22.37
			c-0.68-4.3-0.74-8.97,1.5-12.7c1.46-2.44,3.76-4.24,6.01-5.98c5.59-4.33,11.19-8.67,16.78-13c5.67-4.39,11.43-8.84,18.11-11.44
			c-2.44-6.36-1.72-13.85,2.06-19.19c8.35-8.78,18.57-15.79,29.77-20.4c4.93-2.03,10.55-3.6,15.51-1.63
			c4.68,1.86,7.66,6.43,9.99,10.9c2.85,5.47,5.25,11.53,4.51,17.66c-0.72,6.02-4.35,11.23-7.87,16.17
			c-3.51,4.92-7.15,9.98-12.3,13.15c-6.22,3.83-14.85,5.21-17.89,11.86c-0.85,1.86-1.28,4.16-3.06,5.18
			c-2.35,1.35-5.15-0.48-7.67-1.49c-5.81-2.33-12.76,0.09-17.07,4.63s-6.37,10.79-7.31,16.98c-0.98,6.43-0.67,13.67,3.66,18.53
			c1.59,1.79,3.81,3.52,3.69,5.92c-0.08,1.53-1.13,2.81-2.13,3.96c-2.59,2.99-5.18,5.98-7.77,8.97
			c-8.25-0.43-15.28-8.58-14.49-16.81"/>
		<path class="st49" d="M255.62,184.71c0.66,2.14,1.02,4.37,1.04,6.6c3.61-2.83,5.6-7.59,5.08-12.15c-0.06-0.48-0.19-1.04-0.63-1.24
			c-0.47-0.22-1.01,0.09-1.42,0.41c-2.17,1.69-3.77,4.11-4.46,6.77"/>
		<path class="st50" d="M248.72,164.56c-0.85,0.34-1.7,0.67-2.55,1.01c-0.25,2.3,0.76,4.59,2.19,6.41c1.43,1.82,3.26,3.28,4.98,4.84
			c5.85,5.31,10.45,11.98,13.34,19.34c0.66-5.67-0.6-11.43-2.75-16.72c-2.15-5.29-5.15-10.17-8.15-15.03
			c-0.65-1.06-1.39-2.18-2.56-2.6c-2.09-0.75-4.14,1.11-5.59,2.8"/>
		<path class="st51" d="M237.1,146.98c-2.12,0.76-4.24,2.09-4.99,4.21c-0.92,2.62,0.54,5.43,2.11,7.72c1.57,2.29,3.37,4.73,3.2,7.5
			c1.25-3.11,0.38-6.62-0.46-9.86c-0.85-3.24-1.63-6.8-0.23-9.85"/>
		<path class="st52" d="M144.29,146.62c-1.89,12.46-3.78,24.93-5.67,37.39c2.05-0.18,4.12-0.37,6.06-1.03s3.78-1.87,4.79-3.66
			c0.83-1.46,1.04-3.18,1.24-4.86c0.98-8.29,1.97-16.58,2.95-24.87c0.15-1.25,0.27-2.62-0.46-3.65c-0.8-1.13-2.32-1.43-3.69-1.57
			c-1.08-0.11-2.56-0.18-3.59,0.17c-1.03,0.36-1.59,1.24-1.67,2.33"/>
		<path class="st53" d="M129.95,282.69c1.63,1.16,2.59,3.2,2.43,5.19c-2.42-0.29-4.4-2.63-4.29-5.06
			c-1.88,5.29-3.76,10.58-5.65,15.87c3.65,0.93,7.31,1.85,10.96,2.78c1.72,0.43,3.73,0.81,5.09-0.32c1.34-1.11,1.38-3.11,1.3-4.85
			c-0.1-2.24-0.2-4.53-1.08-6.59c-1.21-2.84-3.88-5.32-3.54-8.39c-1.74,0.29-3.47,0.59-5.21,0.88"/>
		<path class="st54" d="M124.23,249.98c-3.22-1.39-6.46-2.8-9.88-3.58c-1.56-0.36-3.14-0.58-4.69-0.99
			c-2.38-0.63-4.72-1.71-6.79-1.44c-0.83,1.61-1.29,3.4-1.34,5.21c-0.02-0.01-0.04-0.01-0.07-0.02"/>
		<path class="st54" d="M106.22,244.56c-1.56,1.44-2.82,3.21-3.68,5.16"/>
		<path class="st54" d="M117.46,246.97c0.05-0.43,0.11-0.86,0.16-1.3c0.39-0.5,1.11-0.64,1.72-0.49c0.61,0.15,1.14,0.54,1.62,0.95"
			/>
		<path class="st55" d="M127.53,280.02c0.5-1.55,2.73-1.86,4.14-1.04c1.41,0.82,2.24,2.34,3.17,3.68c3.52,5.1,9.42,8.49,15.6,8.95
			c-1.33-1.99-2.66-3.97-4-5.96c-1.69-2.52-3.46-5.12-6.03-6.74c-2.57-1.62-6.18-2-8.52-0.07"/>
		<path class="st56" d="M110.63,305.03c-0.93-5.23-1.86-10.53-1.48-15.83c0.32-4.43,1.54-8.73,2.32-13.1
			c0.78-4.32,1.13-8.71,1.21-13.1c0.03-1.69,0.09-3.57,1.27-4.79c-0.25,0.33-0.49,0.66-0.74,0.99c-0.95-0.71-0.5-2.23-0.94-3.33
			c-0.46-1.14-1.87-1.66-3.09-1.49c-1.22,0.17-2.29,0.87-3.32,1.55"/>
		<path class="st56" d="M112.89,260.81c-0.41-0.52-0.83-1.03-1.24-1.55"/>
		<path class="st56" d="M112.41,263.32c-1.45,1.17-2.58,2.8-3.21,4.63"/>
		<path class="st57" d="M106.61,305.64c1.07-4.35,2.14-8.76,1.69-13.17s-2.6-8.9-7.02-11.78"/>
		<path class="st56" d="M108.09,290.71c-0.33-3.07,0.15-6.23,1.38-9.07"/>
		<path class="st58" d="M118.2,248.13c-1.69,0.89-2.1,3.13-1.99,5.04s0.54,3.91-0.2,5.68c2.37-0.16,3.88,2.75,6.22,3.18
			c1.89,0.35,3.64-1.01,5.08-2.28c1.24-1.1,2.61-2.55,2.24-4.16c-0.24-1.04-1.14-1.77-1.99-2.41c-1.46-1.11-2.92-2.23-4.38-3.34
			c-0.8-0.61-1.63-1.24-2.58-1.56c-0.96-0.33-2.09-0.31-2.9,0.29"/>
		<path class="st59" d="M122.18,259.44c-1.22,7.2,0.12,14.58,1.82,21.68s3.8,14.19,4.11,21.49c0.18,4.37-0.22,9.01,1.91,12.83
			c-4.8-3.12-6.73-9.08-8.32-14.58c-1.4-4.83-2.81-9.73-2.87-14.76c-0.04-3.32,0.52-6.67,0.04-9.96c-0.49-3.37-2.04-6.62-1.78-10.01
			c0.23-3.04,2.03-5.92,4.66-7.46"/>
		<path class="st60" d="M136.15,265.01c-1.6,0.15-2.78,1.73-2.96,3.33s0.43,3.18,1.16,4.61c3.64,7.13,10.88,12.29,18.81,13.43
			c0.79-1.84,0.95-3.89,0.81-5.88c-0.24-3.43-1.34-6.74-2.43-10.01c-0.72-2.15-1.52-4.43-3.31-5.82c-1.69-1.32-4-1.6-6.11-1.25
			s-4.07,1.28-6.01,2.19"/>
		<path class="st61" d="M165.96,259.35c-0.2-4.32,2.64-8.17,5.66-11.27c3.03-3.09,6.49-6,8.14-10c-2.25,8.44-7.53,16.04-14.66,21.1"
			/>
		<path class="st62" d="M175.14,240.24c-1.89-1.4-4.16-2.88-6.43-2.26c-2.48,0.68-3.61,3.46-4.6,5.83
			c-2.08,4.94-5.05,9.51-8.72,13.41c2.64-0.29,5.28-0.58,7.92-0.87c0.57-0.06,1.17-0.13,1.65-0.44c0.77-0.48,1.1-1.42,1.44-2.26
			c1.32-3.25,3.66-6.07,6.61-7.95c1.12-0.72,2.39-1.36,3.02-2.53c0.64-1.17,0.15-3.03-1.17-3.16"/>
		<path class="st63" d="M130.44,243.76c-0.41-0.76-0.03-1.75,0.61-2.32s1.49-0.85,2.3-1.16c2.73-1.06,5.23-2.74,7.23-4.87
			c-2.36,3.86-6.04,6.9-10.29,8.47"/>
		<path class="st64" d="M119.16,245.49c1.68,1.33,2.77,3.25,3.75,5.16c3.19,6.25,5.59,12.88,8.85,19.09
			c3.26,6.21,7.54,12.12,13.52,15.8c-5.95-5.12-10.29-12.09-12.23-19.7c-0.77-3-1.17-6.08-1.96-9.08s-1.99-5.96-4.1-8.23
			c-2.11-2.26-5.26-3.72-8.32-3.21"/>
		<path class="st65" d="M157.81,226.16c1.15-0.95,2.72-1.37,5.11-0.51c-0.59,0-1.06,0.52-1.29,1.07c-0.23,0.55-0.3,1.16-0.57,1.69
			s-0.84,0.99-1.41,0.85l-1.95-19.6"/>
		<path class="st65" d="M169.97,235.31c1.17,0.47,2.24,1.18,3.14,2.08l-2.69-2.71"/>
		<path class="st66" d="M165.78,144.03c-12.04,21.56-20.98,32.07-35.61,46.67c0.29-1.87,0.55-3.89-0.36-5.55
			c-0.9-1.66-3.5-2.47-4.7-1.01c-1.87,2.27,1.87,5.58,1,8.39c-0.51,1.64-2.35,2.37-3.88,3.15c-4.86,2.45-8.36,7.42-9.03,12.82
			c0.77-0.18,1.55-0.36,2.32-0.53c-1.25,0.69-2.6,1.49-3.08,2.83c-0.49,1.34,0.57,3.22,1.96,2.9c0.68-0.16,1.15-0.75,1.57-1.3
			c1.28-1.7,2.57-3.4,3.85-5.09c-0.2,1.33-1.39,2.23-2.31,3.21c-0.91,0.98-1.6,2.58-0.73,3.6c1,1.17,3.01,0.35,3.84-0.93
			s1.09-2.9,2.05-4.1c1.33-1.65,3.67-2.09,5.79-2.03c2.12,0.06,4.26,0.49,6.35,0.09c2.53-0.49,4.66-2.14,6.63-3.81
			c4.41-3.75,8.52-7.84,12.28-12.24c3.01-3.52,5.84-7.27,9.51-10.1c3.35-2.59,7.28-4.31,10.84-6.61
			c7.07-4.55,12.52-11.21,17.24-18.16c3.31-4.87,6.32-12.07,9.16-17.4c-7.1,5.68-16.57,8.49-25.37,6.22
			c-3.23-0.84-7.06-2.21-10.12-0.87"/>
		<path class="st65" d="M172.34,236.24c-0.41-0.78-0.81-1.57-1.22-2.35c0,0-1.66-4.01-1.66-4.01c0.34,2.1,1.26,4.11,2.62,5.75"/>
		<path class="st67" d="M191.55,233.1c0.69-0.24,0.92-1.2,0.55-1.83c-0.37-0.63-1.15-0.92-1.88-0.91c-0.73,0.02-1.42,0.29-2.1,0.55
			c-5.96,2.34-11.92,4.69-17.89,7.03c3.68,0.26,7.35,0.51,11.03,0.77c2.26,0.16,4.62,0.3,6.72-0.57c2.09-0.87,3.82-3.09,3.34-5.3"/>
		<path class="st68" d="M192.19,233.13c2.61,1.56,4.38,4.45,4.58,7.48c-1.19-1.96-4.18-1.98-6.14-0.78s-3.21,3.24-4.69,4.99
			c-3.98,4.71-10.04,7.6-16.2,7.73c3.93,1.51,8.15,2.14,12.35,2.34c2.36,0.11,4.74,0.1,7.04-0.46c1.79-0.43,3.49-1.19,5.17-1.93
			c1.55-0.69,3.11-1.38,4.51-2.02c1.07-1.08,1.84-2.5,1.97-4.02c0.23-2.56-1.57-5.15-4.04-5.83"/>
		<path class="st69" d="M191.21,236.39c0.71-0.18,1.45,0.21,1.99,0.71c0.54,0.5,0.96,1.13,1.54,1.58c0.58,0.45,1.42,0.7,1.59,0.37
			c-0.73-0.74-1.45-1.48-2.18-2.22c-0.95-0.97-1.92-1.95-2.68-3.07"/>
		<path class="st69" d="M188.75,230.24c1.47-1.94,3.86-3.17,6.3-3.22"/>
		<path class="st69" d="M190.07,229.37c2.11-0.54,4.29-0.81,6.46-0.81"/>
		<path class="st70" d="M193.03,226.87c-0.04-2.03,0.96-4.06,2.6-5.26c1.64-1.2,3.87-1.54,5.8-0.89c0.62,0.21,1.3,0.51,1.88,0.23
			c0.36-0.17,0.58-0.53,0.79-0.87c0.63-1.03,1.26-2.06,1.89-3.1c0.28,3.16-0.56,6.42-2.33,9.05c-0.81,1.2-1.92,2.35-3.36,2.57
			c-0.99,0.15-2.05-0.16-3,0.16c-0.73,0.24-1.33,0.83-2.09,0.93c-0.75,0.09-1.49-0.33-1.97-0.91c-0.48-0.58-0.75-1.31-1.01-2.01"/>
		<path class="st71" d="M192.06,231.46c2.17-2.58,6.23-3.33,9.18-1.69c2.95,1.64,4.45,5.49,3.4,8.69c-0.2-1.05-1.11-1.83-2.08-2.25
			c-0.98-0.42-2.05-0.58-3.06-0.9c-1.57-0.5-2.98-1.39-4.51-2c-1.53-0.61-3.31-0.91-4.47-0.49c0.47-0.52,0.94-1.04,1.42-1.56"/>
		<path class="st72" d="M130.06,254.16c5.07,1.42,9.5,4.62,13.14,8.42c3.64,3.81,6.56,8.23,9.46,12.62
			c7.85,11.88,15.88,24.23,18.15,38.28"/>
		<path class="st72" d="M165.08,296.97c-0.33-1.22,0.32-2.54,1.29-3.34c0.97-0.8,2.22-1.19,3.44-1.5c1.22-0.31,2.48-0.58,3.58-1.21"
			/>
		<path class="st72" d="M149.23,269.26c-0.42-0.83-0.23-1.87,0.25-2.67c0.48-0.8,1.21-1.42,1.92-2.02"/>
		<path class="st72" d="M170.09,310.68c-3.03-2.31-6.54-4-10.23-4.93c-6.82-2.15-13.99-3.47-21.13-2.99
			c-7.14,0.49-14.27,2.88-19.32,6.6c-2.05,1.19-4.1,2.37-6.14,3.56"/>
		<path class="st72" d="M118.23,309.96c0.34,0.83,0.69,1.66,1.03,2.49c-0.34,0.64-0.68,1.28-1.02,1.92"/>
		<path class="st72" d="M134.73,303.91c-1.11,1.57-1.52,3.63-0.66,4.9c-1.81,0.93-3.22,2.63-3.78,4.59"/>
		<path class="st72" d="M133.6,308.76c1.68-0.23,3.19-1.2,4.37-2.42c1.18-1.22,2.08-2.68,2.96-4.12"/>
		<path class="st73" d="M204.76,289.46c-0.77,0.05-1.43,0.62-1.8,1.3s-0.5,1.46-0.62,2.22c-0.88,5.35-1.76,10.69-2.64,16.04
			c0.6-0.03,1.19-0.05,1.79-0.08c1.12-6.39,2.25-12.77,3.37-19.16"/>
		<path class="st74" d="M180.63,224.59c0.92-1.2,2.04-2.25,3.3-3.08c0.43,1.3,0.7,2.67,0.78,4.04c-1.36-0.63-2.84-0.96-4.34-0.99"/>
		<path class="st75" d="M169.68,233.74c0.9,0.68,2.05,1.03,3.18,0.98c0.57,0.38,1.15,0.77,1.72,1.15"/>
		<path class="st76" d="M165.65,257.9c-1.6-1.18-3.95-0.44-5.45,0.87c-1.5,1.31-2.53,3.09-4.06,4.36c-1.32,1.11-2.97,1.81-4.22,3.01
			c-1.25,1.2-2,3.24-1,4.65c3.62-0.88,6.98-2.79,9.58-5.45c1.15-1.17,2.14-2.48,3.13-3.79c0.91-1.2,1.83-2.41,2.43-3.79"/>
		<path class="st77" d="M150.76,261.86c-0.92,1.07-0.13,2.84,1.09,3.54c1.22,0.7,2.71,0.73,4.08,1.04c5.58,1.26,9.29,7.1,14.91,8.17
			c-5.22-4.17-10.64-8.09-16.24-11.74c-0.73-0.48-1.5-0.96-2.37-1.07c-0.87-0.11-1.86,0.27-2.18,1.09"/>
		<path class="st78" d="M139.39,199.03"/>
		<path class="st78" d="M143.49,195.49c0.19-0.15,0.37-0.31,0.56-0.46"/>
		<path class="st79" d="M199.15,102.15c-0.15-0.25,0.2-0.56,0.48-0.5s0.47,0.33,0.63,0.58c3.06,4.7,6.12,9.41,8.76,14.37
			c0.45,0.84,0.9,1.73,0.92,2.69c0.01,0.33-0.05,0.69-0.3,0.91c-0.25,0.22-0.64,0.22-0.95,0.08c-0.31-0.13-0.55-0.38-0.78-0.63
			c-1.28-1.39-2.33-2.99-3.37-4.57c-1.33-2.03-2.67-4.08-3.68-6.29c-1.01-2.21-1.68-4.62-1.61-7.05"/>
		<path class="st48" d="M210.14,119.85c0.82,3.2-0.19,6.6-1.66,9.55c-3.28,6.58-8.96,11.93-15.72,14.8s-14.55,3.26-21.57,1.05
			c-2.06-0.65-4.46-1.46-6.22-0.22c-2.88-2.65-5.54-5.38-7.67-8.51c-2.13-3.13-3.72-6.72-3.97-10.5c-0.26-3.84,0.86-7.62,1.85-11.33
			c1.26-4.71,2.36-9.49,4.34-13.94c1.98-4.45,4.95-8.62,9.15-11.1c4.2-2.48,9.75-2.99,14.39-0.23c3.79-1.23,7.87-2.04,11.76-1.16
			c3.89,0.88,7.53,3.78,8.27,7.69"/>
		<path class="st80" d="M169.31,109.39c-1.77-0.43-3.7,0.28-5,1.56c-1.3,1.27-2.04,3.04-2.37,4.83c-0.54,2.9-0.13,6.04-1.46,8.66
			c-0.44,0.87-1.08,1.7-1.11,2.67c-0.05,1.43,0.13,1.67,0.56,3.03c0.16,0.49,1.28,1.91,1.54,2.36c0.37,0.64,1.09,1,1.8,1.18
			c1.22,0.3,2.54,0.17,3.71-0.34c0.82,0.36,1.65,0.72,2.52,0.87c0.88,0.15,1.83,0.07,2.59-0.4c0.62-0.38,1.06-1,1.38-1.65
			c0.42-0.84,0.66-1.78,0.7-2.72c0.08-1.71-0.48-3.43-0.21-5.12c0.19-1.21,0.79-2.32,1.19-3.48c0.82-2.37,0.75-5.08-0.4-7.31
			c-1.15-2.23-3.43-3.9-5.93-4.08"/>
		<path class="st81" d="M157.66,113.06c0-0.27,0-0.55,0.09-0.8s0.32-0.48,0.59-0.5c0.36-0.02,0.64,0.3,0.85,0.6
			c0.34,0.47,0.68,0.95,1.02,1.42c0.15,0.2,0.3,0.42,0.33,0.66c0.04,0.34-0.15,0.66-0.34,0.95c-0.27,0.42-0.56,0.85-0.98,1.13
			c-0.42,0.27-1.01,0.35-1.41,0.03c-0.37-0.3-0.45-0.84-0.37-1.3c0.08-0.47,0.28-0.91,0.36-1.38c0.08-0.47,0.02-1.01-0.34-1.32"/>
		<path class="st82" d="M182.94,116.47c0.66-0.38,1.17-0.95,1.69-1.5c0.52-0.55,1.07-1.1,1.76-1.41s1.55-0.35,2.16,0.1
			c0.44,0.32,0.68,0.84,0.96,1.3c0.28,0.47,0.67,0.93,1.2,1.03c-0.44,0.55-0.89,1.11-1.45,1.55c-0.55,0.44-1.23,0.76-1.94,0.77
			c-0.83,0.01-1.59-0.41-2.31-0.82c-0.67-0.38-1.34-0.75-2.01-1.13"/>
		<path class="st83" d="M209.19,96.54c0.22,0.12,0.37,0.33,0.55,0.51s0.42,0.33,0.66,0.27c0.31-0.08,0.42-0.45,0.49-0.76
			c-0.47-0.13-0.95-0.25-1.42-0.38"/>
		<path class="st84" d="M202.33,100.57c1.81,1.24,3.42,2.79,4.7,4.6c0.09,0.2,0.18,0.4,0.27,0.6"/>
		<path class="st85" d="M226.29,172.6c-0.8-2.87-3.48-4.87-6.29-5.88s-5.83-1.23-8.74-1.87c-4.31-0.95-8.42-2.83-12.81-3.24
			c-2.77-0.26-5.63,0.06-8.28-0.78c2.73,1.84,5.48,3.69,8.51,4.98c2.12,0.9,4.35,1.52,6.45,2.47c2.34,1.06,4.48,2.5,6.76,3.67
			c3.01,1.54,6.24,2.58,9.46,3.61c0.85,0.27,1.77,0.55,2.62,0.26c1.28-0.43,1.83-1.91,2.21-3.2"/>
		<path class="st85" d="M214.4,130.46c0.87,9.47,2.11,18.9,3.73,28.26"/>
		<path class="st86" d="M221.17,175.67c0.44,2.9,1.26,5.73,1.68,8.63c0.42,2.9,0.43,5.95-0.7,8.66"/>
		<path class="st86" d="M214.47,130.81c0.54,9.45,1.86,18.85,3.92,28.09"/>
		<path class="st86" d="M234.53,153.84c-4.03,10.5-7.73,21.13-11.1,31.86"/>
		<path class="st86" d="M232.07,167.23c-1.06,0.8-2.13,1.6-3.75,2.49c0-0.97-0.84-1.86-1.81-1.91"/>
		<path class="st86" d="M226.13,173.28c1.9,0.97,3.27,2.92,3.25,5.09c-0.8,3.24-2.15,6.34-3.99,9.13"/>
		<path class="st86" d="M220.96,182.04c0.22,1.51,1.03,2.93,2.23,3.88c0.79,0.62,1.82,1.2,1.91,2.2"/>
		<path class="st87" d="M225.25,187.57c-1.09,1.49-1.91,3.18-2.41,4.96"/>
		<path class="st86" d="M229.37,180.1c3.3-5.74,7.79-10.79,13.12-14.73c2.94-2.17,6.72-3.2,9.3-5.78
			c6.11-6.14,23.21-9.66,28.75-11.3"/>
		<path class="st86" d="M254.88,134.89c-3.23,4.82-5.08,10.41-7.15,15.83s-4.49,10.88-8.46,14.88c0.08,0.39,0.17,0.77,0.25,1.16
			c3.65-3.17,7.46-6.56,8.97-11.15"/>
		<path class="st86" d="M245.95,155.34c0.34-0.43,0.93-0.58,1.48-0.59c0.55-0.01,1.1,0.08,1.65-0.01c0.54-0.09,1.1-0.44,1.23-0.91
			c0.96-1.09,2.03-2.09,3.19-2.97"/>
		<path class="st86" d="M248.92,155.02c1.13,0.3,2.38,0.15,3.83-0.2c1.33,0.4,2.67,0.8,4,1.19"/>
		<path class="st87" d="M244.3,163.47c1.58-0.77,3.68-0.21,4.67,1.24"/>
		<path class="st86" d="M249.84,131.68c-6.31,6.64-11.55,14.3-15.46,22.59"/>
		<path class="st86" d="M244.2,123.26c-4.41,8.66-7.16,18.17-8.05,27.85"/>
		<path class="st86" d="M239.25,131.3c-1.32,4.3-2.07,8.77-2.22,13.26"/>
		<path class="st86" d="M245.43,114.31c0.26,1.6,0.25,3.25,0.45,4.68c1.54-1.64,2.85-3.5,3.86-5.51"/>
		<path class="st87" d="M246.11,118.8c-0.63,0.6-1.52,0.93-2.38,0.87"/>
		<path class="st86" d="M245.54,119.42c-0.42,0.98-0.83,1.95-1.45,2.54c1.37-0.46,2.39-1.6,3.52-2.51c1.13-0.91,2.64-1.65,3.86-1.08
			c0.17-1.48,1.4-2.58,2.56-3.5c1.17-0.92,2.44-1.94,2.75-3.39"/>
		<path class="st87" d="M250.77,118.92c0.35,0.41,0.81,0.73,1.32,0.92c0.08-0.11,0.16-0.21,0.23-0.32"/>
		<path class="st88" d="M227.47,167.97c-1.73,0.5-3.51,1.01-5.3,0.81c-2.17-0.24-4.08-1.46-6.08-2.34c-2.53-1.1-5.3-1.66-8.06-1.61
			c-2.7,0.04-5.36,0.65-8.05,0.88s-5.55,0.02-7.84-1.4c5.04-0.26,9.56-3.05,14.43-4.38c3.15-0.86,6.43-1.1,9.69-1.06
			c1.95,0.02,3.93,0.15,5.79,0.74c1.86,0.59,3.62,1.68,4.7,3.31c1.08,1.63,1.38,3.83,0.48,5.57"/>
		<path class="st89" d="M209.1,164.39c0.28,2.27-0.1,4.56-0.14,6.84c-0.05,2.28,0.31,4.72,1.81,6.45c1.19,1.37,2.94,2.11,4.66,2.68
			c1.72,0.57,3.51,1.04,5.03,2.03c0.12-3.29-2.29-6.5-5.48-7.31c-0.59-0.15-1.2-0.22-1.77-0.43s-1.12-0.57-1.37-1.12
			c-0.27-0.61-0.14-1.31-0.08-1.97c0.29-2.95-0.91-6.01-3.13-7.97"/>
		<path class="st86" d="M224.55,187.93c4.96-18.02,13.71-34.98,25.52-49.46c5.08-6.23,10.75-12.05,14.84-18.97"/>
		<path class="st90" d="M234.83,164.15c-0.32-0.49-0.85-0.82-1.42-1c-0.56-0.18-1.16-0.21-1.75-0.23c-2.1-0.05-4.2,0.2-6.28,0.45
			c-2.26,0.27-4.53,0.54-6.75,1.03c4.53,0.72,9.23-0.22,13.71,0.77c0.52,0.11,1.05,0.26,1.57,0.14s1-0.59,0.92-1.11"/>
		<path class="st91" d="M231.87,165.56c0.42,0.95,1.24,1.69,2.14,2.22c0.9,0.53,1.89,0.89,2.85,1.3c2.59,1.11,5.01,2.64,7.12,4.5
			c-0.79-1.76-2.33-3.06-3.83-4.28c-1.36-1.11-2.73-2.22-4.09-3.33c-0.74-0.6-1.48-1.2-2.28-1.72c-0.51-0.33-1.13-0.63-1.7-0.42
			c-0.43,0.15-0.73,0.6-0.7,1.06s0.36,0.87,0.8,0.99"/>
		<path class="st92" d="M236.06,140.08c-1.51-0.38-2.89,0.83-4.06,1.86c-4.97,4.37-11.45,6.98-18.06,7.27
			c6.45-4.32,12.89-8.64,19.34-12.97c0.6-0.4,1.32-0.83,2.01-0.6c0.67,0.22,1.01,1,0.97,1.69s-0.39,1.34-1.18,1.96
			c0.27,0.28,0.53,0.56,0.8,0.84"/>
		<path class="st93" d="M236.28,145.52c-0.48,1.4-2.35,1.86-3.76,1.41c-1.42-0.45-2.54-1.5-3.77-2.33c-1.25-0.83-2.65-1.46-3.73-2.5
			c-1.67-1.62-2.33-4.22-1.62-6.44c0.25-0.78,0.65-1.52,0.82-2.32c0.17-0.8,0.07-1.74-0.54-2.29c2,0.95,4,1.89,6.01,2.84
			c1.74,0.82,3.53,1.68,4.78,3.15c1.28,1.5,1.85,3.48,2.13,5.54c-0.04,0.98-0.08,1.97-0.12,2.95"/>
		<path class="st94" d="M233.93,147.78c-0.33,1.2-1.4,2.09-2.58,2.51c-1.17,0.43-2.44,0.46-3.69,0.49
			c-2.83,0.06-5.66,0.08-8.48,0.09c-3.35,0.02-6.79,0.02-9.92-1.18c1.94-1.56,4.51-2.29,7.14-2.06c4.76,1.13,9.52-1.91,14.41-2.08
			c0.77-0.03,1.59,0.03,2.23,0.46c0.64,0.43,1.03,1.33,0.65,2.01"/>
		<path class="st95" d="M245.52,119.08c-3.07,0.68-4.48,4.71-7.55,5.39c-0.6,0.13-1.32,0.17-1.68,0.67
			c-0.18,0.25-0.23,0.58-0.25,0.89c-0.08,1.04,0.1,2.15,0.72,2.98c0.63,0.83,1.79,1.31,2.77,0.94c0.73-0.28,1.23-0.96,1.53-1.69
			c0.3-0.72,0.42-1.5,0.65-2.25c0.56-1.87,1.7-3.5,2.82-5.09c0.5-0.7,0.99-1.41,1.49-2.11"/>
		<path class="st96" d="M244.89,119.71c-0.62,0.68-1.24,1.36-1.86,2.03c-0.87,0.95-1.76,1.92-2.87,2.58s-2.48,1-3.7,0.59"/>
		<path class="st97" d="M244.46,118.6c0.28-0.25,0.33-0.69,0.2-1.05c-0.13-0.35-0.4-0.64-0.67-0.9c-1.27-1.24-2.74-2.29-3.75-3.74
			c-0.46-0.67-0.82-1.4-1.28-2.07c-0.66-0.96-1.52-1.75-2.25-2.66c-1.59-1.99-2.49-4.43-3.36-6.82c0.17,2.37,1.35,4.54,2.63,6.55
			c1.28,2.01,2.69,3.97,3.41,6.24c0.39,1.22,0.57,2.49,0.99,3.7c0.42,1.21,1.14,2.38,2.28,2.96"/>
		<path class="st98" d="M245.22,114.01c0.42,0.28,0.84,0.56,1.33,0.68c0.49,0.12,1.05,0.04,1.4-0.32c0.35-0.37,0.4-0.95,0.24-1.43
			s-0.48-0.89-0.81-1.28c-1.56-1.87-3.28-3.61-4.99-5.34c-2.5-2.53-5-5.05-7.66-7.41c-1.7-1.51-3.57-3-5.8-3.46
			c2.5,1.32,4.53,3.37,6.39,5.51c1.85,2.14,3.57,4.4,5.65,6.32c0.83,0.77,1.71,1.48,2.38,2.39c0.54,0.74,0.91,1.58,1.28,2.42
			c0.38,0.87,0.76,1.74,1.15,2.61c0.35-0.1,0.7-0.21,1.05-0.31c0.26,0.24,0.66,0.33,1,0.22"/>
		<path class="st99" d="M252.9,119.61c-1.03,0.25-1.63,1.37-1.73,2.43c-0.1,1.06,0.17,2.11,0.22,3.17c0.1,2.16-0.7,4.26-1.5,6.27
			c0.78-2.05,1.6-4.16,3.12-5.74c1.08-1.13,2.48-1.94,3.48-3.14c0.79-0.96,1.31-2.15,1.46-3.38c0.02-0.19,0.03-0.4-0.09-0.54
			c-0.15-0.18-0.43-0.17-0.66-0.14c-1.57,0.2-3.11,0.65-4.55,1.32"/>
		<path class="st100" d="M222.12,185.58c-2.04,0.08-4.07,0.16-6.11,0.25c-0.75,0.03-1.54,0.05-2.19-0.33
			c-0.45-0.26-0.8-0.7-1.3-0.84c-0.46-0.12-0.93,0.04-1.4,0.1c-1.1,0.13-2.24-0.39-2.87-1.29c2.32-0.05,4.63-0.1,6.95-0.16
			c0.97-0.02,1.95-0.04,2.89,0.19c1.41,0.35,2.62,1.25,3.78,2.12"/>
		<path class="st101" d="M223.84,197.16c-1.95,9.06-2.22,18.49-0.77,27.64c1.36-2.62,2.64-5.29,3.79-8.01
			c0.94-2.25,1.79-4.53,2.64-6.81c1.31-3.54,2.63-7.07,3.94-10.61c0.38-1.03,0.77-2.08,0.83-3.18c0.06-1.1-0.26-2.27-1.09-3"/>
		<path class="st40" d="M244.16,193.98c-1.65-0.09-3.23,0.76-4.4,1.93c-1.16,1.17-1.97,2.64-2.77,4.08
			c-2.13,3.89-4.26,7.77-6.39,11.66c-3.15,5.74-6.31,11.5-10.29,16.69c2.96-2.2,5.93-4.42,8.54-7.03c2.28-2.29,4.26-4.86,6.24-7.42
			c3.7-4.8,7.4-9.6,11.1-14.4c1.05-1.37,2.17-3.04,1.66-4.69c-0.44-1.42-2.19-2.26-3.57-1.73c0.09-0.29,0.18-0.58,0.27-0.87
			c-0.19,0.77-0.66,1.47-1.31,1.92"/>
		<path class="st102" d="M88.72,148.84c2.49,1.05,4.71,2.64,7.01,4.07c2.3,1.43,4.76,2.73,7.44,3.09c2.68,0.36,5.64-0.37,7.39-2.43
			c1.25-1.48,1.78-3.49,3.11-4.91c-1.8-1.68-2.59-4.45-4.81-5.5c-0.95-0.45-2.04-0.51-3.08-0.35c-1.04,0.15-2.03,0.51-3.02,0.86
			c-4.86,1.73-9.71,3.46-14.57,5.19c0.55,0.41,1.24,0.64,1.93,0.63"/>
		<path class="st103" d="M98.58,158.05c0.71,2.73,1.48,5.57,3.34,7.69c0.92,1.05,2.06,1.87,3.22,2.65c1.35,0.92,2.75,1.8,4.32,2.26
			c3.26,0.96,6.73-0.06,10.12-0.23c-1.04-2.15,0.09-4.89-0.99-7.01c-0.85-1.66-2.78-2.42-4.57-2.93c-3.89-1.1-7.91-1.67-11.93-2.1
			c-1.55-0.17-3.16-0.33-4.51-1.11c0.47,0.32,0.83,0.78,1.03,1.31"/>
		<path class="st104" d="M114.02,177.08c-2.33,0.11-4.84,0.1-6.78-1.19c-1.37-0.91-2.29-2.35-3.09-3.79
			c-1.01-1.81-1.9-3.68-2.66-5.61c2.34,0.19,4.65,0.86,6.74,1.93c1.12,0.58,2.18,1.28,3.02,2.22c1.5,1.69,2.1,3.98,2.65,6.17"/>
		<path class="st105" d="M115.95,182.6c-0.86,2.6-0.48,5.58,1,7.89c0.69,1.07,1.6,2.01,2.06,3.2c0.07-0.05,0.13-0.1,0.2-0.14
			c1.3-0.57,2.17-2.01,2.08-3.43c-0.1-1.46-1.09-2.69-2.03-3.81c-1.14-1.35-2.27-2.7-3.41-4.06"/>
		<path class="st106" d="M165.42,233.85c-1.67-0.33-2.64-2.01-3.85-3.21c-1.39-1.37-3.31-2.18-5.26-2.22c-1.95-0.04-3.9,0.69-5.35,2
			c-3.2,2.9-3.5,7.92-6.26,11.25c-0.17,0.2-0.36,0.44-0.31,0.7c0.02,0.12,0.1,0.23,0.18,0.33c0.62,0.76,1.57,1.19,2.52,1.47
			c0.95,0.28,1.93,0.43,2.85,0.78c1.06,0.4,2.01,1.06,3.1,1.37c1.53,0.44,3.17,0.18,4.68-0.31c2.18-0.71,4.25-1.94,5.62-3.78
			c1.57-2.12,2.08-4.82,2.55-7.41"/>
		<path class="st107" d="M118.32,193.96c-2.62,1.78-4.46,4.67-4.97,7.8c-0.28,1.73-0.17,3.49-0.07,5.23
			c1.64,0.3,3.26,0.72,4.92,0.89c1.66,0.17,3.38,0.09,4.92-0.55c1.54-0.65,2.87-1.93,3.27-3.55c0.49-1.96-0.39-3.98-1.26-5.81
			c-0.13-0.28-0.27-0.58-0.51-0.79c-0.23-0.21-0.59-0.32-0.87-0.18c0.32-1.38-0.4-2.92-1.64-3.59s-2.9-0.44-3.95,0.52"/>
		<path class="st108" d="M120.21,215.31c-2.13-1.02-4.39-2-6.76-1.93c-2.93,0.08-5.66,1.83-7.36,4.22s-2.44,5.36-2.55,8.3
			c-0.09,2.35,0.2,4.73-0.32,7.03c2.94,1.27,6.52,0.94,9.18-0.85c1.03-0.69,1.92-1.57,2.8-2.45c1.75-1.74,3.5-3.48,5.25-5.22
			c0.86-0.86,1.73-1.72,2.59-2.57c0.74-0.73,1.49-1.49,1.93-2.43c0.44-0.94,0.51-2.13-0.09-2.98c-0.5-0.71-1.39-1.07-2.26-1.13
			c-0.87-0.06-1.73,0.13-2.58,0.33"/>
		<path class="st109" d="M120.97,213.19c0.4,0.37,1.03,0.38,1.55,0.21s0.99-0.48,1.5-0.67c1.88-0.72,4.07,0.24,5.38,1.76
			c1.31,1.52,1.95,3.5,2.55,5.42"/>
		<path class="st110" d="M143.74,206.22c0.81-0.6,1.62-1.21,2.35-1.9c1.58-1.51,2.72-3.4,4.02-5.15c1.3-1.75,2.84-3.44,4.87-4.25
			c0.85-0.34,1.77-0.52,2.52-1.03c0.76-0.5,1.32-1.49,0.96-2.33c-0.13-0.3-0.36-0.55-0.5-0.84s-0.16-0.69,0.08-0.91
			c-1.16,0.24-2.21,0.87-3.11,1.65s-1.64,1.71-2.39,2.63c-2.62,3.24-5.24,6.47-7.87,9.71c-0.59,0.73-1.21,1.56-1.14,2.49
			c0.22-0.19,0.44-0.39,0.65-0.58"/>
		<path class="st111" d="M167.14,222.35c-3.42-5.89-9.75-9.91-12.23-16.26c-2.29,3.52-2.07,8.3-0.1,12.01
			c1.97,3.71,5.48,6.42,9.3,8.17c0.35,0.16,0.75,0.32,1.11,0.2c0.37-0.11,0.61-0.64,0.32-0.9"/>
		<path class="st112" d="M163.39,224.17c0.29-0.46,1.01-0.44,1.43-0.09c0.41,0.35,0.58,0.91,0.67,1.44c0.26,1.45,0.15,2.95,0.41,4.4
			c0.26,1.45,1.01,2.95,2.38,3.5c1.26-1.9,1.86-4.23,1.67-6.5c-0.1-1.2-0.43-2.4-1.15-3.36c-0.72-0.96-1.89-1.63-3.09-1.55
			s-2.34,1.02-2.46,2.21"/>
		<path class="st113" d="M161.19,226.31c-1.85-0.17-3.74,0.11-5.47,0.82c-2.56,1.04-4.76,3.1-5.64,5.71
			c-0.19,0.57-0.31,1.25,0.03,1.75c0.43,0.63,1.35,0.66,2.1,0.54c4.33-0.7,8.04-4.3,8.87-8.62"/>
		<path class="st114" d="M154.54,241.12c2.32-1.58,5.35-2.08,7.59-0.65c-0.09,2.43-0.18,4.89-0.94,7.19s-2.29,4.47-4.52,5.43"/>
		<path class="st115" d="M145.67,247.07c-0.2,4-0.41,8-0.61,12c-0.05,1.07-0.17,2.27-1,2.96c4.04-2.98,8.08-5.97,12.12-8.95"/>
		<path class="st116" d="M234.29,148.59c1.44,1.53,2.88,3.08,4.04,4.83s2.04,3.73,2.23,5.83c0.11,1.23-0.02,2.48,0.11,3.71
			c-2.18-0.99-3.33-3.36-4.3-5.56c-1.17-2.65-2.35-5.3-3.52-7.95"/>
		<path class="st117" d="M154.37,241.19c-2.39,0.6-4.97,1.31-6.47,3.27c-2.38,3.09-1.16,8.09-3.94,10.82
			c2.76-0.94,5.38-2.32,7.73-4.06c1.83-1.36,3.56-3.03,4.3-5.2c0.74-2.16,0.21-4.88-1.71-6.12"/>
		<path class="st118" d="M237.84,183.45c-0.93-0.73-2.29-0.65-3.35-0.14c-1.06,0.52-1.88,1.4-2.7,2.25
			c-5.02,5.27-10.48,10.11-16.3,14.47c4.89-1.41,9.8-2.82,14.46-4.88c4.66-2.05,9.08-4.78,12.55-8.51c0.5-0.53,1.01-1.25,0.75-1.93
			c-0.26-0.69-1.12-0.89-1.85-0.99c-1.54-0.21-3.07-0.41-4.61-0.62"/>
		<path class="st119" d="M148.84,235.77c-2.32-0.85-4.95-0.44-7.2,0.57c-2.25,1.01-4.2,2.57-6.13,4.11
			c-1.93,1.54-3.9,3.08-6.17,4.05c3.06-0.17,6.1-0.63,9.07-1.37"/>
		<path class="st120" d="M155.26,250.73c-1.46-0.52-3.13,0.38-3.98,1.68c-0.85,1.3-1.07,2.9-1.24,4.45
			c-0.17,1.54-0.34,3.14-1.11,4.49c1.3-0.28,2.61-0.56,3.82-1.11c1.21-0.55,2.32-1.4,2.95-2.57c0.46-0.86,0.64-1.84,0.71-2.82
			c0.1-1.52-0.13-3.24-1.31-4.21"/>
		<path class="st121" d="M153.78,235.22c0.62,0.86,0.96,1.92,0.97,2.98c0,1.06-0.33,2.12-0.95,2.99"/>
		<path class="st122" d="M146.79,245.84c-0.78-0.34-1.72-0.25-2.42,0.22c-0.7,0.47-1.14,1.31-1.12,2.16
			c0.01,0.5,0.16,1.04-0.07,1.48c-0.24,0.45-0.79,0.63-1.17,0.97c-0.82,0.72-0.75,2.02-0.48,3.08c0.49,1.91,1.41,3.71,2.67,5.23"/>
		<path class="st123" d="M144.88,237.07c-0.29,0.59-0.81,1.06-1.43,1.28c-0.34,0.12-0.78,0.26-0.79,0.62
			c-0.01,0.23,0.18,0.41,0.26,0.62c0.18,0.48-0.21,0.97-0.56,1.34c-0.32,0.33-0.67,0.67-1.12,0.74c-0.62,0.09-1.22-0.42-1.37-1.02
			c-0.16-0.61,0.04-1.26,0.37-1.79c0.37-0.59,0.88-1.07,1.42-1.5c0.47-0.38,0.98-0.75,1.58-0.85c0.6-0.11,1.29,0.12,1.56,0.66"/>
		<path class="st124" d="M142.68,241.7c-0.6,0.28-1.21,0.57-1.86,0.67c-0.66,0.1-1.37-0.01-1.87-0.46
			c-0.32-0.29-0.64-0.73-1.06-0.63c-0.24,0.06-0.4,0.3-0.44,0.55c-0.04,0.25,0.02,0.5,0.08,0.74c0.26,1.1,0.53,2.21,0.79,3.31
			c0.03,0.14,0.11,0.31,0.25,0.31c0.13,0,0.2-0.15,0.25-0.27c0.27-0.62,0.93-0.97,1.57-1.2c0.64-0.23,1.32-0.39,1.85-0.81
			c0.53-0.42,0.85-1.21,0.5-1.78c0.5-0.28,0.99-0.56,1.49-0.83"/>
		<path class="st125" d="M141.42,241.82c2.66-1.26,5.14-3.14,7.46-5.39c0.92-0.78,2.1-1.16,3.26-1.48
			c3.75-1.03,7.65-1.54,11.78-1.73c1.48-0.01,2.96,0.12,4.41,0.4c-0.79,0.12-1.34,0.82-1.92,1.3c-1.26,2.78-3.28,5.2-5.78,6.95"/>
		<path class="st125" d="M165.87,235.9c-0.11,0.68-0.23,1.36-0.49,2c-0.26,0.64-0.69,1.23-1.3,1.55c-0.29,0.15-0.62,0.25-0.83,0.5"
			/>
		<path class="st125" d="M161.87,225.5c-0.19,0.24-0.48,0.41-0.78,0.46c0.34-0.12,0.65-0.36,0.84-0.66"/>
		<path class="st126" d="M144.79,206.03c-0.2,0.22-0.15,0.58,0.03,0.82s0.45,0.39,0.69,0.56c0.24,0.18,0.47,0.42,0.49,0.71
			c0.04,0.48-0.42,0.82-0.79,1.13c-0.66,0.56-1.14,1.33-1.35,2.18c-0.12,0.47-0.13,1.03,0.22,1.36c0.4,0.38,1.09,0.25,1.49-0.13
			c0.4-0.38,0.58-0.93,0.75-1.45c0.5-1.55,0.99-3.11,1.49-4.66c0.19-0.61,0.39-1.26,0.22-1.87s-0.85-1.13-1.44-0.88"/>
		<path class="st78" d="M165.1,188.84c1.66-1.42,3.33-2.84,4.83-4.43c0.58-0.62,1.16-1.29,1.42-2.09s0.16-1.79-0.46-2.37
			c-0.88-0.82-2.27-0.5-3.46-0.71c-0.83-0.15-1.58-0.57-2.37-0.87c-0.79-0.3-1.69-0.48-2.46-0.14"/>
		<path class="st127" d="M158.27,181.05c-0.86-0.43-1.72-0.85-2.58-1.28c-0.32-0.16-0.69-0.32-1.01-0.17
			c-0.25,0.11-0.38,0.38-0.47,0.64c-0.28,0.83-0.2,1.75,0.16,2.55s0.98,1.46,1.73,1.9c0.89,0.53,2.02,0.76,2.98,0.37
			c0.96-0.39,1.63-1.52,1.3-2.51c-0.29-0.88-1.2-1.37-2.03-1.77"/>
		<path class="st128" d="M161.65,179.64c-0.36,0.84-0.16,1.99,0.09,2.93c0.25,0.94,0.54,1.99,0.3,2.95"/>
		<path class="st129" d="M162.2,182.72c1.17,1.94,0.62,4.73-1.2,6.09c-0.42,0.32-0.9,0.56-1.29,0.91s-0.71,0.85-0.65,1.37
			c0.07,0.68,0.75,1.17,1.43,1.21c0.68,0.04,1.33-0.27,1.89-0.65c1.53-1.05,2.6-2.75,2.89-4.58c0.1-0.62,0.13-1.3,0.57-1.75
			c0.19-0.19,0.44-0.32,0.6-0.54c0.37-0.48,0.16-1.21-0.27-1.63c-0.43-0.42-1.02-0.63-1.56-0.9c-1.3-0.63-2.43-1.62-3.22-2.83"/>
		<path class="st130" d="M160.07,176.38c-0.56-0.35-1.11-0.7-1.67-1.04c-0.23-0.14-0.48-0.34-0.45-0.6
			c0.04-0.34,0.48-0.43,0.81-0.52c0.49-0.14,0.93-0.47,1.19-0.91c0.15-0.26,0.28-0.58,0.57-0.65c0.29-0.07,0.57,0.15,0.73,0.4
			c0.4,0.6,0.45,1.43,0.11,2.07c-0.25,0.46-0.68,0.87-0.66,1.39c0.36-0.19,0.75,0.16,0.98,0.5c0.29,0.43,0.56,0.92,0.55,1.44
			c-0.01,0.52-0.39,1.07-0.96,0.86c-0.52-0.06-1.05-0.13-1.55,0s-0.99,0.49-1.1,0.99c-0.07,0.29-0.01,0.58,0.06,0.87"/>
		<path class="st128" d="M113.18,176.36c1.68,0.71,3.5,1.55,4.25,3.21c0.9,1.97-0.02,4.47,1.08,6.33"/>
		<path class="st131" d="M117,178.33c2.4-1.8,4.36-4.18,5.68-6.87"/>
		<path class="st128" d="M117.77,152.45c-0.55-2.03-2.19-3.73-4.2-4.34"/>
		<path class="st132" d="M113.97,198.16c-1.07,0.06-2.01,0.88-2.42,1.87c-0.41,1-0.35,2.13-0.05,3.17c0.3,1.03,0.83,1.99,1.35,2.93"
			/>
		<path class="st133" d="M254.58,135.31c0.29-1.28,1.1-2.53,2.34-2.97c0.75-0.27,1.57-0.21,2.37-0.23c0.8-0.01,1.65-0.12,2.26-0.63
			s0.83-1.55,0.26-2.1c-0.33-0.32-0.83-0.4-1.29-0.46c-1.65-0.22-3.31-0.44-4.96-0.66c-0.73,0.37-1.12,1.2-1.21,2.01
			c-0.09,0.81,0.08,1.62,0.21,2.43c0.12,0.81,0.2,1.65-0.05,2.42"/>
		<path class="st134" d="M173.03,133.59c1.22,0.65,2.78,0.61,3.96-0.1c0.53-0.32,1.07-0.78,1.69-0.67c0.45,0.08,0.8,0.48,0.95,0.91
			c0.15,0.44,0.15,0.91,0.14,1.37"/>
		<path class="st135" d="M166.46,133.75c0.93-0.54,4.72-1.26,5.47-2.03c0.74-0.77,1.28-1.82,1.2-2.89
			c-0.08-1.07-0.91-2.11-1.98-2.21c-1.09-0.1-2.03,0.73-2.81,1.51c-0.52,0.53-1.05,1.07-1.42,1.71c-0.37,0.65-0.56,1.42-0.61,2.05
			c-0.86-2.33-2.8-4.23-5.15-5.03c-0.31-0.11-0.64-0.2-0.97-0.14c-0.17,0.03-0.96,1.77-0.49,3.31c0.22,0.7,1.44,2.64,3,3.37
			c1.63,0.76,3.6,0.29,3.59,0.37"/>
		<path class="st136" d="M163.34,134.24c-0.27,0.7-0.06,1.51,0.28,2.18c0.34,0.67,0.82,1.27,1.12,1.96c0.3,0.69,0.42,1.53,0.03,2.18
			"/>
		<path class="st137" d="M148.47,196.67c-0.03-0.45-0.47-0.81-0.93-0.83c-0.45-0.03-0.89,0.22-1.2,0.55
			c-0.31,0.33-0.52,0.74-0.73,1.15c-0.43,0.85-0.86,1.7-1.28,2.55c-0.25,0.5-0.51,1.01-0.62,1.56c-0.1,0.52,0,1.19,0.5,1.39
			c0.32,0.13,0.69,0.02,1-0.15c0.68-0.37,1.21-0.96,1.71-1.56c1.13-1.37,2.13-2.85,3-4.4c-0.73,0.21-1.59-0.21-1.88-0.91"/>
		<path class="st138" d="M209.46,96.71c0.08,0.41,0.53,0.71,0.93,0.62c0.41-0.09,0.69-0.55,0.59-0.95c-0.44-0.03-0.87-0.07-1.31-0.1
			c-0.05,0-0.11-0.01-0.16,0.02c-0.07,0.05-0.07,0.15-0.07,0.23c0,0.08-0.03,0.18-0.11,0.2c0.2,0,0.39,0.17,0.4,0.37
			c0.15-0.09,0.32-0.12,0.49-0.11c0.02-0.05,0.04-0.1,0.06-0.15c0.13,0,0.27-0.02,0.39-0.06"/>
		<path class="st139" d="M164.67,134.29c0.8,1.35,1.69,2.68,2.89,3.69c1.2,1.01,2.75,1.69,4.32,1.57c1.1-0.09,2.26-0.69,2.56-1.75
			c0.21-0.76-0.06-1.57-0.44-2.25c-0.23-0.41-0.52-0.81-0.94-1.02c-0.28-0.14-0.61-0.18-0.92-0.21c-0.98-0.11-1.95-0.22-2.93-0.33
			c-1.55-0.17-3.16-0.34-4.65,0.12"/>
		<path class="st140" d="M184.16,115.15c0.11-0.19,0.08-0.45-0.08-0.61s-0.41-0.21-0.6-0.11c-0.25,0.13-0.36,0.43-0.46,0.69
			c-0.2,0.51-0.5,0.97-0.87,1.37c0.75-0.19,1.45-0.62,1.95-1.21"/>
		<path class="st141" d="M182.48,116.55c0.72-0.02,1.23,0.64,1.75,1.14c1.14,1.09,2.86,1.53,4.38,1.13
			c-0.14,0.14-0.38,0.12-0.56,0.02c-0.17-0.1-0.3-0.26-0.46-0.38c-0.67-0.52-1.66-0.27-2.46-0.56c-0.51-0.18-0.9-0.57-1.34-0.9
			c-0.43-0.32-0.96-0.59-1.49-0.48"/>
		<path class="st142" d="M157.72,116.9c0.48,0.23,1.07,0.21,1.55-0.03c0.48-0.25,0.83-0.72,0.92-1.25c0.3,0.26,0.64,0.63,0.5,1.01
			c-0.1,0.27-0.4,0.4-0.67,0.51c-0.41,0.15-0.83,0.31-1.27,0.3c-0.44-0.01-0.9-0.21-1.08-0.61"/>
		<path class="st143" d="M206.07,94.34c-0.05-0.02-0.09-0.04-0.14-0.06c-0.88-0.44-1.64-1.13-2.21-2.01
			c0.24-0.61,0.97-0.89,1.62-0.88c0.65,0.01,1.28,0.23,1.93,0.33c1.43,0.21,2.95-0.27,4.01-1.26c1.37,1.46,2.92,2.75,4.62,3.81
			c0.27,0.17,0.58,0.48,0.4,0.74c-0.06,0.09-0.17,0.14-0.27,0.18c-3.1,1.31-6.8,1.11-9.75-0.51"/>
		<path class="st138" d="M210.23,97.14c0.07,2.07,0.25,4.13,0.54,6.18"/>
		<path class="st144" d="M212.29,105.44c0.25-0.48,0.02-1.12-0.43-1.43c-0.45-0.31-1.05-0.33-1.57-0.17
			c-0.52,0.16-0.98,0.47-1.42,0.8c-2.65,1.97-4.85,4.47-7.03,6.94c2.1,0.62,4.26,1.25,6.44,1.07c1.05-0.09,2.07-0.36,3.05-0.75
			c0.36-0.14,0.73-0.31,0.99-0.61s0.39-0.73,0.21-1.08"/>
		<path class="st145" d="M215.27,84.35c-0.55-0.51-0.98-1.13-1.41-1.75c-0.2-0.29-0.4-0.58-0.51-0.92c-0.13-0.41-0.1-0.85-0.08-1.28
			c0.07-1.03,0.13-2.06,0.37-3.06c0.04-0.17,0.09-0.35,0.18-0.5s0.25-0.27,0.43-0.28c0.28-0.02,0.51,0.23,0.65,0.48
			c0.56,1,0.4,2.24,0.82,3.31c0.18,0.45,0.45,0.86,0.7,1.27c0.25,0.42,0.48,0.86,0.55,1.34s-0.04,1.01-0.4,1.34"/>
		<path class="st138" d="M215.61,83.91c0.41,0.68,0.84,1.42,0.74,2.21c-0.07,0.49-0.33,0.92-0.59,1.34
			c-0.91,1.46-1.82,2.92-2.73,4.38"/>
		<path class="st146" d="M202.68,100.65c-0.47-0.18-0.98-0.34-1.48-0.25s-0.98,0.46-1.02,0.97c-0.02,0.29,0.1,0.57,0.23,0.84
			c0.63,1.33,1.43,2.58,2.37,3.71c0.41,0.49,0.84,0.97,1.2,1.5c0.41,0.62,0.71,1.3,1.03,1.96c1.43,2.98,3.33,5.74,5.6,8.14
			c0.27-1.08,0.55-2.16,0.82-3.24c0.17-0.68,0.34-1.4,0.12-2.06c-0.18-0.54-0.58-0.96-0.91-1.42c-0.77-1.09-1.12-2.42-1.79-3.56
			c-0.55-0.93-1.3-1.72-2.05-2.51c-1.49-1.56-2.99-3.13-4.48-4.69"/>
		<path class="st147" d="M209.11,96.15c-0.46,0.74-0.94,1.48-1.43,2.21c-0.41,0.62-0.86,1.26-1.52,1.62c-0.89,0.49-1.98,0.35-3,0.27
			c-1.02-0.08-2.15-0.06-2.9,0.64c-2.28,1.21-4.63,2.22-7.05,3.07c3.4-3.96,7.66-7.18,12.45-9.25c0.65,0.05,1.18,0.49,1.71,0.86
			c0.53,0.38,1.17,0.72,1.79,0.55"/>
		<path class="st148" d="M121.07,213.68c-1.48,0.38-2.73,1.43-3.27,2.73c0.49-0.23,0.99-0.46,1.48-0.69c2.25-0.45,4.69,1.4,4.63,3.5
			c-0.05,1.65-1.34,3.02-2.66,4.15c-1.32,1.12-2.8,2.22-3.42,3.77c3.14-0.67,6.22-1.59,9.19-2.75c1.89-0.74,3.88-1.7,4.68-3.43
			c0.78-1.69,0.18-3.65-0.78-5.27c-0.94-1.58-2.38-3.1-4.32-3.45c-2.11-0.38-4.17,0.69-6,1.71"/>
		<path class="st149" d="M125.12,243.63c-0.43-1.63-0.66-3.63,0.6-4.74c1.05-0.92,2.63-0.75,4.01-0.58c1.38,0.17,3.01,0.2,3.91-0.87
			c0.64-0.76,0.69-1.84,0.82-2.83c0.13-0.99,0.47-2.1,1.38-2.51c1.57-0.72,3.67,1.15,5.01,0.06c0.81-0.65,0.87-2.12,1.88-2.38
			c0.89-0.22,1.64,0.89,1.45,1.79c-0.19,0.9-0.95,1.55-1.66,2.13c-1.74,1.41-3.47,2.83-5.21,4.24c-1.82,1.48-3.63,2.96-5.57,4.27
			c-1.26,0.86-2.58,1.64-3.89,2.42c-0.53,0.32-1.15,0.65-1.74,0.48c-1.09-0.3-1.14-1.81-0.95-2.93"/>
		<path class="st150" d="M116.67,143.73c1.99,13.84,3.98,27.67,5.97,41.51"/>
		<path class="st149" d="M170.49,233.62c0-0.62-0.42-1.15-0.64-1.74c-0.22-0.58-0.1-1.43,0.51-1.56c0.4-0.09,0.78,0.19,1.06,0.48
			c0.37,0.39,0.67,0.87,0.75,1.4c0.08,0.53-0.11,1.13-0.56,1.43s-1.14,0.22-1.43-0.24"/>
		<path class="st151" d="M210.01,120c1,1.78,1.67,3.74,1.96,5.76c0.19,1.28,0.24,2.62,0.87,3.74c0.24,0.42,0.6,0.83,1.09,0.87
			c0.46,0.04,0.87-0.27,1.2-0.59c0.99-0.99,1.63-2.3,1.94-3.67c0.31-1.37,0.31-2.79,0.16-4.18c-0.21-2-0.74-3.98-1.7-5.75
			c-0.96-1.77-2.37-3.31-4.13-4.28"/>
		<path class="st152" d="M168.62,234.31c-1.63,0.41-2.83,2.13-2.65,3.8c1.15,0.11,2.34-0.4,3.06-1.3c0.72-0.9,0.95-2.18,0.58-3.27
			c-0.46,0.31-0.92,0.62-1.38,0.94"/>
		<path class="st153" d="M177.59,234.83c-0.07-1.47-1.85-2.17-2.67-3.4c-0.83-1.23-0.56-2.98,0.35-4.15s2.34-1.84,3.78-2.18
			c1.71-0.4,3.54-0.4,5.17,0.24c1.63,0.64,3.03,1.96,3.56,3.63c0.12,0.37,0.19,0.81-0.03,1.13c-0.24,0.36-0.72,0.46-1.14,0.53
			c-3.35,0.6-6.55,2.04-9.21,4.17"/>
		<path class="st154" d="M168.33,242.08c0.87,0.51,1.74,1.03,2.61,1.54c0.98-1.88,2.24-3.61,3.71-5.13c-2.63,0.38-5.1,1.8-6.75,3.89
			c1.06,0.34,2.13,0.67,3.19,1.01"/>
		<path class="st155" d="M175.51,238.58c-3.03,2.2-4.91,5.61-6.85,8.81c-1.95,3.2-4.22,6.46-7.63,8.02c3.12,0.53,6.47-0.53,8.7-2.77
			c1.33-1.33,2.26-3.01,3.55-4.38c0.89-0.94,1.95-1.73,2.83-2.68s1.6-2.15,1.61-3.45c0-0.62-0.15-1.23-0.07-1.84
			c0.08-0.61,0.51-1.25,1.13-1.27c-1.07-0.45-2.23-0.66-3.39-0.61"/>
		<path class="st156" d="M163.66,268.91c6.62-9.4,11.99-19.69,15.91-30.5c2.17,0.64,4.48,0.8,6.71,0.46
			c-5.71,3.16-8.77,9.49-11.58,15.38c-2.81,5.89-6.13,12.15-12.04,14.93"/>
		<path class="st157" d="M239.37,166.28c-0.77-2.55,0.49-5.56,2.84-6.82"/>
		<path class="st158" d="M163.36,135.78"/>
		<path class="st159" d="M95.31,254.13c-1.52,1.38-2.29,3.44-2.52,5.48c-0.22,2.04,0.05,4.11,0.31,6.14
			c0.47,3.53,0.93,7.07,1.4,10.6c0.48,3.64,0.97,7.3,1.95,10.84c0.99,3.54,2.51,6.98,4.86,9.8c-0.31-0.41-0.01-1.02,0.39-1.35
			c0.4-0.33,0.91-0.56,1.16-1.02c0.51-0.91-0.31-2.04-0.15-3.07c0.09-0.59,0.5-1.07,0.77-1.61c0.92-1.8,0.25-3.96-0.18-5.94
			c-2.03-9.26,1.59-19.1-0.59-28.33c-0.39-1.65-1.19-3.47-2.82-3.92c-1.38-0.38-2.78,0.39-3.9,0.93c-0.44,0.54-0.75,1.19-0.91,1.87"
			/>
		<path class="st160" d="M101.91,247.14c-2.87-0.47-5.66,1.87-6.48,4.66c-0.82,2.79-0.06,5.82,1.18,8.46
			c1.24,2.63,2.96,5.02,4.22,7.64c2.67,5.56,3.21,12.02,6.22,17.4c3.22,5.76,8.9,9.65,14.43,13.24c-3.39-4.78-6.5-9.8-8.74-15.22
			c-2.23-5.42-3.57-11.27-3.3-17.13c0.15-3.3,0.79-6.69-0.16-9.85c-1.19-3.92-4.58-6.7-7.79-9.23"/>
		<path class="st157" d="M235.95,170.95c-2.52,4.19-5.03,8.38-7.55,12.56c-1.28,2.13-2.57,4.28-3.42,6.62s-1.26,4.92-0.71,7.36"/>
		<path class="st157" d="M225.01,188.32c2.57-2.28,6.25-3.02,9.65-2.57c3.4,0.46,6.57,1.99,9.47,3.83c2.13,1.35,4.37,2.93,6.89,2.76
			"/>
		<path class="st157" d="M244.73,190.53c0.2,1.63,0.07,3.3-0.38,4.88"/>
		<path class="st157" d="M249.99,192.51c0.94,2.79,1.9,5.74,1.33,8.63"/>
		<path class="st157" d="M262.97,156.19c-3.2,2.8-7.07,4.83-11.57,6.38c-3.2,0.06-6.38,1.01-9.09,2.72"/>
		<path class="st157" d="M236.73,182.59c2.02-6.74,6.04-12.87,11.43-17.41"/>
		<path class="st161" d="M176.48,253.33c-0.66,1.47-1.32,3.19-0.57,4.61c0.69,1.3,2.38,1.92,2.85,3.31
			c-1.12-2.57-1.24-5.56-0.33-8.21c-0.61,0.02-1.22,0.04-1.83,0.06"/>
		<path class="st157" d="M235.84,171c1.61-2.01,1.78-4.8,1.52-7.36c-0.26-2.56-0.88-5.11-0.59-7.67"/>
		<path class="st162" d="M187.19,238.68c-2.27,1.68-3.28,4.58-3.72,7.37s-0.41,5.66-1.18,8.38s-2.56,5.38-5.28,6.14
			c0.41-4,1.33-7.94,2.71-11.72c1.5-4.1,3.75-8.19,7.52-10.39"/>
		<path class="st72" d="M149.87,303.88c0.29,0.83,0.49,1.69,0.57,2.56c0.02,0.23,0.04,0.47-0.06,0.67c-0.1,0.21-0.34,0.36-0.55,0.28
			"/>
		<path class="st163" d="M148.97,301.7c-1-0.68-2.37-0.69-3.45-0.14c-1.08,0.55-1.86,1.59-2.24,2.73c-0.26,0.79-0.34,1.68,0,2.44
			c0.38,0.85,1.26,1.43,2.19,1.56c0.93,0.13,1.88-0.14,2.67-0.63c0.62-0.38,1.16-0.9,1.48-1.55c0.32-0.65,0.38-1.44,0.09-2.1
			c-0.17-0.39-0.46-0.71-0.65-1.09s-0.28-0.86-0.04-1.21c-0.11-0.07-0.22-0.15-0.33-0.22"/>
		<path class="st164" d="M105.01,306.57c2.83-1.27,6.04-1.68,9.1-1.17c-3.99-1.24-8.25,0.4-12.11,2c-4.45,1.85-8.9,3.71-13.34,5.56
			c5.48,1.83,11.25,2.83,17.03,2.95c1.67,0.04,3.42-0.02,4.89-0.81c1.67-0.9,2.75-2.65,3.26-4.48c0.51-1.83,0.52-3.76,0.53-5.66"/>
		<path class="st165" d="M101.39,305.56c-1.82-0.02-3.93,0.11-4.99,1.6c-1.14,1.6-0.37,3.8,0.42,5.59c0.71,1.61,1.42,3.22,2.13,4.82
			c0.47,1.07,1,2.21,2.01,2.8c1.29,0.77,2.98,0.39,4.27-0.38c2.64-1.58,4.19-4.8,3.8-7.85c-0.39-3.05-2.72-5.77-5.67-6.63
			c-1.07-0.31-2.32-0.47-2.94-1.39c0.05,0.26,0.09,0.52,0.14,0.77"/>
		<path class="st166" d="M107.69,291.35c-1.03,0.03-1.93,0.74-2.5,1.6c-0.56,0.86-0.85,1.87-1.19,2.84
			c-0.83,2.37-1.99,4.63-3.45,6.68c1.36-0.14,2.61-0.85,3.58-1.81c0.97-0.96,1.68-2.14,2.29-3.36c0.91-1.82,1.6-3.75,2.06-5.73"/>
		<path class="st150" d="M122.23,182.27c-0.05-0.99-0.79-1.9-1.75-2.15c-0.96-0.25-2.05,0.18-2.58,1.02"/>
		<path class="st150" d="M119.86,159.01c-0.04-0.7-0.07-1.41-0.11-2.11c0.49,2.76,0.29,5.63-0.57,8.29l0.89,2.21"/>
		<path class="st167" d="M299.62,141.01c-0.17-0.9-1.58-0.99-2.18-0.3s-0.59,1.71-0.51,2.62c0.54,6.18,2.79,12.35,1.57,18.43
			c1.84-2.81,3.73-5.75,4.12-9.09c0.52-4.45-1.7-8.72-3.85-12.66"/>
		<path class="st168" d="M292.35,145.45c0.01-0.95,0.01-1.94-0.36-2.81c-0.37-0.88-1.22-1.63-2.17-1.58
			c-0.62,0.03-1.17,0.38-1.68,0.72c-1.93,1.27-3.88,2.54-5.52,4.18s-2.96,3.67-3.36,5.94c0.81-1.21,2.35-1.74,3.81-1.81
			c1.46-0.06,2.9,0.26,4.35,0.37c1.45,0.11,3.01-0.03,4.19-0.89c1.18-0.86,1.78-2.62,0.97-3.84"/>
		<path class="st169" d="M173.68,301.46c-1.09,0.18-2.04,1.02-2.35,2.07c-0.13,0.43-0.18,0.92-0.5,1.23
			c-0.47,0.45-1.02,0.52-1.56,0.67"/>
		<path class="st170" d="M280.65,148.34c6.4-2.54,13.53-2.12,20.41-1.89c6.88,0.24,14.12,0.16,19.64-2.67
			c1.89-1.4,3.77-2.8,5.66-4.2"/>
		<path class="st170" d="M320.23,143.56c2.81,0.07,5.52,1.82,6.73,4.36"/>
		<path class="st170" d="M296.34,99.68c3.81-4.45,9.62-7.13,15.48-7.13"/>
		<path class="st170" d="M249.69,132.65c9.74-8.67,20.18-16.61,28.89-22.63c3.7,1.84,8.21,2.07,12.09,0.62"/>
		<path class="st170" d="M278.27,110.04c4.73-4.18,10.17-7.54,15.4-8.83c4.14-1.09,8.01-3.2,11.44-6.03
			c2.19-4.77,5.71-8.92,10.05-11.86"/>
		<path class="st170" d="M305.77,94.91c1.96-1.19,4.5-1.4,6.62-0.53"/>
		<path class="st170" d="M268.86,116.3c1.28-2.45,3.07-4.64,5.34-6.39c-0.01-2.13-0.23-4.25-0.65-6.33"/>
		<path class="st171" d="M289.56,105.49c0.05,4.09,1.65,8.15,4.4,11.18c1.23,1.35,2.67,2.5,3.9,3.85c1.23,1.35,2.27,2.98,2.44,4.8
			c-0.16-3.98-0.63-8.02-2.19-11.68c-1.56-3.67-4.34-6.95-8.05-8.4"/>
		<path class="st170" d="M274.19,110.16c4.9-3.9,10.66-6.7,16.74-8.16"/>
		<path class="st170" d="M269.03,115.88c4.19-8.57,9.83-16.43,15.88-22.27c6.15-5.86,13.53-10.25,20.84-14.58
			c2.06-1.22,4.18-2.46,6.54-2.83c2.36-0.37,5.06,0.34,6.37,2.34"/>
		<path class="st170" d="M285.08,93.94c1.73,0.65,3.76,0.44,5.32-0.56"/>
		<path class="st172" d="M312.08,94.81c-0.86,0.13-1.75,0.27-2.5,0.71s-1.34,1.27-1.24,2.14c0.07,0.57,0.41,1.06,0.73,1.53
			c3.62,5.4,5.44,11.78,7.21,18.04c2.93-4.78,4.09-10.62,3.2-16.16c-0.28-1.74-0.86-3.61-2.34-4.57c-1.75-1.13-4.33-0.7-5.77-2.21"
			/>
		<path class="st170" d="M274,105.14c-2.88-15.3,3.97-32,16.77-40.88"/>
		<path class="st170" d="M280.62,73.35c-7.01,6.84-9.82,17.67-7.32,27.67c4.43-9.99,17.66-13.82,21.97-24
			c0.78-1.64,1.57-3.28,2.35-4.92c-0.18,0.35-0.36,0.7-0.54,1.05"/>
		<path class="st173" d="M311.6,92.63c-0.48-0.28-0.98-0.56-1.34-0.99s-0.56-1.03-0.38-1.55c0.2-0.54,0.77-0.88,1.35-0.96
			c0.57-0.08,1.15,0.05,1.72,0.18c1.75,0.41,3.51,0.81,5.26,1.22c0.08,1.34-0.09,2.7-0.51,3.99c-0.14,0.42-0.32,0.85-0.69,1.09
			c-0.52,0.34-1.2,0.17-1.81,0.09c-0.67-0.1-1.35-0.08-2.02-0.21c-0.67-0.12-1.34-0.41-1.73-0.97s-0.38-1.42,0.15-1.84"/>
		<path class="st170" d="M305.86,93.79c0.92-1.37,1.88-2.86,1.83-4.51c-0.05-1.65-1.65-3.33-3.22-2.8"/>
		<path class="st18" d="M328.47,95.73"/>
		<path class="st174" d="M300.18,107.13c-0.69,0.17-1.37,0.35-2.06,0.52c0.14,6.29,0.28,12.58,0.43,18.86
			c1.92-3.14,1.94-7.05,1.9-10.73c-0.02-1.94-0.04-3.87-0.06-5.81c-0.01-1.17-0.17-2.58-1.22-3.1"/>
		<path class="st175" d="M310.05,145.46c-1.15-0.89-2.89-0.92-4.06-0.07c-0.64,0.46-1.13,1.29-0.86,2.03
			c0.15,0.42,0.51,0.73,0.86,1.02c1.28,1.06,2.56,2.12,3.71,3.28c1.1,1.91,1.79,4.04,2.03,6.23c0.43-1.04,1.23-1.88,2.07-2.63
			c0.84-0.75,1.74-1.44,2.45-2.3c0.72-0.87,1.24-1.95,1.17-3.08c-0.07-1.12-0.88-2.23-1.99-2.39c-1.11-0.16-2.27,0.59-3.31,0.17
			c-0.64-0.26-1.03-0.91-1.43-1.47c-0.4-0.56-0.97-1.13-1.66-1.1"/>
		<path class="st176" d="M290.26,113.88c-0.39,0.3-0.79,0.6-1.18,0.9c1.43,1.85,3.27,3.34,4.83,5.08c1.56,1.74,2.88,3.87,2.92,6.21
			c-0.46-3.66-1.64-7.24-3.46-10.45c-0.31-0.54-0.64-1.08-1.1-1.5s-1.08-0.69-1.7-0.62c-0.62,0.08-1.2,0.57-1.25,1.19
			c-0.05,0.62,0.57,1.24,1.18,1.08"/>
		<path class="st177" d="M282.89,110.22c-0.97-0.33-2.13,0.26-2.51,1.11s-0.13,1.83,0.4,2.62c0.53,0.79,1.31,1.41,2.05,2.05
			c6.3,5.43,10.77,12.49,12.68,20.05c-1.2-7.88-3.88-15.58-7.9-22.7c-0.58-1.03-1.22-2.08-2.22-2.82c-1-0.74-2.47-1.12-3.66-0.63"/>
		<path class="st178" d="M302.51,147.09c1.54,1.08,2.8,2.57,3.71,4.2c2.96,7.18,5.23,14.65,7.41,21.7c0-6.32-0.91-12.63-2.69-18.69
			c-0.35-1.2-0.78-2.45-1.69-3.3c-0.92-0.85-2.48-1.15-3.41-0.31"/>
		<path class="st179" d="M310.92,146.49c0.98,0.95,1.54,2.32,1.52,3.68c0.22,2.71,1.42,5.23,2.3,7.8
			c2.62,7.66,2.41,16.09,5.25,23.67c0.03-5.32,0.07-10.64,0.1-15.96c0.03-4.04-0.01-8.31-2.12-11.76c-1.43-2.33-3.67-4.03-5.86-5.67
			"/>
		<path class="st180" d="M253.1,151.14c-0.51,1.51,0.61,3.14,1.98,3.96c1.37,0.82,2.99,1.13,4.41,1.86c1.8,0.92,3.24,2.52,3.97,4.4
			c0.79-1.54,0.65-3.5-0.33-4.92c-0.75-1.08-1.89-1.79-3-2.48c-1.6-0.99-3.2-1.98-4.79-2.98c-0.39-0.24-0.8-0.49-1.25-0.56
			c-0.46-0.06-0.98,0.11-1.18,0.52"/>
		<path class="st181" d="M248.42,149.77c0.74-0.98,1.51-2,2.61-2.54c1.1-0.55,2.62-0.46,3.35,0.53c-0.08-0.33-0.61-0.3-0.78-0.01
			c-0.17,0.29-0.08,0.65,0.04,0.96c0.8,2.04,2.7,3.46,4.68,4.4s4.12,1.53,6.07,2.54c1.95,1.01,3.76,2.58,4.34,4.7
			c-1.68-6-4.05-11.94-8.07-16.7c-0.67-0.8-1.48-1.61-2.51-1.76c-1.19-0.18-2.36,0.61-2.96,1.65c-0.6,1.04-0.72,2.29-0.71,3.49"/>
		<path class="st182" d="M249.13,154.52c1.36-4.92,4.04-9.39,7.25-13.36s6.94-7.48,10.66-10.97c-3.04,8.33-8.01,15.95-14.42,22.08
			c-1.05,1-2.18,1.99-3.55,2.44"/>
		<path class="st183" d="M256.36,140.34c0.58-1.92,1.31-3.79,2.18-5.58c0.3-0.61,0.81-1.1,1.43-1.37c0.08,3.04-1.37,6.08-3.79,7.92
			c0.04-0.18,0.08-0.36,0.12-0.55"/>
		<path class="st184" d="M254.67,135.05c2.99-1.19,5.88-2.61,8.66-4.23c1.94-1.13,3.82-2.37,5.87-3.29c2.53-1.14,5.26-1.77,7.96-2.4
			c2.5-0.58,5.02-1.16,7.59-1.36s5.2,0.01,7.59,0.96c-5.83,2.73-11.66,5.47-17.48,8.2c-1.58,0.74-3.19,1.49-4.92,1.79
			s-3.61,0.1-5.02-0.93c-1.09-0.79-2.08-2.1-3.41-1.9"/>
		<path class="st185" d="M277.64,148.84c0.71-2.13,1.42-4.26,2.13-6.39c0.38-1.15,0.77-2.3,0.96-3.5
			c0.94-5.94-3.03-11.75-2.46-17.74c-1.88,6.53-2.34,13.47-1.32,20.19c0.09,0.6,0.21,1.23,0.62,1.67c0.41,0.44,1.21,0.56,1.59,0.09"
			/>
		<g>
			<g>
				<path class="st11" d="M180.69,41.98c0.29,0,0.58-0.5,0.87-0.5C181.27,41.48,180.98,41.98,180.69,41.98L180.69,41.98z"/>
			</g>
		</g>
		<g>
			<g>
				<path class="st186" d="M187.36,114.23c0.17,0.03,0.36,0.04,0.5,0.14c0.06,0.05,0.12,0.12,0.15,0.19
					c0.02,0.07,0.03,0.16,0.08,0.21c0,0,0.15-0.08,0.13-0.07c0.1-0.06,0.2-0.12,0.31-0.18c0.1-0.06,0.2-0.12,0.31-0.18
					c0.01-0.01,0.13-0.07,0.13-0.08c-0.03-0.09-0.12-0.17-0.18-0.24c-0.08-0.08-0.17-0.15-0.27-0.2c-0.11-0.05-0.23-0.07-0.34-0.09
					c-0.06-0.01-0.12-0.01-0.18-0.02c-0.05-0.01-0.11-0.01-0.16,0c-0.04,0.01-0.09,0.05-0.13,0.07c-0.1,0.06-0.2,0.12-0.31,0.18
					c-0.1,0.06-0.2,0.12-0.31,0.18c-0.02,0.01-0.12,0.06-0.13,0.08c0,0.06,0.16,0.06,0.2,0.06c0.03,0,0.07,0,0.1,0
					c0.07,0.01,0.14,0.05,0.2,0.08c0.13,0.08,0.25,0.18,0.36,0.29c0.11,0.1,0.23,0.21,0.29,0.34c0.29-0.17,0.58-0.33,0.87-0.5
					c-0.09-0.06-0.13-0.16-0.21-0.23c-0.08-0.08-0.18-0.14-0.28-0.2c-0.2-0.12-0.43-0.19-0.66-0.25c-0.01,0-0.13,0.07-0.13,0.07
					c-0.1,0.06-0.2,0.12-0.31,0.18s-0.2,0.12-0.31,0.18c-0.02,0.01-0.04,0.03-0.07,0.04c-0.02,0.01-0.04,0.02-0.06,0.04
					c0.23,0.06,0.45,0.13,0.66,0.25c0.1,0.06,0.19,0.12,0.27,0.19c0.08,0.07,0.12,0.18,0.21,0.24c0.01,0,0.14-0.08,0.13-0.07
					c0.1-0.06,0.2-0.12,0.31-0.18c0.03-0.02,0.44-0.24,0.43-0.25c-0.06-0.14-0.18-0.24-0.29-0.34c-0.11-0.11-0.22-0.21-0.36-0.29
					c-0.06-0.03-0.13-0.07-0.2-0.08c-0.03-0.01-0.07,0-0.1,0c-0.04,0-0.21,0.01-0.2-0.06c-0.29,0.17-0.58,0.33-0.87,0.5
					c0.05-0.02,0.1-0.01,0.15-0.01c0.06,0.01,0.12,0.01,0.18,0.02c0.12,0.02,0.24,0.04,0.35,0.09c0.1,0.04,0.19,0.11,0.27,0.19
					c0.07,0.07,0.15,0.15,0.19,0.25c0.29-0.17,0.58-0.33,0.87-0.5c-0.05-0.05-0.06-0.14-0.08-0.21c-0.03-0.08-0.08-0.15-0.15-0.2
					c-0.14-0.1-0.33-0.12-0.5-0.14c-0.02,0-0.13,0.07-0.13,0.07c-0.1,0.06-0.2,0.12-0.31,0.18c-0.1,0.06-0.2,0.12-0.31,0.18
					c-0.02,0.01-0.04,0.03-0.07,0.04C187.4,114.21,187.38,114.22,187.36,114.23L187.36,114.23z"/>
			</g>
		</g>
		<g>
			<g>
				<path class="st186" d="M175.66,120.52c0.29,0,0.58-0.5,0.87-0.5C176.23,120.02,175.94,120.52,175.66,120.52L175.66,120.52z"/>
			</g>
		</g>
		<g>
			<g>
				<path class="st186" d="M158.24,113.29c0.05,0.03,0.1,0.06,0.15,0.1c0.05,0.03,0.1,0.08,0.11,0.14c0.29-0.17,0.58-0.33,0.87-0.5
					c-0.14-0.07-0.28-0.13-0.39-0.24c0,0-0.15,0.08-0.13,0.07c-0.1,0.06-0.2,0.12-0.31,0.18c-0.1,0.06-0.2,0.12-0.31,0.18
					c-0.02,0.01-0.04,0.03-0.07,0.04c-0.02,0.01-0.04,0.02-0.06,0.04c0.11,0.11,0.25,0.17,0.39,0.24c0.01-0.01,0.03-0.01,0.04-0.02
					c0.03-0.02,0.06-0.03,0.09-0.05c0.1-0.06,0.2-0.12,0.31-0.18s0.2-0.12,0.31-0.18c0.02-0.01,0.04-0.03,0.07-0.04
					c0.02-0.01,0.04-0.02,0.06-0.04c-0.01-0.06-0.06-0.11-0.11-0.14c-0.05-0.04-0.1-0.06-0.15-0.1c-0.01,0.01-0.03,0.01-0.04,0.02
					c-0.03,0.02-0.06,0.03-0.09,0.05c-0.1,0.06-0.2,0.12-0.31,0.18s-0.2,0.12-0.31,0.18c-0.02,0.01-0.04,0.03-0.07,0.04
					C158.28,113.26,158.26,113.27,158.24,113.29L158.24,113.29z"/>
			</g>
		</g>
		<path class="st187" d="M254.27,135.07c0.12-1.48,1.42-2.67,2.86-3.05c1.44-0.38,2.97-0.1,4.39,0.34c3.99,1.24,7.48,3.68,11.2,5.59
			s8.02,3.29,12.05,2.19c-1.16-1.93-3-3.45-5.12-4.23c-1.87-0.69-3.92-0.8-5.78-1.53c-1.95-0.77-3.6-2.17-5.56-2.91
			c-2.47-0.93-5.36-0.69-7.64,0.65"/>
		<path class="st188" d="M264.63,110.27c2.52-4.92,5.49-9.61,8.86-13.99c0.22-0.28,0.56-0.6,0.88-0.44
			c0.23,0.11,0.29,0.41,0.32,0.67c0.15,1.7-0.1,3.43-0.73,5.02c-0.8,2.02-2.19,3.74-3.55,5.42c-1.62,2.01-3.25,4.02-5.05,6.23
			c-0.29-0.88-0.57-1.76-0.86-2.65"/>
		<polygon class="st8" points="149.22,99.95 149.22,99.95 149.22,99.95 		"/>
		<path class="st189" d="M266.93,116.43c0.59-1.2,0.89-2.54,0.42-3.72c-0.73-6.69-0.88-13.45-0.47-20.17
			c0.74,2.81,1.48,5.63,2.23,8.44c0.58,2.19,1.16,4.42,1.02,6.68c-0.14,2.26-1.13,4.58-3.06,5.76"/>
		<path class="st190" d="M266.47,97.62c-5.82-2.39-12.47-2.73-18.51-0.93c6.61-0.8,12.67,4.41,19.33,4.34"/>
		<path class="st191" d="M266.41,124.17c1.32-0.61,2.86-0.76,4.27-0.4c0.58-2.02,2.87-3.17,4.97-3.06c2.1,0.1,4.02,1.18,5.76,2.36
			c5.07,3.45,9.44,8.2,11.5,13.98c-3.61-2.56-7.64-4.52-11.88-5.77c-2.24-0.66-4.57-1.14-6.63-2.22c-2.07-1.09-3.9-2.95-4.23-5.26"
			/>
		<path class="st192" d="M290.21,93.26c0.34-0.98,0.94-1.86,1.72-2.54c0.2-0.17,0.43-0.34,0.7-0.33c0.27,0.01,0.5,0.2,0.67,0.41
			c0.75,0.89,0.88,2.16,0.69,3.31s-0.68,2.22-1.03,3.33c-0.36,1.11-0.59,2.31-0.28,3.43c-0.9-2.59-1.8-5.18-2.7-7.76"/>
		<path class="st193" d="M285.6,88.99c0.53-0.26,1.06-0.53,1.49-0.94c0.43-0.41,0.73-0.98,0.69-1.56c-0.06-0.67-0.55-1.22-1.08-1.63
			c-0.96-0.74-2.13-1.2-3.34-1.31c0.83,1.64,1.67,3.28,2.5,4.92"/>
		<path class="st194" d="M283.13,83.96c-0.05-0.81-0.12-1.68-0.63-2.33s-1.62-0.86-2.11-0.21c-0.46,0.6-0.07,1.55,0.59,1.93
			c0.66,0.38,1.47,0.36,2.23,0.33"/>
		<path class="st195" d="M279.81,74.46c-0.2-1.68-0.41-3.35-0.61-5.03c-0.06-0.47-0.21-1.04-0.67-1.13
			c-0.42-0.08-0.77,0.34-0.98,0.71c-0.43,0.74-0.78,1.51-1.04,2.32c-0.15,0.45-0.27,0.92-0.23,1.4c0.05,0.47,0.29,0.95,0.71,1.16
			c0.55,0.28,1.2,0.06,1.8-0.04s1.39,0.06,1.53,0.65"/>
		<path class="st196" d="M274.34,88.82c1.45-3.35,1.17-7.25,0-10.72c-1.17-3.46-3.16-6.58-5.14-9.65c0.35,3.72,2.42,7.03,3.55,10.59
			c1.08,3.4,1.29,7,1.5,10.55"/>
		<path class="st197" d="M289.52,65.11c0.11-1.2,1.04-2.18,2.09-2.76c1.05-0.59,2.24-0.87,3.35-1.32c1.68-0.67,3.22-1.73,4.38-3.11
			c-0.43,2.16-0.97,4.5-2.67,5.9c-1.33,1.09-3.12,1.4-4.82,1.66c-0.9,0.14-1.83,0.28-2.73,0.1"/>
		<path class="st198" d="M297.28,72.45c-1.41-1.29-1.81-3.41-1.5-5.29c0.32-1.89,1.24-3.61,2.15-5.29c1.11-2.05,2.23-4.1,3.34-6.15
			c0.34-0.63,0.72-1.29,1.36-1.61c0.96-0.47,2.17,0.08,2.78,0.96c0.61,0.88,0.74,1.99,0.8,3.06c0.18,3.18-0.19,6.48-1.76,9.25
			c-1.56,2.77-4.49,4.91-7.67,4.9"/>
		<path class="st199" d="M305.5,86.13c-5.88-4.59-13.08-7.46-20.51-8.17c3.04,2.99,7.62,3.55,11.69,4.79
			c2.93,0.9,5.73,2.22,8.18,4.27c0.16-0.34,0.32-0.68,0.48-1.02"/>
		<path class="st200" d="M297.47,96.27c2.13,4.12,2.37,9.17,0.66,13.48c0.08-2.23-0.71-4.38-1.27-6.53
			c-0.56-2.16-0.88-4.54,0.1-6.54"/>
		<path class="st201" d="M318.4,78.35c-0.51-0.13-1.05-0.24-1.57-0.11c-0.52,0.12-1,0.54-1.04,1.07c-0.06,0.71,0.68,1.26,1.39,1.38
			c0.71,0.12,1.44-0.04,2.15,0.05c1.88,0.23,3.29,2.08,5.18,2.23c0.61,0.05,1.22-0.08,1.83-0.08c0.61,0,1.28,0.18,1.62,0.68
			c-0.13-1.16-0.31-2.41-1.15-3.22c-0.56-0.53-1.32-0.77-2.05-1c-1.34-0.42-2.68-0.83-4.02-1.25c-0.9-0.28-1.92-0.54-2.73-0.07"/>
		<path class="st202" d="M251.12,200.48c-2.65,6.46-4.53,13.24-5.59,20.14c3.58-5.44,6.25-11.47,7.87-17.78
			c0.24-0.95,0.45-2.02-0.03-2.87c-0.35-0.62-1.15-1.03-1.82-0.77c-0.67,0.26-0.94,1.29-0.38,1.74"/>
	</g>
	<rect x="18.64" y="16.5" class="st3" width="325.54" height="32.14"/>
	<rect x="18.64" y="309.96" class="st3" width="325.54" height="32.14"/>
	
		<rect x="-128.06" y="163.2" transform="matrix(6.123234e-17 -1 1 6.123234e-17 -144.5571 213.9744)" class="st3" width="325.54" height="32.14"/>
	
		<rect x="165.18" y="163.47" transform="matrix(6.123234e-17 -1 1 6.123234e-17 148.4096 507.4883)" class="st3" width="325.54" height="32.14"/>
</g>
</svg>
